<svg xmlns="http://www.w3.org/2000/svg" viewBox="0 0 2500 2500"><path d="M 675 1.032 C 602.722 7.860, 536.841 38.202, 485.133 88.476 C 465.583 107.485, 451.429 125.078, 437.030 148.269 C 429.911 159.734, 429.641 160.026, 426.611 159.541 C 411.889 157.185, 405.037 156.661, 388.500 156.626 C 375.231 156.597, 366.031 157.115, 358 158.341 C 306.120 166.260, 261.142 188.785, 224.963 224.963 C 188.752 261.174, 166.285 306.037, 158.337 358 C 155.884 374.037, 155.914 407.040, 158.396 423.500 C 168.575 491.015, 205.188 548.785, 261.500 586.180 C 292.909 607.039, 331.677 620.684, 369 624.018 C 377.830 624.807, 433.029 625.024, 557 624.756 C 745.009 624.350, 735.656 624.587, 761.955 619.556 C 807.128 610.913, 853.208 590.665, 889.262 563.616 C 959.066 511.246, 1003.020 435.367, 1013.630 348.914 C 1015.854 330.794, 1015.854 294.206, 1013.630 276.086 C 1000.787 171.438, 937.921 81.226, 845 34.105 C 811.779 17.258, 781.350 7.777, 743.455 2.465 C 730.347 0.628, 688.543 -0.247, 675 1.032 M 1408 1.505 C 1325.130 12.835, 1260.238 79.391, 1251.029 162.500 C 1250.223 169.773, 1250.005 474.598, 1250.228 1280.500 C 1250.524 2345.308, 1250.606 2388.792, 1252.344 2396 C 1258.909 2423.228, 1269.723 2442.890, 1288.417 2461.583 C 1307.496 2480.663, 1328.368 2491.978, 1355 2497.680 C 1363.157 2499.427, 1384.148 2499.500, 1875 2499.500 C 2365.852 2499.500, 2386.843 2499.427, 2395 2497.680 C 2432.635 2489.622, 2463.637 2467.312, 2482.797 2434.500 C 2490.273 2421.697, 2496.864 2402.693, 2498.578 2389 C 2498.956 2385.975, 2499.726 2382.920, 2500.288 2382.211 C 2501.703 2380.426, 2500.307 175.313, 2498.883 162 C 2489.913 78.175, 2421.988 10.317, 2337.789 1.067 C 2322.307 -0.634, 1420.538 -0.209, 1408 1.505 M 689.937 157.049 C 637.384 160.836, 587.203 194.425, 563.769 241.500 C 558.385 252.315, 555.496 260.234, 551.109 276.207 C 545.514 296.573, 540.901 305.343, 529.716 316.880 C 520.076 326.822, 504.816 335.446, 491.319 338.580 C 487.497 339.467, 480.105 340.161, 474.500 340.158 C 457.847 340.149, 445.151 336.288, 429.309 326.413 C 412.869 316.167, 399.821 312.376, 384.088 313.275 C 364.959 314.368, 350.786 321.025, 335.905 335.905 C 325.332 346.478, 320.387 354.228, 316.170 366.833 C 313.870 373.707, 313.600 376.104, 313.552 390 C 313.507 403.560, 313.793 406.434, 315.844 412.965 C 319.085 423.285, 322.872 430.421, 329.572 438.830 C 337.050 448.216, 345.472 455.060, 356.188 460.459 C 373.371 469.116, 358.675 468.500, 548 468.500 C 727.268 468.500, 721.475 468.651, 742 463.459 C 799.735 448.856, 843.074 403.123, 856.155 343 C 858.108 334.023, 858.439 329.599, 858.439 312.500 C 858.439 295.401, 858.108 290.977, 856.155 282 C 849.259 250.306, 835.612 224.834, 813.670 202.705 C 781.052 169.807, 737.239 153.641, 689.937 157.049 M 1427.326 157.041 C 1425.031 157.497, 1421.858 158.539, 1420.275 159.358 C 1416.041 161.547, 1409.468 169.093, 1407.882 173.584 C 1406.709 176.907, 1406.500 341.376, 1406.500 1260.500 L 1406.500 2343.500 1875 2343.500 L 2343.500 2343.500 2343.500 1260.500 C 2343.500 341.376, 2343.291 176.907, 2342.118 173.584 C 2340.260 168.322, 2333.518 161.164, 2328 158.595 L 2323.500 156.500 1877.500 156.356 C 1632.200 156.277, 1429.622 156.585, 1427.326 157.041 M 1634.500 312.667 C 1601.198 315.418, 1573.647 338.394, 1564.787 370.804 C 1562.836 377.941, 1562.651 381.675, 1562.245 422.214 C 1561.770 469.691, 1562.426 480.968, 1566.390 493.450 C 1573.898 517.092, 1594.934 537.125, 1619.691 544.208 C 1631.147 547.486, 1651.401 547.454, 1662 544.142 C 1689.033 535.695, 1708.497 516.013, 1716.242 489.291 C 1718.457 481.647, 1718.500 480.516, 1718.500 429.500 C 1718.500 378.451, 1718.459 377.357, 1716.237 369.691 C 1709.044 344.871, 1689.074 323.892, 1665.521 316.413 C 1659.062 314.362, 1642.598 311.681, 1639.500 312.176 C 1638.950 312.264, 1636.700 312.485, 1634.500 312.667 M 2099.428 313.068 C 2068.793 316.721, 2042.558 339.343, 2033.763 369.691 C 2031.541 377.357, 2031.500 378.451, 2031.500 429.500 C 2031.500 480.516, 2031.543 481.647, 2033.758 489.291 C 2041.503 516.013, 2060.967 535.695, 2088 544.142 C 2098.599 547.454, 2118.853 547.486, 2130.309 544.208 C 2155.066 537.125, 2176.102 517.092, 2183.610 493.450 C 2187.574 480.968, 2188.230 469.691, 2187.755 422.214 C 2187.349 381.675, 2187.164 377.941, 2185.213 370.804 C 2174.772 332.611, 2138.766 308.378, 2099.428 313.068 M 1625.486 704.387 C 1610.027 707.347, 1598.037 713.979, 1585.507 726.500 C 1575.311 736.688, 1570.110 744.838, 1566.459 756.349 C 1562.410 769.118, 1561.766 780.105, 1562.272 827.786 C 1562.656 863.959, 1563.019 872.592, 1564.376 877.832 C 1570.278 900.627, 1585.556 919.462, 1606.580 929.862 C 1623.782 938.370, 1646.032 939.776, 1665.521 933.587 C 1684.807 927.463, 1703.328 910.786, 1711.942 891.788 C 1718.552 877.209, 1718.500 877.780, 1718.500 820.500 C 1718.500 769.484, 1718.457 768.353, 1716.242 760.709 C 1708.554 734.184, 1689.014 714.303, 1662.500 706.031 C 1653.586 703.250, 1635.596 702.450, 1625.486 704.387 M 2095.763 703.965 C 2066.378 709.336, 2042.248 731.419, 2033.758 760.709 C 2031.543 768.353, 2031.500 769.484, 2031.500 820.500 C 2031.500 871.549, 2031.541 872.643, 2033.763 880.309 C 2039.351 899.589, 2052.645 916.759, 2069.941 927.034 C 2091.324 939.737, 2121.135 940.884, 2143.420 929.862 C 2164.444 919.462, 2179.722 900.627, 2185.624 877.832 C 2186.981 872.592, 2187.344 863.959, 2187.728 827.786 C 2188.232 780.287, 2187.583 769.063, 2183.610 756.550 C 2176.167 733.112, 2155.019 712.842, 2130.839 705.971 C 2122.585 703.625, 2103.569 702.538, 2095.763 703.965 M 167.302 938.069 C 110.996 942.400, 57.848 974.833, 27.817 1023.188 C 17.025 1040.564, 8.566 1060.954, 3.737 1081.230 L 1.530 1090.500 1.243 1739 C 0.982 2328.788, 1.100 2388.224, 2.548 2395.500 C 7.582 2420.801, 19.392 2442.558, 38.417 2461.583 C 57.113 2480.279, 76.816 2491.115, 104 2497.651 C 111.156 2499.371, 131.206 2499.469, 541 2499.784 C 857.907 2500.028, 972.859 2499.817, 979.500 2498.977 C 1039.894 2491.339, 1086.818 2443.429, 1092.947 2383.144 C 1093.672 2376.012, 1094 2176.470, 1094 1742.138 C 1094 1055.823, 1094.360 1100.086, 1088.591 1076.500 C 1075.453 1022.787, 1037.665 977.115, 987.394 954.189 C 966.283 944.561, 947.860 939.785, 925 938.014 C 909.913 936.845, 182.526 936.898, 167.302 938.069 M 173.627 1095.468 C 167.556 1097.633, 162.760 1102.071, 159.500 1108.543 L 156.500 1114.500 156.211 1182.250 L 155.921 1250 546.461 1250 L 937 1250 936.978 1181.750 C 936.953 1104.730, 937.400 1109.268, 929.049 1101.163 C 920.939 1093.293, 958.666 1093.995, 546.572 1094.044 C 235.341 1094.081, 176.893 1094.304, 173.627 1095.468 M 1623.500 1095.499 C 1600.360 1100.668, 1580.453 1116.585, 1569.898 1138.354 C 1562.699 1153.202, 1562.499 1155.183, 1562.507 1211.500 C 1562.516 1268.292, 1562.528 1268.403, 1570.518 1284.500 C 1579.292 1302.175, 1596.684 1317.871, 1614.157 1323.882 C 1628.285 1328.743, 1649.692 1329.219, 1663.500 1324.980 C 1691.142 1316.493, 1712.411 1292.508, 1717.572 1264 C 1719.604 1252.781, 1719.565 1169.500, 1717.523 1157.790 C 1712.215 1127.355, 1687.575 1101.692, 1657.792 1095.581 C 1648.524 1093.680, 1631.824 1093.640, 1623.500 1095.499 M 2091.500 1095.596 C 2061.989 1102.153, 2037.720 1127.725, 2032.477 1157.790 C 2030.342 1170.034, 2030.342 1251.966, 2032.477 1264.210 C 2037.421 1292.559, 2058.776 1316.434, 2087 1325.165 C 2093.385 1327.140, 2096.656 1327.485, 2109 1327.485 C 2121.186 1327.486, 2124.804 1327.114, 2131.672 1325.155 C 2151.336 1319.544, 2169.938 1303.726, 2179.482 1284.500 C 2187.517 1268.312, 2187.505 1268.425, 2187.462 1210.500 C 2187.426 1160.975, 2187.361 1159.271, 2185.212 1151.588 C 2178.133 1126.278, 2157.420 1104.814, 2132.500 1096.964 C 2123.150 1094.019, 2101.803 1093.307, 2091.500 1095.596 M 156.249 1875.250 L 156.500 2343.500 546.750 2343.751 L 937 2344.003 937 1875.501 L 937 1407 546.499 1407 L 155.998 1407 156.249 1875.250 M 1632.500 1484.593 C 1618.691 1486.513, 1607.964 1490.262, 1598.717 1496.400 C 1581.536 1507.804, 1570.067 1523.467, 1564.812 1542.704 C 1562.829 1549.965, 1562.653 1553.502, 1562.245 1594.214 C 1561.770 1641.691, 1562.426 1652.968, 1566.390 1665.450 C 1573.898 1689.094, 1594.945 1709.135, 1619.691 1716.205 C 1630.908 1719.409, 1650.170 1719.385, 1661.500 1716.153 C 1675.278 1712.223, 1684.192 1706.808, 1695.500 1695.500 C 1706.784 1684.216, 1712.179 1675.348, 1716.186 1661.500 C 1718.473 1653.595, 1718.500 1652.884, 1718.500 1601.500 C 1718.500 1550.451, 1718.459 1549.357, 1716.237 1541.691 C 1708.428 1514.748, 1685.633 1492.494, 1659.730 1486.527 C 1653.120 1485.004, 1637.514 1483.896, 1632.500 1484.593 M 2098.388 1484.989 C 2081.546 1487.358, 2068.537 1493.735, 2055.633 1505.947 C 2045.032 1515.979, 2037.779 1527.835, 2033.763 1541.691 C 2031.541 1549.357, 2031.500 1550.451, 2031.500 1601.500 C 2031.500 1652.884, 2031.527 1653.595, 2033.814 1661.500 C 2037.821 1675.348, 2043.216 1684.216, 2054.500 1695.500 C 2065.808 1706.808, 2074.722 1712.223, 2088.500 1716.153 C 2099.830 1719.385, 2119.092 1719.409, 2130.309 1716.205 C 2155.055 1709.135, 2176.102 1689.094, 2183.610 1665.450 C 2187.574 1652.968, 2188.230 1641.691, 2187.755 1594.214 C 2187.347 1553.502, 2187.171 1549.965, 2185.188 1542.704 C 2177.562 1514.786, 2155.171 1492.779, 2127.904 1486.404 C 2120.335 1484.634, 2105.850 1483.940, 2098.388 1484.989 M 384.500 1562.667 C 351.198 1565.418, 323.647 1588.394, 314.787 1620.804 C 312.836 1627.941, 312.651 1631.675, 312.245 1672.214 C 311.770 1719.691, 312.426 1730.968, 316.390 1743.450 C 323.898 1767.092, 344.934 1787.125, 369.691 1794.208 C 381.147 1797.486, 401.401 1797.454, 412 1794.142 C 439.033 1785.695, 458.497 1766.013, 466.242 1739.291 C 468.457 1731.647, 468.500 1730.516, 468.500 1679.500 C 468.500 1628.451, 468.459 1627.357, 466.237 1619.691 C 459.044 1594.871, 439.074 1573.892, 415.521 1566.413 C 409.062 1564.362, 392.598 1561.681, 389.500 1562.176 C 388.950 1562.264, 386.700 1562.485, 384.500 1562.667 M 694 1563.047 C 684.269 1564.222, 678.581 1565.717, 671.342 1568.999 C 653.943 1576.888, 637.651 1593.595, 630.718 1610.655 C 625.533 1623.416, 625.500 1623.855, 625.500 1680 C 625.500 1731.847, 625.529 1732.600, 627.807 1740.500 C 635.177 1766.064, 657.046 1787.515, 683 1794.638 C 687.860 1795.972, 693.032 1796.409, 703.500 1796.371 C 715.439 1796.327, 718.695 1795.956, 725.618 1793.848 C 752.396 1785.695, 774.047 1762.210, 779.473 1735.430 C 780.881 1728.482, 781.058 1720.407, 780.779 1675.946 C 780.460 1625.304, 780.419 1624.391, 778.143 1617.500 C 769.750 1592.091, 748.033 1571.200, 723.636 1565.065 C 714.800 1562.844, 702.573 1562.011, 694 1563.047 M 1629.500 1875.626 C 1619.310 1877.633, 1616.172 1878.477, 1610.825 1880.649 C 1593.542 1887.672, 1576.923 1903.865, 1568.949 1921.453 C 1562.806 1935, 1562.500 1938.374, 1562.500 1992.500 C 1562.500 2036.130, 1562.697 2042.338, 1564.295 2049.146 C 1570.868 2077.143, 1595.612 2101.739, 1623 2107.500 C 1631.906 2109.373, 1649.401 2109.410, 1658.063 2107.574 C 1680.932 2102.726, 1702.715 2084.723, 1712.510 2062.574 C 1718.508 2049.010, 1718.500 2049.108, 1718.500 1992.500 C 1718.500 1941.355, 1718.463 1940.371, 1716.222 1932.638 C 1707.899 1903.909, 1685.074 1882.379, 1656.792 1876.580 C 1649.834 1875.154, 1634.603 1874.621, 1629.500 1875.626 M 2093 1876.492 C 2064.453 1882.942, 2042.472 1903.610, 2033.849 1932.107 C 2031.695 1939.227, 2031.599 1941.255, 2031.243 1987 C 2030.848 2037.697, 2031.300 2045.310, 2035.406 2057.118 C 2043.975 2081.759, 2066.968 2102.281, 2091.937 2107.574 C 2100.599 2109.410, 2118.094 2109.373, 2127 2107.500 C 2154.388 2101.739, 2179.132 2077.143, 2185.705 2049.146 C 2187.303 2042.338, 2187.500 2036.130, 2187.500 1992.500 C 2187.500 1940.233, 2187.341 1938.139, 2182.363 1924.798 C 2174.199 1902.922, 2153.064 1883.931, 2129.500 1877.300 C 2121.958 1875.178, 2100.881 1874.711, 2093 1876.492 M 375.486 1954.387 C 360.027 1957.347, 348.037 1963.979, 335.507 1976.500 C 325.311 1986.688, 320.110 1994.838, 316.459 2006.349 C 312.410 2019.118, 311.766 2030.105, 312.272 2077.786 C 312.656 2113.959, 313.019 2122.592, 314.376 2127.832 C 320.278 2150.627, 335.556 2169.462, 356.580 2179.862 C 373.782 2188.370, 396.032 2189.776, 415.521 2183.587 C 434.807 2177.463, 453.328 2160.786, 461.942 2141.788 C 468.552 2127.209, 468.500 2127.780, 468.500 2070.500 C 468.500 2019.484, 468.457 2018.353, 466.242 2010.709 C 458.554 1984.184, 439.014 1964.303, 412.500 1956.031 C 403.586 1953.250, 385.596 1952.450, 375.486 1954.387 M 691.500 1953.647 C 661.500 1958.474, 636.095 1980.753, 627.807 2009.500 C 625.529 2017.400, 625.500 2018.153, 625.500 2070 C 625.500 2126.181, 625.527 2126.545, 630.743 2139.428 C 638.068 2157.521, 656.584 2175.566, 674.798 2182.363 C 684.791 2186.092, 692.284 2187.314, 704.500 2187.209 C 718.063 2187.091, 728.318 2184.620, 738.874 2178.926 C 757.788 2168.724, 771.553 2152.451, 778.143 2132.500 C 780.419 2125.609, 780.460 2124.696, 780.779 2074.054 C 781.058 2029.593, 780.881 2021.518, 779.473 2014.570 C 774.039 1987.753, 752.139 1964.032, 725.618 1956.238 C 717.571 1953.873, 698.904 1952.455, 691.500 1953.647" stroke="none" fill="#09abb5" fill-rule="evenodd"></path></svg>