<svg xmlns="http://www.w3.org/2000/svg" viewBox="0 0 2500 2500"><path d="M 366 5.674 C 293.378 10.915, 229.277 32.820, 169.996 72.656 C 87.744 127.928, 28.667 215.500, 7.459 313.591 C 1.429 341.481, 0.724 348.864, 0.253 389 C -0.036 413.547, 0.213 430.300, 0.972 437.500 C 11.839 540.542, 63.876 635.424, 145.381 700.810 C 209.641 752.362, 289.881 782.627, 370.908 785.876 C 395.147 786.848, 872.604 781.434, 888 780.013 C 1028.614 767.032, 1143.266 661.163, 1167.420 522 C 1170.777 502.660, 1171.440 493.795, 1171.424 468.500 C 1171.406 441.523, 1170.327 429.538, 1165.930 407.500 C 1157.740 366.453, 1140.084 324.945, 1116.163 290.500 C 1094.604 259.458, 1062.812 228.476, 1030.978 207.485 C 975.708 171.042, 906.862 152.435, 844 156.949 C 805.535 159.711, 772.048 168.055, 736.699 183.687 C 728.559 187.286, 721.749 190.067, 721.566 189.866 C 721.384 189.665, 719.077 186.125, 716.439 182 C 692.638 144.774, 656.488 106.891, 618.500 79.365 C 551.412 30.754, 468.916 4.311, 387.050 5.175 C 377.948 5.271, 368.475 5.496, 366 5.674 M 359.500 163.508 C 314.232 169.909, 273.421 187.655, 240.286 215.346 C 156.216 285.604, 131.512 401.611, 179.712 499.792 C 217.021 575.789, 293.814 625.851, 378.895 629.641 C 392.561 630.249, 846.108 625.448, 865 624.495 C 883.778 623.547, 896.025 621.208, 912 615.517 C 960.686 598.173, 997.948 557.114, 1010.457 507.027 C 1014.039 492.689, 1015.002 484.552, 1014.982 468.808 C 1014.951 443.814, 1010.742 424.461, 1000.532 402.363 C 985.077 368.912, 955.030 339.875, 921.104 325.604 C 898.472 316.083, 879.245 312.441, 856.500 313.365 C 832.510 314.340, 816.195 318.704, 793.500 330.218 C 779.757 337.191, 768.140 345.902, 753.012 360.578 C 737.410 375.713, 732.338 379.624, 722.687 383.965 C 689.353 398.957, 648.614 388.083, 627.607 358.585 C 621.357 349.809, 618.925 344.461, 613.019 326.500 C 599.503 285.396, 581.470 256.196, 551.851 227.456 C 518.038 194.645, 476.092 173.365, 428.500 164.877 C 412.901 162.095, 374.837 161.340, 359.500 163.508 M 1937.500 626.442 C 1913.190 632.151, 1896.267 644.729, 1884.273 666 C 1876.059 680.570, 1844.493 749.227, 1819.127 807.698 C 1687.360 1111.433, 1600.816 1401.312, 1573.030 1632 C 1562.693 1717.822, 1559.717 1802.188, 1565.486 1845.898 C 1579.965 1955.615, 1636.738 2050.547, 1726.500 2115.133 C 1765.436 2143.149, 1814.970 2165.788, 1861 2176.606 C 1866.775 2177.964, 1872.287 2179.313, 1873.250 2179.604 C 1874.898 2180.104, 1875 2184.905, 1875 2262.067 L 1875 2344 1562.500 2344 L 1250 2344 1250 2051.009 L 1250 1758.018 1268.692 1771.985 C 1296.662 1792.884, 1305.183 1796.428, 1327.500 1796.441 C 1342.680 1796.451, 1350.294 1794.827, 1362.500 1788.975 C 1377.686 1781.695, 1390.833 1768.395, 1398.556 1752.500 C 1404.236 1740.810, 1405.969 1733.107, 1405.978 1719.500 C 1405.994 1697.415, 1398.465 1678.381, 1383.982 1663.890 C 1376.999 1656.902, 746.988 1184.765, 739.232 1180.707 C 726.550 1174.071, 719.438 1172.493, 702.500 1172.557 C 689.001 1172.609, 686.700 1172.882, 679.500 1175.284 C 675.100 1176.752, 668.575 1179.673, 665 1181.776 C 661.425 1183.878, 516.300 1292.258, 342.500 1422.620 C 89.227 1612.593, 25.153 1661.099, 19.714 1666.982 C 12.183 1675.127, 5.252 1687.840, 2.258 1699 C -0.224 1708.253, -0.126 1731.163, 2.432 1739.500 C 9.263 1761.763, 25.073 1780.567, 44.500 1789.534 C 55.886 1794.789, 63.806 1796.398, 78.500 1796.438 C 100.661 1796.500, 109.636 1792.825, 136.887 1772.530 C 146.879 1765.088, 155.267 1759, 155.527 1759 C 155.787 1759, 156 1890.625, 156 2051.500 L 156 2344 112.065 2344 C 77.043 2344, 66.699 2344.301, 61.070 2345.485 C 34.077 2351.163, 11.527 2372.291, 2.858 2400.025 C 0.877 2406.361, 0.521 2409.634, 0.518 2421.500 C 0.514 2437.848, 1.908 2444.353, 8.019 2456.500 C 17.881 2476.101, 36.023 2491.344, 56.459 2497.197 L 64.500 2499.500 1250 2499.500 L 2435.500 2499.500 2443.541 2497.197 C 2469.494 2489.763, 2492.016 2466.470, 2497.477 2441.414 C 2498.426 2437.061, 2499.607 2432.719, 2500.101 2431.764 C 2501.367 2429.319, 2501.274 2410.713, 2500 2411.500 C 2499.420 2411.859, 2499 2410.879, 2499 2409.164 C 2499 2405.298, 2495.430 2393.813, 2492.267 2387.500 C 2482.352 2367.716, 2463.285 2351.951, 2441.840 2345.807 C 2438.472 2344.842, 2392.024 2344.444, 2234.500 2344.032 L 2031.500 2343.500 2031.244 2261.771 L 2030.988 2180.041 2033.744 2179.397 C 2035.260 2179.043, 2042.364 2177.272, 2049.531 2175.462 C 2152.479 2149.457, 2240.815 2081.788, 2293.883 1988.280 C 2317.198 1947.199, 2334.127 1896.319, 2340.462 1848.289 C 2344.289 1819.276, 2344.764 1781.354, 2341.944 1730 C 2330.121 1514.639, 2262.246 1245.364, 2144.200 945.500 C 2099.740 832.560, 2031.428 678.489, 2016.507 657.500 C 2006.522 643.454, 1992.867 633.799, 1974.500 627.796 C 1966.520 625.188, 1946.031 624.439, 1937.500 626.442 M 1950.502 898.500 C 1945.265 910.100, 1921.576 967.838, 1909.267 999 C 1824.919 1212.549, 1766.672 1411.202, 1738.489 1581.451 C 1725.622 1659.177, 1719.660 1723.126, 1719.558 1784.500 C 1719.510 1813.418, 1719.812 1821.498, 1721.293 1831 C 1727.425 1870.340, 1743.176 1907.474, 1767.305 1939.478 C 1775.097 1949.813, 1800.187 1974.903, 1810.522 1982.695 C 1842.547 2006.839, 1879.868 2022.662, 1919 2028.684 C 1935.078 2031.159, 1970.981 2031.154, 1987 2028.675 C 2073.260 2015.324, 2144.260 1957.336, 2173.320 1876.500 C 2183.762 1847.456, 2187.001 1826.504, 2186.998 1788.038 C 2186.982 1604.230, 2128.642 1348.108, 2022.189 1064.500 C 2002.856 1012.994, 1969.234 928.940, 1955.189 897 L 1953.210 892.500 1950.502 898.500 M 507.750 1494.322 L 313 1640.498 313 1992.255 L 313 2344.012 390.750 2343.756 L 468.500 2343.500 469.075 2212.500 C 469.392 2140.450, 469.933 2080.375, 470.279 2079 C 470.625 2077.625, 471.426 2073.350, 472.058 2069.500 C 483.881 1997.520, 532.796 1931.956, 599.005 1899.346 C 630.215 1883.974, 659.967 1876.568, 695.500 1875.327 C 753.973 1873.285, 807.947 1891.923, 854.215 1930.133 C 878.426 1950.128, 898.928 1976.516, 913.547 2006.500 C 924.707 2029.390, 931.101 2049.650, 935.220 2075.170 C 937.325 2088.215, 937.379 2091.235, 937.744 2216.256 L 938.117 2344.012 1015.809 2343.756 L 1093.500 2343.500 1093.751 1992.252 L 1094.003 1641.004 898.668 1494.502 C 791.234 1413.926, 703.145 1348.033, 702.916 1348.073 C 702.687 1348.113, 614.862 1413.925, 507.750 1494.322 M 693.448 2032.058 C 677.236 2034.011, 662.993 2040.636, 650.817 2051.888 C 639.562 2062.289, 632.188 2073.906, 627.794 2088.161 L 625.532 2095.500 625.240 2219.750 L 624.947 2344 703 2344 L 781.052 2344 780.745 2219.250 C 780.411 2083.758, 780.783 2092.797, 774.979 2079 C 767.184 2060.467, 748.808 2042.958, 730 2036.142 C 719.284 2032.259, 705.015 2030.664, 693.448 2032.058 M 0.370 2422 C 0.370 2427.775, 0.535 2430.137, 0.737 2427.250 C 0.939 2424.363, 0.939 2419.637, 0.737 2416.750 C 0.535 2413.863, 0.370 2416.225, 0.370 2422" stroke="none" fill="#09abb5" fill-rule="evenodd"></path></svg>