<svg xmlns="http://www.w3.org/2000/svg" viewBox="0 0 24 24" height="48" width="48" stroke-width="1.5"><path d="M12 0.75H16.5V3.75H12z" fill="none" stroke="#4284f7" stroke-linecap="round" stroke-linejoin="round"></path><path d="M12 3.75L12 6.75" fill="none" stroke="#4284f7" stroke-linecap="round" stroke-linejoin="round"></path><path d="M9.25,17.25h5.5a1,1,0,0,1,1,1v5a0,0,0,0,1,0,0H8.25a0,0,0,0,1,0,0v-5a1,1,0,0,1,1-1Z" fill="none" stroke="#4284f7" stroke-linecap="round" stroke-linejoin="round"></path><path d="M12 17.25L12 23.25" fill="none" stroke="#4284f7" stroke-linecap="round" stroke-linejoin="round"></path><path d="M2.25 13.5L3.75 13.5" fill="none" stroke="#4284f7" stroke-linecap="round" stroke-linejoin="round"></path><path d="M20.25 13.5L21.75 13.5" fill="none" stroke="#4284f7" stroke-linecap="round" stroke-linejoin="round"></path><path d="M3 10.5L3.75 13.5 20.25 13.5 21 10.5" fill="none" stroke="#4284f7" stroke-linecap="round" stroke-linejoin="round"></path><path d="M21.75,10.5H16.424a4.485,4.485,0,0,0-8.848,0H2.25" fill="none" stroke="#4284f7" stroke-linecap="round" stroke-linejoin="round"></path><path d="M3.75 13.5H20.25V23.25H3.75z" fill="none" stroke="#4284f7" stroke-linecap="round" stroke-linejoin="round"></path><path d="M0.75 23.25L23.25 23.25" fill="none" stroke="#4284f7" stroke-linecap="round" stroke-linejoin="round"></path></svg>