<svg xmlns="http://www.w3.org/2000/svg" viewBox="0 0 24 24" height="48" width="48" stroke-width="1.5"><path d="M2.193,23.25a9.754,9.754,0,0,1,6.749-9.28l3,2.53,3-2.53a9.754,9.754,0,0,1,6.751,9.28" fill="none" stroke="#4284f7" stroke-linecap="round" stroke-linejoin="round"></path><path d="M17.6,15.306a9.724,9.724,0,0,0-2.655-1.336l-3,2.53,3.4,4.075Z" fill="none" stroke="#4284f7" stroke-linecap="round" stroke-linejoin="round"></path><path d="M11.943,16.5l-3-2.53a9.746,9.746,0,0,0-2.654,1.336l2.258,5.269Z" fill="none" stroke="#4284f7" stroke-linecap="round" stroke-linejoin="round"></path><path d="M14.193 23.25L15.339 20.575" fill="none" stroke="#4284f7" stroke-linecap="round" stroke-linejoin="round"></path><path d="M8.546 20.575L9.693 23.25" fill="none" stroke="#4284f7" stroke-linecap="round" stroke-linejoin="round"></path><path d="M6.693 6.000 A5.250 5.250 0 1 0 17.193 6.000 A5.250 5.250 0 1 0 6.693 6.000 Z" fill="none" stroke="#4284f7" stroke-linecap="round" stroke-linejoin="round"></path><path d="M7.419,3.334A8.711,8.711,0,0,0,13.693,6a8.725,8.725,0,0,0,3.452-.71" fill="none" stroke="#4284f7" stroke-linecap="round" stroke-linejoin="round"></path></svg>