<svg xmlns="http://www.w3.org/2000/svg" viewBox="0 0 24 24" height="48" width="48" stroke-width="1.5"><path d="M2.25 6.75H21.75V23.25H2.25z" fill="none" stroke="#4284f7" stroke-linecap="round" stroke-linejoin="round"></path><path d="M12.75,18.75h-1.5a1.5,1.5,0,0,0-1.5,1.5v3h4.5v-3A1.5,1.5,0,0,0,12.75,18.75Z" fill="none" stroke="#4284f7" stroke-linecap="round" stroke-linejoin="round"></path><path d="M5.25 9.75L5.25 11.25" fill="none" stroke="#4284f7" stroke-linecap="round" stroke-linejoin="round"></path><path d="M9.75 9.75L9.75 11.25" fill="none" stroke="#4284f7" stroke-linecap="round" stroke-linejoin="round"></path><path d="M14.25 9.75L14.25 11.25" fill="none" stroke="#4284f7" stroke-linecap="round" stroke-linejoin="round"></path><path d="M18.75 9.75L18.75 11.25" fill="none" stroke="#4284f7" stroke-linecap="round" stroke-linejoin="round"></path><path d="M5.25 14.25L5.25 15.75" fill="none" stroke="#4284f7" stroke-linecap="round" stroke-linejoin="round"></path><path d="M9.75 14.25L9.75 15.75" fill="none" stroke="#4284f7" stroke-linecap="round" stroke-linejoin="round"></path><path d="M14.25 14.25L14.25 15.75" fill="none" stroke="#4284f7" stroke-linecap="round" stroke-linejoin="round"></path><path d="M18.75 14.25L18.75 15.75" fill="none" stroke="#4284f7" stroke-linecap="round" stroke-linejoin="round"></path><path d="M0.75 6.75L23.25 6.75" fill="none" stroke="#4284f7" stroke-linecap="round" stroke-linejoin="round"></path><path d="M19.079.75H4.921A1.5,1.5,0,0,0,3.466,1.886L2.25,6.75h19.5L20.534,1.886A1.5,1.5,0,0,0,19.079.75Z" fill="none" stroke="#4284f7" stroke-linecap="round" stroke-linejoin="round"></path><path d="M5.25 18.75L5.25 20.25" fill="none" stroke="#4284f7" stroke-linecap="round" stroke-linejoin="round"></path><path d="M18.75 18.75L18.75 20.25" fill="none" stroke="#4284f7" stroke-linecap="round" stroke-linejoin="round"></path></svg>