<svg xmlns="http://www.w3.org/2000/svg" viewBox="0 0 24 24" height="48" width="48" stroke-width="1.5"><path d="M.97,6.22A.75.75,0,0,0,1.5,7.5h21a.75.75,0,0,0,.75-.75V4.5a.75.75,0,0,0-.75-.75H5.925A6,6,0,0,0,1.682,5.507Z" fill="none" stroke="#4284f7" stroke-linecap="round" stroke-linejoin="round"></path><path d="M6.75,7.5v15a.75.75,0,0,1-.75.75H3a.75.75,0,0,1-.75-.75V7.5" fill="none" stroke="#4284f7" stroke-linecap="round" stroke-linejoin="round"></path><path d="M14.25,7.5v15a.75.75,0,0,1-.75.75h-3a.75.75,0,0,1-.75-.75V7.5" fill="none" stroke="#4284f7" stroke-linecap="round" stroke-linejoin="round"></path><path d="M21.75,7.5v15a.75.75,0,0,1-.75.75H18a.75.75,0,0,1-.75-.75V7.5" fill="none" stroke="#4284f7" stroke-linecap="round" stroke-linejoin="round"></path><path d="M6.5.75h2a.5.5,0,0,1,.5.5v2.5a0,0,0,0,1,0,0H6a0,0,0,0,1,0,0V1.25A.5.5,0,0,1,6.5.75Z" fill="none" stroke="#4284f7" stroke-linecap="round" stroke-linejoin="round"></path><path d="M18.5.75h2a.5.5,0,0,1,.5.5v2.5a0,0,0,0,1,0,0H18a0,0,0,0,1,0,0V1.25A.5.5,0,0,1,18.5.75Z" fill="none" stroke="#4284f7" stroke-linecap="round" stroke-linejoin="round"></path><path d="M2.25 11.25L3.75 11.25" fill="none" stroke="#4284f7" stroke-linecap="round" stroke-linejoin="round"></path><path d="M2.25 14.25L3.75 14.25" fill="none" stroke="#4284f7" stroke-linecap="round" stroke-linejoin="round"></path><path d="M2.25 17.25L3.75 17.25" fill="none" stroke="#4284f7" stroke-linecap="round" stroke-linejoin="round"></path><path d="M9.75 11.25L11.25 11.25" fill="none" stroke="#4284f7" stroke-linecap="round" stroke-linejoin="round"></path><path d="M9.75 14.25L11.25 14.25" fill="none" stroke="#4284f7" stroke-linecap="round" stroke-linejoin="round"></path><path d="M9.75 17.25L11.25 17.25" fill="none" stroke="#4284f7" stroke-linecap="round" stroke-linejoin="round"></path><path d="M17.25 11.25L18.75 11.25" fill="none" stroke="#4284f7" stroke-linecap="round" stroke-linejoin="round"></path><path d="M17.25 14.25L18.75 14.25" fill="none" stroke="#4284f7" stroke-linecap="round" stroke-linejoin="round"></path><path d="M17.25 17.25L18.75 17.25" fill="none" stroke="#4284f7" stroke-linecap="round" stroke-linejoin="round"></path></svg>