<svg xmlns="http://www.w3.org/2000/svg" viewBox="0 0 24 24" height="48" width="48" stroke-width="1.5"><path d="M12.75,22.55v-4.9h.7a3.5,3.5,0,0,0,3.5-3.5,1.4,1.4,0,0,1,1.4-1.4,1.9,1.9,0,0,1,1.9,1.9v.9a.7.7,0,0,0,.7.7h.2a2.1,2.1,0,0,1,2.089,2.309l-.217,2.17a2.8,2.8,0,0,1-2.786,2.521H17.342a2.779,2.779,0,0,1-.769-.108l-1.7-.484a2.779,2.779,0,0,0-.769-.108H12.75" fill="none" stroke="#4284f7" stroke-linecap="round" stroke-linejoin="round"></path><path d="M15.75,10.5v-9A.75.75,0,0,0,14.737.8l-8.25,4.27A.75.75,0,0,0,6,5.77V9.75" fill="none" stroke="#4284f7" stroke-linecap="round" stroke-linejoin="round"></path><path d="M13.5 5.25L15.75 5.25" fill="none" stroke="#4284f7" stroke-linecap="round" stroke-linejoin="round"></path><path d="M12 8.25L15.75 8.25" fill="none" stroke="#4284f7" stroke-linecap="round" stroke-linejoin="round"></path><path d="M0.75 12.75L3 12.75" fill="none" stroke="#4284f7" stroke-linecap="round" stroke-linejoin="round"></path><path d="M0.75 15.75L4.5 15.75" fill="none" stroke="#4284f7" stroke-linecap="round" stroke-linejoin="round"></path><path d="M8.25 4.156L8.25 0.751" fill="none" stroke="#4284f7" stroke-linecap="round" stroke-linejoin="round"></path><path d="M8.25,23.25v-12a1.5,1.5,0,0,0-1.5-1.5H2.25a1.5,1.5,0,0,0-1.5,1.5v12h9" fill="none" stroke="#4284f7" stroke-linecap="round" stroke-linejoin="round"></path></svg>