<svg xmlns="http://www.w3.org/2000/svg" viewBox="0 0 24 24" stroke-width="1.5px" height="48" width="48"><g><rect x="3.5" y="14.25" width="3" height="6" fill="none" stroke="#4284f7" stroke-linecap="round" stroke-linejoin="round"></rect><rect x="10.5" y="14.25" width="3" height="6" fill="none" stroke="#4284f7" stroke-linecap="round" stroke-linejoin="round"></rect><rect x="17.5" y="14.25" width="3" height="6" fill="none" stroke="#4284f7" stroke-linecap="round" stroke-linejoin="round"></rect><path d="M21.75,13.39a.87.87,0,0,1-.86.86H3.11a.86.86,0,0,1-.25-1.69l8.85-2.72a1,1,0,0,1,.58,0l8.85,2.72A.87.87,0,0,1,21.75,13.39Z" fill="none" stroke="#4284f7" stroke-linecap="round" stroke-linejoin="round"></path><polyline points="15.5 8.25 18 8.25 18 11.6" fill="none" stroke="#4284f7" stroke-linecap="round" stroke-linejoin="round"></polyline><polyline points="6 11.6 6 8.25 8.5 8.25" fill="none" stroke="#4284f7" stroke-linecap="round" stroke-linejoin="round"></polyline><path d="M6,8.25a6,6,0,0,1,12,0" fill="none" stroke="#4284f7" stroke-linecap="round" stroke-linejoin="round"></path><line x1="12" y1="0.75" x2="12" y2="2.25" fill="none" stroke="#4284f7" stroke-linecap="round" stroke-linejoin="round"></line><line x1="0.75" y1="23.25" x2="23.25" y2="23.25" fill="none" stroke="#4284f7" stroke-linecap="round" stroke-linejoin="round"></line><line x1="2" y1="20.25" x2="22" y2="20.25" fill="none" stroke="#4284f7" stroke-linecap="round" stroke-linejoin="round"></line></g></svg>