<svg xmlns="http://www.w3.org/2000/svg" viewBox="0 0 24 24" stroke-width="1.5px" height="48" width="48"><defs></defs><line x1="20.29" y1="18.889" x2="15.972" y2="19.445" fill="none" stroke="#4284f7" stroke-linecap="round" stroke-linejoin="round"></line><path d="M14.416,13.027l-3.468,1.146a1.15,1.15,0,0,1-1.405-.611,1.163,1.163,0,0,1,.529-1.529l3.359-1.69a2.343,2.343,0,0,1,1.861-.108l4.973,1.82" fill="none" stroke="#4284f7" stroke-linecap="round" stroke-linejoin="round"></path><path d="M3.685,18.9H6.13l3.512,3.936a1.341,1.341,0,0,0,1.9.138l4.435-3.526a1.468,1.468,0,0,0,.137-1.918L12.97,13.505" fill="none" stroke="#4284f7" stroke-linecap="round" stroke-linejoin="round"></path><path d="M10.583,11.774l-.358-.294A2.1,2.1,0,0,0,8.2,11.221L3.75,13" fill="none" stroke="#4284f7" stroke-linecap="round" stroke-linejoin="round"></path><path d="M.75,11.3h2a.961.961,0,0,1,1,.917v6.416a.961.961,0,0,1-1,.917h-2" fill="none" stroke="#4284f7" stroke-linecap="round" stroke-linejoin="round"></path><path d="M23.25,19.549h-2a.961.961,0,0,1-1-.917V12.216a.961.961,0,0,1,1-.917h2" fill="none" stroke="#4284f7" stroke-linecap="round" stroke-linejoin="round"></path><path d="M5.684,8.528A6.376,6.376,0,1,1,18.247,7.6" fill="none" stroke="#4284f7" stroke-linecap="round" stroke-linejoin="round"></path><path d="M6.131,4.344H7.339A1.974,1.974,0,0,1,9.16,6.165v1.7c0,.251.224.468.472.665" fill="none" stroke="#4284f7" stroke-linecap="round" stroke-linejoin="round"></path><path d="M13.342.867S12.279,1.7,11.89,2A1.513,1.513,0,0,0,11.6,4.11l.915,1.22a1.513,1.513,0,0,0,1.21.6h.887a1.513,1.513,0,0,1,1.07.443l.7.7" fill="none" stroke="#4284f7" stroke-linecap="round" stroke-linejoin="round"></path></svg>