<svg xmlns="http://www.w3.org/2000/svg" viewBox="0 0 24 24" stroke-width="1.5px" height="48" width="48"><defs></defs><path d="M10.3,13.289c-.037-.731-.054-1.492-.054-2.289v-.75a1,1,0,0,0-1-1H4.75a1,1,0,0,0-1,1V11c0,5.1-.681,8.75-3,12.25H5" fill="none" stroke="#4284f7" stroke-linecap="round" stroke-linejoin="round"></path><path d="M9.25,16.5h13a1,1,0,0,1,1,1v5.75a0,0,0,0,1,0,0h-15a0,0,0,0,1,0,0V17.5A1,1,0,0,1,9.25,16.5Z" fill="none" stroke="#4284f7" stroke-linecap="round" stroke-linejoin="round"></path><path d="M16.25,12.5h4a1,1,0,0,1,1,1v3a0,0,0,0,1,0,0h-6a0,0,0,0,1,0,0v-3A1,1,0,0,1,16.25,12.5Z" fill="none" stroke="#4284f7" stroke-linecap="round" stroke-linejoin="round"></path><line x1="19.75" y1="12.5" x2="19.75" y2="10.5" fill="none" stroke="#4284f7" stroke-linecap="round" stroke-linejoin="round"></line><line x1="11.25" y1="19.75" x2="12.25" y2="19.75" fill="none" stroke="#4284f7" stroke-linecap="round" stroke-linejoin="round"></line><line x1="19.25" y1="19.75" x2="20.25" y2="19.75" fill="none" stroke="#4284f7" stroke-linecap="round" stroke-linejoin="round"></line><line x1="15.25" y1="19.75" x2="16.25" y2="19.75" fill="none" stroke="#4284f7" stroke-linecap="round" stroke-linejoin="round"></line><path d="M12,.75A2.241,2.241,0,0,0,9.875,2.292,2.737,2.737,0,0,0,6.145,6.25" fill="none" stroke="#4284f7" stroke-linecap="round" stroke-linejoin="round"></path><path d="M10.364,6.25a2.753,2.753,0,0,0,.588-1.27A2.233,2.233,0,0,0,14.25,3" fill="none" stroke="#4284f7" stroke-linecap="round" stroke-linejoin="round"></path></svg>