<svg xmlns="http://www.w3.org/2000/svg" fill="none" viewBox="0 0 24 24" stroke-width="1.5" height="48" width="48"><path stroke="#4284f7" stroke-linecap="round" stroke-linejoin="round" d="M7.471 12.2832C7.18979 12.0019 7.03182 11.6204 7.03182 11.2227C7.03182 10.8249 7.18979 10.4435 7.471 10.1622V10.1622C7.61039 10.0229 7.72096 9.85749 7.79641 9.67544C7.87185 9.49339 7.91068 9.29826 7.91068 9.10119C7.91068 8.90413 7.87185 8.709 7.79641 8.52695C7.72096 8.34489 7.61039 8.17949 7.471 8.04019L4.819 5.38919C4.53771 5.10799 4.15624 4.95001 3.7585 4.95001C3.36075 4.95001 2.97929 5.10799 2.698 5.38919L2.068 6.01819C1.34359 6.74237 0.887919 7.69202 0.77628 8.71023C0.664641 9.72843 0.903715 10.7543 1.454 11.6182L1.46 11.6282C4.36618 15.928 8.06968 19.6308 12.37 22.5362L12.38 22.5432C13.244 23.0934 14.2699 23.3323 15.2881 23.2204C16.3064 23.1086 17.2559 22.6528 17.98 21.9282L18.609 21.2992C18.7484 21.1599 18.859 20.9945 18.9344 20.8124C19.0098 20.6304 19.0487 20.4353 19.0487 20.2382C19.0487 20.0411 19.0098 19.846 18.9344 19.6639C18.859 19.4819 18.7484 19.3165 18.609 19.1772L15.956 16.5262C15.8167 16.3868 15.6513 16.2762 15.4692 16.2008C15.2872 16.1253 15.0921 16.0865 14.895 16.0865C14.6979 16.0865 14.5028 16.1253 14.3208 16.2008C14.1387 16.2762 13.9733 16.3868 13.834 16.5262C13.5527 16.8074 13.1712 16.9654 12.7735 16.9654C12.3758 16.9654 11.9943 16.8074 11.713 16.5262"></path><path stroke="#4284f7" d="M17.25 9.375C17.0429 9.375 16.875 9.20711 16.875 9C16.875 8.79289 17.0429 8.625 17.25 8.625"></path><path stroke="#4284f7" d="M17.25 9.375C17.4571 9.375 17.625 9.20711 17.625 9C17.625 8.79289 17.4571 8.625 17.25 8.625"></path><path stroke="#4284f7" stroke-linecap="round" stroke-linejoin="round" d="M17.25 0.75C16.2027 0.750058 15.1736 1.02427 14.2651 1.54536C13.3566 2.06646 12.6003 2.81629 12.0714 3.72029C11.5426 4.6243 11.2596 5.65099 11.2506 6.69829C11.2415 7.74559 11.5068 8.77701 12.02 9.69L10.5 14.25L14.926 12.283C15.745 12.6265 16.6301 12.784 17.5174 12.7439C18.4047 12.7038 19.272 12.4673 20.0567 12.0513C20.8415 11.6354 21.5241 11.0504 22.0553 10.3386C22.5865 9.62676 22.9531 8.8059 23.1285 7.93523C23.304 7.06456 23.2839 6.16579 23.0699 5.3038C22.8558 4.44182 22.453 3.63811 21.8906 2.95069C21.3282 2.26327 20.6202 1.70928 19.8177 1.32871C19.0152 0.948138 18.1382 0.75048 17.25 0.75V0.75Z"></path><path stroke="#4284f7" stroke-linecap="round" stroke-linejoin="round" d="M15.75 5.25C15.75 4.95333 15.838 4.66332 16.0028 4.41665C16.1676 4.16997 16.4019 3.97771 16.676 3.86418C16.9501 3.75065 17.2517 3.72094 17.5426 3.77882C17.8336 3.8367 18.1009 3.97956 18.3107 4.18934C18.5204 4.39912 18.6633 4.66639 18.7212 4.95737C18.7791 5.24834 18.7493 5.54994 18.6358 5.82403C18.5223 6.09811 18.33 6.33238 18.0834 6.4972C17.8367 6.66203 17.5467 6.75 17.25 6.75"></path></svg>