<svg xmlns="http://www.w3.org/2000/svg" viewBox="0 0 24 24" stroke-width="1.5px" height="48" width="48"><defs></defs><path d="M19.25,16.75V7.5a3.25,3.25,0,0,0-6.5,0v9.25" fill="none" stroke="#4284f7" stroke-linecap="round" stroke-linejoin="round"></path><path d="M9.25,16.75v-6l-7.857,3a1,1,0,0,0-.643.934V23.25h22.5v-6.5Z" fill="none" stroke="#4284f7" stroke-linecap="round" stroke-linejoin="round"></path><path d="M7.75,20.75a2,2,0,0,0-4,0v2.5h4Z" fill="none" stroke="#4284f7" stroke-linecap="round" stroke-linejoin="round"></path><line x1="15.25" y1="20" x2="16.25" y2="20" fill="none" stroke="#4284f7" stroke-linecap="round" stroke-linejoin="round"></line><line x1="11.25" y1="20" x2="12.25" y2="20" fill="none" stroke="#4284f7" stroke-linecap="round" stroke-linejoin="round"></line><line x1="19.25" y1="20" x2="20.25" y2="20" fill="none" stroke="#4284f7" stroke-linecap="round" stroke-linejoin="round"></line><path d="M16.25,4.25V2.75a2,2,0,0,0-2-2h-5a2,2,0,0,0-2,2v8.684" fill="none" stroke="#4284f7" stroke-linecap="round" stroke-linejoin="round"></path><path d="M19.25,9.75h3a1,1,0,0,1,1,1v6" fill="none" stroke="#4284f7" stroke-linecap="round" stroke-linejoin="round"></path></svg>