<svg xmlns="http://www.w3.org/2000/svg" viewBox="0 0 2500 2500"><path d="M 1228 1.538 C 1215.221 3.558, 1202.758 7.499, 1190.360 13.439 C 1166.287 24.972, 1148.269 40.355, 1133.913 61.629 C 1131.048 65.874, 1103.602 118.657, 1072.921 178.924 L 1017.138 288.500 922.319 289.071 C 817.070 289.706, 818.947 289.593, 798.144 296.551 C 774.844 304.345, 752.383 319.244, 737.321 336.897 C 710.432 368.411, 698.543 408.537, 704.473 447.757 C 708.310 473.125, 716.202 492.300, 730.881 511.920 C 736.331 519.203, 765.754 548.685, 861.586 642.883 L 909.671 690.149 866.230 789.825 C 816.627 903.641, 814.858 907.873, 811.534 920.658 C 796.092 980.074, 822.756 1043.170, 876.887 1075.301 C 914.076 1097.375, 965.104 1100.120, 1003.495 1082.112 C 1007.898 1080.046, 1065.160 1048.124, 1130.745 1011.173 L 1249.989 943.990 1368.745 1010.870 C 1434.060 1047.653, 1490.200 1079.104, 1493.500 1080.759 C 1501.158 1084.601, 1515.480 1089.399, 1526.164 1091.700 C 1537.754 1094.196, 1566.866 1094.194, 1579.270 1091.695 C 1622.567 1082.972, 1659.190 1055.130, 1678.177 1016.500 C 1688.079 996.354, 1692.432 977.115, 1692.319 954 C 1692.237 937.100, 1690.241 924.601, 1685.315 910.138 C 1683.885 905.937, 1662.245 855.475, 1637.228 798 C 1612.211 740.525, 1591.559 692.600, 1591.336 691.500 C 1591.021 689.945, 1609.888 670.906, 1676.064 606 C 1766.669 517.133, 1771.263 512.209, 1781.271 493.227 C 1783.825 488.383, 1787.510 479.654, 1789.458 473.831 C 1803.355 432.301, 1797.550 387.839, 1773.485 351.500 C 1754.099 322.226, 1722.988 300.963, 1687 292.393 C 1680.120 290.755, 1671.395 290.579, 1581.478 290.267 L 1483.456 289.926 1459.222 242.213 C 1383.795 93.703, 1371.018 68.863, 1366.765 62.455 C 1356.084 46.361, 1343.411 33.854, 1326.555 22.770 C 1303.102 7.348, 1277.698 -0.116, 1249.381 0.097 C 1242.296 0.150, 1232.675 0.799, 1228 1.538 M 530 156.962 C 490.138 162.077, 452.827 184.847, 431.372 217.153 C 426.931 223.840, 404.875 266.135, 369.028 336.709 L 313.556 445.918 216.028 446.256 L 118.500 446.594 108 449.199 C 82.280 455.581, 60.650 467.502, 42.064 485.537 C 22.214 504.798, 9.302 528.004, 2.858 556 C -0.279 569.624, -0.739 592.569, 1.824 607.500 C 5.698 630.070, 14.364 650.510, 27.545 668.169 C 32.130 674.312, 59.008 701.419, 119.758 761.169 C 166.916 807.551, 205.629 845.979, 205.788 846.565 C 205.946 847.150, 185.771 894.400, 160.954 951.565 C 136.138 1008.729, 114.089 1060.675, 111.956 1067 C 106.986 1081.742, 104.884 1094.997, 104.912 1111.424 C 104.992 1158.859, 128.077 1201.272, 168.200 1227.696 C 184.943 1238.722, 199.957 1244.595, 220.500 1248.153 C 230.610 1249.905, 235.177 1250.151, 249.500 1249.717 C 264.072 1249.276, 268.142 1248.776, 278 1246.218 C 284.325 1244.577, 293.550 1241.467, 298.500 1239.307 C 303.450 1237.147, 361.369 1204.974, 427.210 1167.813 L 546.919 1100.247 567.210 1111.640 C 592.376 1125.771, 599.011 1128.118, 615.500 1128.723 C 625.268 1129.081, 629.128 1128.778, 636.254 1127.090 C 652.373 1123.272, 665.021 1116.077, 675.718 1104.642 C 693.835 1085.276, 700.951 1059.033, 695.033 1033.422 C 690.721 1014.762, 679.775 998.274, 664.612 987.602 C 653.850 980.027, 580.912 939.682, 572.773 936.802 C 553.684 930.047, 530.321 931.256, 513.228 939.885 C 509.009 942.015, 288.497 1066.070, 280.753 1070.671 C 279.664 1071.318, 278.072 1075.045, 326.509 963.500 C 351.108 906.850, 372.278 857.555, 373.553 853.954 C 382.784 827.882, 376.986 797.942, 358.665 777.081 C 355.274 773.220, 314.298 732.585, 267.606 686.781 L 182.711 603.500 277.606 602.957 C 371.871 602.417, 372.553 602.398, 380.500 600.184 C 402.597 594.026, 417.881 582.255, 429.431 562.500 C 432.325 557.550, 462.254 499.186, 495.940 432.801 L 557.187 312.103 562.844 310.983 C 590.708 305.468, 614.846 282.684, 622.683 254.500 C 623.448 251.750, 624.344 244.541, 624.674 238.480 C 625.641 220.737, 622.020 206.412, 613.126 192.793 C 602.144 175.977, 586.495 164.280, 567.893 158.980 C 559.503 156.590, 540.702 155.589, 530 156.962 M 1940.831 156.951 C 1917.890 161.179, 1899.576 173.345, 1886.874 192.793 C 1877.980 206.412, 1874.359 220.737, 1875.326 238.480 C 1876.192 254.376, 1879.408 264.486, 1887.578 277 C 1898.627 293.924, 1916.819 306.417, 1937.313 311.156 L 1943.127 312.500 2006.345 437 C 2041.115 505.475, 2071.168 563.975, 2073.129 567 C 2083.766 583.408, 2099.369 594.574, 2119.500 600.184 C 2127.447 602.398, 2128.129 602.417, 2222.391 602.957 L 2317.282 603.500 2232.891 686.274 C 2186.476 731.800, 2145.519 772.401, 2141.875 776.498 C 2123.070 797.645, 2117.111 827.556, 2126.444 853.954 C 2127.717 857.555, 2148.886 906.850, 2173.486 963.500 C 2221.983 1075.179, 2220.333 1071.314, 2219.247 1070.675 C 2209.806 1065.119, 1991.055 942.047, 1986.834 939.916 C 1969.677 931.255, 1946.346 930.036, 1927.227 936.802 C 1918.862 939.762, 1845.573 980.367, 1835.500 987.622 C 1823.878 995.993, 1816.667 1004.403, 1810.916 1016.297 C 1802.404 1033.897, 1800.595 1056.908, 1806.338 1074.500 C 1813.164 1095.406, 1828.975 1113.220, 1848.609 1122.122 C 1859.829 1127.209, 1870.793 1129.226, 1884.500 1128.723 C 1900.989 1128.118, 1907.624 1125.771, 1932.790 1111.640 L 1953.081 1100.247 2072.790 1167.813 C 2138.631 1204.974, 2196.550 1237.147, 2201.500 1239.307 C 2206.450 1241.467, 2215.675 1244.575, 2222 1246.214 C 2231.725 1248.734, 2236.047 1249.276, 2250 1249.725 C 2282.014 1250.754, 2307.009 1244.022, 2331.800 1227.696 C 2359.688 1209.329, 2379.423 1183.331, 2388.882 1152.500 C 2393.283 1138.154, 2395.063 1126.373, 2395.088 1111.424 C 2395.116 1094.996, 2393.014 1081.741, 2388.043 1067 C 2385.910 1060.675, 2363.860 1008.735, 2339.042 951.577 C 2314.225 894.420, 2294.050 847.170, 2294.210 846.577 C 2294.369 845.985, 2333.084 807.551, 2380.243 761.168 C 2440.987 701.424, 2467.872 674.309, 2472.455 668.168 C 2485.636 650.510, 2494.302 630.070, 2498.176 607.500 C 2500.739 592.569, 2500.279 569.624, 2497.142 556 C 2490.656 527.821, 2477.601 504.460, 2457.624 485.286 C 2438.909 467.323, 2417.323 455.435, 2392.132 449.218 L 2381.500 446.594 2283.964 446.256 L 2186.429 445.918 2162.209 398.209 C 2088.856 253.713, 2074.019 224.864, 2069.765 218.455 C 2055.754 197.344, 2036.115 180.503, 2012.664 169.487 C 2001.340 164.168, 1996.359 162.475, 1983 159.402 C 1971.425 156.740, 1949.035 155.438, 1940.831 156.951 M 1192 290.144 C 1160.375 352.354, 1132.364 406.529, 1129.754 410.534 C 1119.007 427.019, 1102.702 438.499, 1082 444.159 C 1078.654 445.073, 1052.847 445.531, 981.395 445.944 L 885.290 446.500 973.238 533 C 1021.609 580.575, 1063.182 622.149, 1065.621 625.386 C 1070.985 632.506, 1076.222 643.205, 1078.647 652 C 1081.148 661.073, 1081.149 682.953, 1078.649 691.918 C 1077.664 695.448, 1055.780 746.748, 1030.018 805.918 C 1004.256 865.088, 983.340 913.664, 983.538 913.865 C 983.735 914.066, 1034.674 885.627, 1096.734 850.667 C 1158.795 815.708, 1212.931 785.518, 1217.036 783.579 C 1228.883 777.983, 1235.759 776.508, 1250 776.508 C 1264.231 776.508, 1271.118 777.984, 1282.929 783.563 C 1287.016 785.493, 1341.150 815.684, 1403.227 850.655 C 1465.305 885.625, 1516.263 914.070, 1516.467 913.866 C 1516.672 913.662, 1496.176 866.021, 1470.921 807.997 C 1445.667 749.974, 1424.129 699.986, 1423.059 696.912 C 1419.847 687.679, 1418.671 678.436, 1419.324 667.542 C 1420.314 651.031, 1425.237 637.532, 1434.860 624.940 C 1437.567 621.398, 1479.216 579.800, 1527.414 532.500 L 1615.047 446.500 1517.773 445.976 C 1442.172 445.569, 1419.609 445.164, 1416.500 444.160 C 1407.927 441.391, 1403.270 439.441, 1397.500 436.207 C 1383.971 428.622, 1375.709 420.498, 1367.794 407 C 1365.376 402.875, 1337.995 349.439, 1306.949 288.254 C 1275.902 227.068, 1250.275 177.013, 1250 177.021 C 1249.725 177.029, 1223.625 227.934, 1192 290.144 M 1226 1095.097 C 1180.854 1099.681, 1134.264 1119.198, 1100.500 1147.671 C 1077.288 1167.246, 411.110 1768.166, 407.370 1772.903 C 401.284 1780.612, 397.460 1787.611, 394.344 1796.744 C 390.755 1807.264, 389.833 1828.271, 392.478 1839.276 C 399.173 1867.128, 421.409 1889.860, 449.030 1897.089 C 455.636 1898.818, 460.141 1899.289, 469.500 1899.231 C 491.091 1899.096, 505.698 1893.047, 524.303 1876.538 C 529.905 1871.567, 684.116 1732.769, 866.994 1568.097 C 1049.872 1403.425, 1201.525 1267.183, 1204 1265.337 C 1210.808 1260.258, 1221.579 1255.232, 1230.500 1252.970 C 1240.381 1250.465, 1256.296 1250.250, 1267 1252.477 C 1275.751 1254.298, 1288.336 1260.071, 1295.624 1265.608 C 1298.442 1267.748, 1452.293 1405.850, 1637.515 1572.500 C 1822.737 1739.150, 1977.031 1877.846, 1980.391 1880.714 C 1988.927 1887.999, 1998.957 1893.447, 2009.500 1896.527 C 2021.797 1900.119, 2038.528 1900.345, 2050.970 1897.089 C 2076.821 1890.323, 2097.372 1870.717, 2106.184 1844.414 C 2108.236 1838.289, 2108.498 1835.618, 2108.485 1821 C 2108.471 1805.119, 2108.355 1804.175, 2105.384 1795.834 C 2101.680 1785.440, 2093.409 1772.680, 2085.323 1764.889 C 2079.588 1759.362, 1419.513 1165.677, 1404.973 1152.967 C 1374.792 1126.585, 1340.478 1108.801, 1303 1100.117 C 1281.201 1095.066, 1247.771 1092.886, 1226 1095.097 M 769.500 1822.046 C 751.955 1824.760, 739.377 1831.359, 725.967 1844.885 C 715.462 1855.480, 710.145 1864.229, 705.843 1878 L 703.500 1885.500 703.500 2086.500 C 703.500 2277.176, 703.595 2288.116, 705.352 2299.500 C 715.795 2367.149, 752.882 2425.105, 809.500 2462.250 C 839.768 2482.109, 877.426 2495.420, 913.500 2499.011 C 921.296 2499.788, 1021.340 2500.018, 1257 2499.803 L 1589.500 2499.500 1602 2497.151 C 1652.254 2487.710, 1694.652 2465.493, 1729.448 2430.368 C 1764.202 2395.285, 1786.892 2349.742, 1794.648 2299.500 C 1796.405 2288.116, 1796.500 2277.176, 1796.500 2086.500 L 1796.500 1885.500 1794.157 1878 C 1789.737 1863.851, 1784.603 1855.507, 1773.546 1844.500 C 1756.654 1827.685, 1742.229 1821.722, 1718.500 1821.745 C 1707.331 1821.756, 1704.232 1822.135, 1696.500 1824.437 C 1671.454 1831.892, 1652.125 1851.016, 1643.372 1877 C 1641.601 1882.257, 1641.495 1891.195, 1640.961 2079.500 C 1640.348 2295.511, 1640.779 2281.083, 1634.495 2296.012 C 1625.364 2317.707, 1606.261 2334.585, 1583.309 2341.237 L 1575.500 2343.500 1250 2343.500 L 924.500 2343.500 916.691 2341.237 C 902.827 2337.219, 891.036 2330.002, 880.856 2319.303 C 872.162 2310.166, 866.477 2300.336, 861.881 2286.500 C 860.802 2283.252, 860.444 2245.443, 859.977 2085.500 C 859.337 1866.318, 859.895 1882.734, 852.558 1867.285 C 844.749 1850.842, 833.741 1839.028, 818 1830.200 C 805.905 1823.417, 784.213 1819.770, 769.500 1822.046" stroke="none" fill="#bdb290" fill-rule="evenodd"></path></svg>