<svg xmlns="http://www.w3.org/2000/svg" viewBox="0 0 2500 2500"><path d="M 1374 1.103 C 1294.811 8.008, 1220.412 38.323, 1157.823 89.189 C 1143.148 101.115, 1116.814 127.434, 1105.159 141.823 C 1053.483 205.617, 1023.930 278.297, 1017.050 358.500 C 1015.728 373.914, 1015.728 407.086, 1017.050 422.500 C 1022.471 485.703, 1041.416 542.731, 1075.471 598.359 L 1080.282 606.218 801.241 885.258 L 522.201 1164.299 437.353 1079.024 C 390.687 1032.122, 349.805 991.834, 346.503 989.494 C 333.328 980.156, 321.660 976.118, 305.500 975.305 C 273.269 973.685, 245.010 990.011, 230.733 1018.500 C 221.304 1037.317, 220.477 1063.859, 228.715 1083.258 C 234.437 1096.732, 238.599 1101.265, 326.219 1189.468 L 411.339 1275.154 356.428 1330.072 L 301.517 1384.990 214.008 1297.620 C 121.985 1205.742, 121.505 1205.302, 108 1200.469 C 95.665 1196.054, 76.564 1194.750, 63.814 1197.452 C 48.498 1200.698, 36.767 1207.221, 25.001 1219.035 C 15.140 1228.936, 8.880 1239.138, 5.152 1251.382 C 3.050 1258.285, 2.670 1261.595, 2.611 1273.500 C 2.516 1292.592, 5.225 1302.228, 14.844 1317 C 18.907 1323.240, 244.174 1550.708, 253.068 1557.552 C 266.578 1567.948, 279.743 1572.783, 297.046 1573.703 C 313.320 1574.569, 327.619 1571.111, 341.779 1562.886 C 346.189 1560.325, 444.138 1462.976, 769.139 1138.146 L 1190.779 716.729 1203.139 724.199 C 1239.238 746.013, 1272.705 759.891, 1314.622 770.426 C 1341.968 777.299, 1368.349 780.459, 1398.500 780.473 C 1421.979 780.484, 1422.674 780.425, 1430.521 777.771 C 1453.506 769.996, 1473.039 750.458, 1480.756 727.521 C 1483.261 720.077, 1483.453 718.312, 1483.430 703 C 1483.407 687.918, 1483.181 685.832, 1480.800 678.722 C 1476.900 667.079, 1470.867 657.663, 1461.046 647.893 C 1451.239 638.136, 1441.989 632.428, 1429.500 628.426 C 1422.843 626.293, 1418.393 625.705, 1403 624.923 C 1392.825 624.406, 1380.900 623.501, 1376.500 622.913 C 1324.818 616.005, 1277.910 592.828, 1241.090 556.009 C 1204.407 519.325, 1181.709 473.543, 1174.402 421.500 C 1172.062 404.832, 1172.062 373.252, 1174.401 358.500 C 1182.927 304.739, 1205.165 260.741, 1242.560 223.648 C 1278.304 188.192, 1324.235 165.827, 1376.500 158.429 C 1391.536 156.301, 1421.061 156.303, 1436.299 158.433 C 1508.108 168.472, 1567.559 206.880, 1605.977 268.050 C 1609.932 274.348, 1614.994 281.875, 1617.227 284.778 C 1631.822 303.754, 1661.447 315.391, 1686.631 312.039 C 1726.330 306.756, 1755.039 274.123, 1755.087 234.227 C 1755.107 217.143, 1751.891 206.974, 1740.475 188.027 C 1680.252 88.075, 1576.055 19.564, 1460 3.609 C 1434.214 0.065, 1398.013 -0.990, 1374 1.103 M 1396.428 313.067 C 1378.805 315.171, 1364.218 322.513, 1351 335.931 C 1338.395 348.726, 1332.133 360.543, 1329.262 376.952 C 1322.330 416.573, 1346.548 455.144, 1385.179 466.013 C 1390.153 467.413, 1397.859 468.374, 1409.220 469.012 C 1440.236 470.752, 1463.562 477.541, 1487.500 491.793 C 1506.603 503.166, 1527.784 524.349, 1539.202 543.500 C 1551.064 563.395, 1558.228 583.798, 1560.971 605.500 C 1561.801 612.061, 1562.026 678.001, 1561.804 848.788 L 1561.500 1083.076 1551.674 1087.030 C 1530.564 1095.525, 1505.645 1110.753, 1488.500 1125.635 C 1483.550 1129.931, 1326.725 1270.971, 1140 1439.057 C 901.757 1653.518, 799.215 1746.432, 796.191 1750.584 C 771.188 1784.915, 778.229 1833.546, 811.898 1859.067 C 819.776 1865.038, 830.086 1870.196, 839 1872.627 C 848.238 1875.145, 871.012 1875.153, 880 1872.640 C 888.043 1870.391, 898.362 1865.284, 905.267 1860.136 C 908.145 1857.990, 1056.975 1724.387, 1236 1563.242 L 1561.500 1270.250 1562.018 1422.375 L 1562.536 1574.500 1564.739 1582.296 C 1572.895 1611.160, 1595.628 1632.938, 1624 1639.068 C 1632.549 1640.915, 1650.672 1640.700, 1659.230 1638.650 C 1685.637 1632.324, 1707.832 1610.974, 1716.210 1583.839 L 1718.475 1576.500 1718.988 1423.275 L 1719.500 1270.051 2044 1562.157 C 2222.475 1722.816, 2370.975 1856.231, 2374 1858.635 C 2381.119 1864.294, 2390.603 1869.225, 2400 1872.154 C 2406.398 1874.148, 2409.558 1874.486, 2421.500 1874.452 C 2437.611 1874.406, 2443.977 1873.052, 2456.500 1867.007 C 2475.191 1857.985, 2490.817 1839.536, 2497.162 1819 C 2500.190 1809.197, 2500.492 1787.241, 2497.738 1777 C 2495.394 1768.284, 2489.108 1755.793, 2483.512 1748.731 C 2480.998 1745.558, 2448.579 1715.634, 2411.470 1682.233 L 2344 1621.504 2344 1432.883 C 2344 1226.235, 2344.247 1235.150, 2338.102 1220.248 C 2329.388 1199.115, 2310.354 1181.755, 2288.500 1175.008 C 2273.957 1170.518, 2251.714 1171.351, 2236.854 1176.942 C 2220.527 1183.085, 2203.916 1198.580, 2195.520 1215.500 C 2187.074 1232.520, 2187.677 1222.332, 2187.054 1358.625 L 2186.500 1479.750 1990.500 1303.278 C 1882.700 1206.218, 1790.450 1123.631, 1785.500 1119.750 C 1768.305 1106.271, 1747.228 1094.016, 1728.275 1086.479 L 1719.051 1082.810 1718.720 840.655 C 1718.357 574.941, 1718.773 593.531, 1712.501 562.452 C 1689.097 446.469, 1599.829 352.253, 1485.068 322.411 C 1457.293 315.188, 1415.527 310.786, 1396.428 313.067 M 1154.552 1798.652 C 1128.858 1804.159, 1106.448 1824.456, 1097.308 1850.500 L 1094.500 1858.500 1094.192 2069 C 1093.879 2283.789, 1093.962 2289.686, 1097.601 2308.820 C 1114.697 2398.718, 1182.495 2470.762, 1270.883 2492.954 C 1299.063 2500.030, 1266.912 2499.423, 1633 2499.789 C 1871.752 2500.027, 1965.943 2499.807, 1975 2498.991 C 2055.928 2491.695, 2127.780 2442.009, 2163.485 2368.652 C 2171.948 2351.265, 2175.788 2340.838, 2180.481 2322.500 C 2187.910 2293.476, 2187.500 2307.976, 2187.500 2074 C 2187.500 1837.604, 2188.195 1857.926, 2179.513 1840.519 C 2170.671 1822.793, 2153.308 1807.127, 2135.843 1801.118 C 2121.701 1796.252, 2100.125 1795.761, 2086.500 1799.994 C 2060.285 1808.139, 2040.668 1828.981, 2032.843 1857 C 2031.861 1860.517, 2031.461 1907.281, 2031.015 2071 C 2030.392 2299.238, 2030.854 2282.035, 2024.979 2296 C 2017.389 2314.046, 1998.821 2332.005, 1980.952 2338.586 C 1966.969 2343.735, 1989.756 2343.382, 1647.500 2343.744 C 1435.657 2343.969, 1327.299 2343.740, 1320.849 2343.055 C 1302.386 2341.094, 1288.734 2335.048, 1275.817 2323.112 C 1264.566 2312.715, 1257.195 2301.105, 1252.790 2286.839 L 1250.524 2279.500 1250.003 2070 C 1249.512 1872.964, 1249.376 1860.143, 1247.702 1854.500 C 1239.229 1825.928, 1216.404 1804.432, 1188.186 1798.452 C 1179.642 1796.641, 1163.487 1796.737, 1154.552 1798.652" stroke="none" fill="#bdb290" fill-rule="evenodd"></path></svg>