<svg xmlns="http://www.w3.org/2000/svg" viewBox="0 0 2500 2500"><path d="M 1623.500 1.086 C 1565.198 7.065, 1509.487 31.120, 1465.500 69.308 C 1454.329 79.007, 1449.271 84.396, 1393.063 146.500 C 1365.685 176.750, 1339.699 204.918, 1335.315 209.095 C 1308.270 234.870, 1269.966 246.947, 1232.500 241.513 C 1213.192 238.712, 1194.446 231.480, 1178.577 220.711 C 1168.566 213.916, 1158.552 203.538, 1105.037 144.500 C 1076.620 113.150, 1048.674 83.072, 1042.935 77.660 C 1003.027 40.027, 951.697 14.392, 897.500 5.027 C 863.827 -0.792, 825.665 -0.099, 791.672 6.949 C 722.902 21.207, 658.971 63.416, 618.736 121.124 C 587.953 165.276, 571.158 213.961, 568.044 268.065 C 567.230 282.209, 567.656 295.999, 571.102 367 C 573.310 412.490, 574.836 452.865, 574.505 457 C 571.927 489.149, 559.471 516.515, 537.413 538.486 C 523.098 552.746, 507.993 562.049, 488.671 568.508 C 475.185 573.017, 463.191 575, 449.410 575 C 439.766 575, 319.589 569.226, 294 567.533 C 275.668 566.320, 241.008 569.752, 218.428 575.016 C 137.375 593.912, 67.456 649.470, 30.531 724.320 C 16.296 753.175, 7.933 780.222, 3.420 812 C 1.329 826.729, 0.515 858.947, 1.866 873.563 C 7.788 937.663, 34.341 996.999, 77.660 1042.934 C 83.072 1048.673, 114.818 1078.036, 148.207 1108.185 C 215.461 1168.912, 219.573 1173.214, 229.753 1193.500 C 238.706 1211.342, 242.994 1229.638, 242.994 1250 C 242.994 1270.362, 238.706 1288.658, 229.753 1306.500 C 219.624 1326.684, 215.241 1331.268, 148 1392.002 C 86.540 1447.513, 73.201 1460.422, 60.688 1476.500 C -6.875 1563.304, -18.582 1678.132, 30.086 1776.645 C 50.738 1818.448, 83.542 1856.286, 122.500 1883.240 C 168.243 1914.889, 225.344 1932.929, 280 1932.998 C 287.425 1933.007, 329.275 1931.165, 373 1928.903 C 449.859 1924.929, 452.899 1924.843, 464.500 1926.324 C 493.657 1930.045, 517.429 1941.584, 538.002 1962 C 562.105 1985.920, 575.003 2016.923, 574.998 2050.926 C 574.997 2057.292, 574.107 2079.375, 573.021 2100 C 567.120 2211.990, 567.006 2215.007, 568.029 2232.044 C 571.298 2286.456, 587.979 2334.761, 618.736 2378.876 C 658.971 2436.584, 722.902 2478.793, 791.672 2493.051 C 825.840 2500.135, 863.749 2500.794, 897.922 2494.897 C 951.635 2485.630, 1003.160 2459.849, 1042.934 2422.340 C 1048.673 2416.928, 1078.022 2385.193, 1108.154 2351.817 C 1168.873 2284.563, 1173.186 2280.441, 1193.500 2270.247 C 1211.342 2261.294, 1229.638 2257.006, 1250 2257.006 C 1270.362 2257.006, 1288.658 2261.294, 1306.500 2270.247 C 1326.786 2280.427, 1331.088 2284.539, 1391.815 2351.793 C 1421.964 2385.182, 1451.327 2416.928, 1457.066 2422.340 C 1492.014 2455.298, 1534.834 2478.838, 1581 2490.474 C 1606.031 2496.783, 1623.927 2498.957, 1651.030 2498.983 C 1694.514 2499.023, 1735.222 2489.637, 1774.383 2470.539 C 1844.665 2436.264, 1898.452 2372.896, 1920.834 2298 C 1927.471 2275.789, 1930.528 2258.150, 1932.071 2233.156 C 1933.150 2215.683, 1932.956 2209.459, 1929.015 2135 C 1926.420 2085.977, 1925.006 2051.283, 1925.327 2044.500 C 1926.796 2013.413, 1939.674 1984.581, 1962.061 1962.262 C 1983.554 1940.833, 2011.099 1928.178, 2042 1925.537 C 2046.497 1925.152, 2081.135 1926.557, 2128.500 1929.045 C 2215.838 1933.633, 2234.650 1933.786, 2258.500 1930.106 C 2308.950 1922.321, 2354.078 1902.615, 2394.174 1870.861 C 2407.016 1860.691, 2427.135 1840.608, 2437.288 1827.823 C 2471.023 1785.342, 2492.765 1732.701, 2497.929 1681 C 2498.505 1675.225, 2499.254 1668.700, 2499.592 1666.500 C 2500.695 1659.324, 2501.163 1638.781, 2500.211 1639.370 C 2499.698 1639.687, 2499.019 1634.992, 2498.655 1628.616 C 2495.713 1577.113, 2473.697 1520.677, 2439.312 1476.500 C 2426.790 1460.411, 2413.448 1447.503, 2351.793 1391.823 C 2284.541 1331.089, 2280.426 1326.783, 2270.247 1306.500 C 2261.294 1288.658, 2257.006 1270.362, 2257.006 1250 C 2257.006 1229.638, 2261.294 1211.342, 2270.247 1193.500 C 2280.440 1173.189, 2284.565 1168.872, 2351.817 1108.147 C 2385.193 1078.011, 2416.957 1048.662, 2422.404 1042.927 C 2464.513 998.593, 2490.478 942.568, 2498.144 879.500 C 2499.957 864.579, 2499.677 830.018, 2497.622 815.182 C 2492.787 780.269, 2484.558 752.997, 2469.914 723.355 C 2449.231 681.491, 2416.745 644.030, 2377.500 616.792 C 2331.809 585.080, 2274.637 567.048, 2219.659 567.010 C 2212.046 567.004, 2170.871 568.825, 2128.159 571.056 C 2060.317 574.599, 2049.078 574.970, 2039.253 573.985 C 2009.328 570.985, 1983.703 558.837, 1962.433 537.567 C 1941.166 516.300, 1929.024 490.691, 1926.011 460.747 C 1925.021 450.908, 1925.387 439.771, 1928.940 371.762 C 1933.382 286.717, 1933.702 271.930, 1931.523 252.500 C 1924.185 187.086, 1897.153 130.253, 1851.200 83.629 C 1805.636 37.401, 1746.705 8.975, 1681 1.532 C 1666.658 -0.093, 1637.225 -0.321, 1623.500 1.086 M 1638.888 157.009 C 1611.863 159.597, 1585.427 171.290, 1566.630 188.968 C 1562.810 192.561, 1535.306 222.500, 1505.509 255.500 C 1475.713 288.500, 1447.957 318.651, 1443.830 322.503 C 1400.380 363.053, 1347.146 388.466, 1287.733 397.023 C 1268.981 399.724, 1231.019 399.724, 1212.267 397.023 C 1152.813 388.461, 1099.600 363.057, 1056.183 322.510 C 1052.062 318.662, 1023.379 287.611, 992.442 253.507 C 961.505 219.403, 933.821 189.495, 930.922 187.044 C 905.700 165.724, 870.627 154.749, 838.180 158.024 C 785.468 163.346, 743.334 198.406, 728.616 249.195 C 723.204 267.871, 723.178 270.137, 727.324 358.927 C 729.393 403.242, 731.067 445.640, 731.043 453.144 C 730.848 514.631, 708.944 576.022, 669.369 626 C 660.244 637.523, 636.621 661.031, 625 670.152 C 578.180 706.901, 526.464 726.908, 467.308 731.156 C 452.372 732.228, 444.483 731.979, 365.645 727.949 C 288.780 724.020, 279.063 723.703, 269.142 724.806 C 227.571 729.429, 189.979 755.226, 171.635 791.719 C 153.550 827.696, 152.789 866.899, 169.463 903.488 C 178.837 924.058, 184.127 929.712, 247 986.365 C 320.902 1052.955, 330.050 1062.004, 346.213 1084.500 C 373.866 1122.990, 390.982 1166.060, 397.675 1214 C 400.096 1231.343, 400.082 1269.756, 397.648 1286.500 C 390.618 1334.858, 373.742 1377.184, 346.213 1415.500 C 330.041 1438.009, 320.793 1447.160, 247.393 1513.277 C 207.793 1548.949, 189.315 1566.271, 184.585 1572.159 C 166.438 1594.744, 157.005 1621.748, 157.001 1651.119 C 156.997 1684.361, 169.969 1715.830, 193.391 1739.398 C 213.818 1759.954, 241.165 1772.993, 270.072 1775.959 C 278.532 1776.828, 292.931 1776.339, 357.352 1773 C 399.783 1770.801, 442.153 1769.001, 451.506 1769.001 C 514.021 1768.998, 574.813 1790.283, 624.911 1829.715 C 638.644 1840.524, 664.059 1866.468, 674.172 1880 C 704.589 1920.702, 723.161 1965.849, 729.443 2014.363 C 732.562 2038.448, 732.465 2046.158, 727.926 2134.834 C 724.014 2211.272, 723.701 2220.913, 724.805 2230.848 C 729.429 2272.428, 755.223 2310.020, 791.719 2328.365 C 822.724 2343.951, 855.540 2346.721, 887.881 2336.483 C 904.474 2331.231, 918.028 2323.800, 930.881 2312.908 C 934.391 2309.933, 961.430 2280.725, 990.968 2248 C 1048.246 2184.543, 1061.456 2171.026, 1079.247 2157.677 C 1119.334 2127.599, 1162.374 2109.864, 1213.500 2102.358 C 1230.304 2099.891, 1269.696 2099.891, 1286.500 2102.358 C 1335.392 2109.536, 1376.974 2126.114, 1415.500 2153.789 C 1437.992 2169.945, 1447.146 2179.195, 1513.190 2252.500 C 1571.667 2317.407, 1576.510 2321.866, 1599.459 2331.931 C 1622.947 2342.232, 1650.609 2345.370, 1674.622 2340.459 C 1719.772 2331.224, 1755.397 2299.745, 1769.989 2256.192 C 1776.626 2236.384, 1777.089 2226.240, 1774.020 2168 C 1768.068 2055.023, 1767.950 2051.911, 1768.984 2034.909 C 1777.378 1896.952, 1882.624 1785.764, 2019.264 1770.498 C 2039.332 1768.256, 2058.601 1768.649, 2142.500 1773.011 C 2226.907 1777.399, 2230.352 1777.382, 2249.648 1772.488 C 2260.982 1769.612, 2278.803 1761.311, 2289.750 1753.807 C 2305.351 1743.113, 2321.127 1724.809, 2329.944 1707.171 C 2331.684 1703.691, 2334.638 1696.266, 2336.508 1690.671 C 2350.139 1649.898, 2342.248 1605.554, 2315.419 1572.164 C 2310.686 1566.273, 2291.091 1547.913, 2248.611 1509.569 C 2184.486 1451.686, 2171.015 1438.529, 2157.677 1420.753 C 2127.599 1380.666, 2109.864 1337.626, 2102.358 1286.500 C 2099.891 1269.696, 2099.891 1230.304, 2102.358 1213.500 C 2109.873 1162.311, 2127.562 1119.383, 2157.677 1079.247 C 2171.034 1061.445, 2184.533 1048.258, 2248.500 990.519 C 2315.196 930.316, 2319.755 925.546, 2329.803 905.440 C 2338.275 888.486, 2341.952 873.526, 2342.691 853 C 2343.084 842.078, 2342.806 836.156, 2341.564 829 C 2339.653 817.994, 2334.490 801.922, 2329.944 792.829 C 2321.694 776.326, 2307.315 759.172, 2292.500 748.161 C 2282.162 740.477, 2261.419 730.458, 2249.780 727.528 C 2230.377 722.642, 2227.246 722.627, 2142.424 727.004 C 2099.832 729.202, 2058.091 731, 2049.666 731 C 1905.877 731, 1784.283 620.350, 1770.079 476.576 C 1768.301 458.577, 1768.805 438.057, 1773.015 356.960 C 1777.418 272.146, 1777.401 268.509, 1772.491 250.165 C 1769.288 238.196, 1765.027 228.028, 1759.039 218.065 C 1738.237 183.453, 1703.885 161.453, 1663.789 157.063 C 1653.256 155.910, 1650.426 155.904, 1638.888 157.009 M 1239 703.581 C 1226.115 705.876, 1215.672 709.978, 1206.642 716.290 C 1199.697 721.145, 734.225 1108.654, 726.660 1115.878 C 720.980 1121.303, 714.295 1130.397, 710.648 1137.661 C 701.783 1155.316, 700.730 1181.541, 708.129 1200.333 C 716.725 1222.163, 737.036 1240.794, 759 1246.997 C 769.341 1249.917, 787.135 1250.707, 796.678 1248.670 C 812.757 1245.237, 821.055 1240.513, 842.960 1222.320 L 858.930 1209.056 859.297 1394.778 C 859.692 1594.061, 859.394 1582.129, 864.475 1602 C 878.293 1656.036, 921.859 1699.513, 976.500 1713.797 C 995.100 1718.659, 985.827 1718.500, 1250 1718.500 C 1514.173 1718.500, 1504.900 1718.659, 1523.500 1713.797 C 1578.113 1699.521, 1621.714 1656.008, 1635.525 1602 C 1640.606 1582.129, 1640.308 1594.062, 1640.703 1394.767 L 1641.070 1209.034 1655.844 1221.337 C 1677.190 1239.114, 1684.365 1243.583, 1698 1247.590 C 1708.068 1250.549, 1730.658 1250.178, 1741.513 1246.875 C 1766.565 1239.253, 1787.625 1217.509, 1794.659 1192 C 1797.388 1182.106, 1797.154 1161.042, 1794.201 1150.691 C 1790.416 1137.420, 1783.082 1125.183, 1773.340 1115.878 C 1765.772 1108.650, 1300.302 721.144, 1293.354 716.287 C 1281.129 707.741, 1269.475 704.052, 1253 703.513 C 1246.675 703.306, 1240.375 703.336, 1239 703.581 M 1132.250 981.161 L 1016 1078.170 1016 1320.085 L 1016 1562 1250 1562 L 1484 1562 1484 1320.085 L 1484 1078.170 1367.504 981.085 C 1303.432 927.688, 1250.444 884.034, 1249.754 884.076 C 1249.064 884.118, 1196.188 927.806, 1132.250 981.161 M 0.382 1651.500 C 0.384 1658.100, 0.546 1660.670, 0.741 1657.211 C 0.937 1653.752, 0.936 1648.352, 0.738 1645.211 C 0.540 1642.070, 0.380 1644.900, 0.382 1651.500" stroke="none" fill="#bdb290" fill-rule="evenodd"></path></svg>