<svg xmlns="http://www.w3.org/2000/svg" viewBox="0 0 2500 2500"><path d="M 1203.500 131.057 C 967.197 141.813, 741.309 227.585, 560 375.400 C 504.888 420.331, 443.582 481.650, 400.934 534.500 C 279.334 685.186, 200.631 860.952, 170.108 1050 C 160.935 1106.814, 157.296 1152.651, 156.312 1223.801 L 155.685 1269.101 141.093 1254.709 C 122.371 1236.243, 115.865 1231.835, 99.975 1226.848 C 93.571 1224.838, 90.422 1224.502, 78 1224.502 C 65.599 1224.502, 62.414 1224.841, 56 1226.843 C 34.963 1233.409, 17.771 1247.962, 8.015 1267.464 C 1.901 1279.685, 0.514 1286.167, 0.518 1302.500 C 0.521 1314.366, 0.877 1317.639, 2.858 1323.975 C 5.440 1332.236, 8.718 1339.172, 13.267 1346 C 17.873 1352.914, 182.315 1517.336, 190.309 1523.020 C 202.260 1531.519, 219.585 1537, 234.500 1537 C 248.833 1537, 265.410 1531.894, 277.624 1523.718 C 286.980 1517.455, 449.819 1354.375, 456.079 1345 C 469.729 1324.554, 472.637 1297.416, 463.700 1273.877 C 455.446 1252.137, 435.042 1233.265, 413 1226.984 C 402.256 1223.922, 385.792 1223.253, 375.001 1225.440 C 357.333 1229.020, 347.365 1235.090, 327.115 1254.600 L 313 1268.199 313 1230.210 C 313 1191.355, 313.873 1169.139, 316.544 1140 C 329.741 996.070, 374.226 860.926, 449.047 737.462 C 579.802 521.701, 793.275 367.519, 1040 310.643 C 1177.022 279.056, 1322.652 279.059, 1460 310.651 C 1590.315 340.626, 1708.193 395.941, 1818.545 478.903 C 1834.359 490.791, 1845.320 496.882, 1856 499.713 C 1865.349 502.192, 1884.917 501.930, 1895.136 499.189 C 1920.459 492.396, 1941.054 472.841, 1949.574 447.500 C 1953.193 436.737, 1954.023 420.169, 1951.555 407.942 C 1948.512 392.867, 1941.607 379.600, 1931.520 369.448 C 1925.941 363.835, 1898.525 342.996, 1875.500 326.868 C 1730.653 225.414, 1559.288 159.830, 1383.500 138.571 C 1355.829 135.225, 1345.197 134.213, 1319.206 132.453 C 1291.956 130.606, 1229.854 129.857, 1203.500 131.057 M 1238.500 677.647 C 1226.655 679.553, 1215.890 683.825, 1206.642 690.290 C 1199.703 695.141, 734.234 1082.648, 726.660 1089.879 C 716.919 1099.180, 709.585 1111.419, 705.799 1124.691 C 702.837 1135.074, 702.611 1156.127, 705.355 1166 C 711.221 1187.102, 727.891 1207.138, 747.296 1216.412 C 759.053 1222.030, 765.672 1223.392, 781.500 1223.449 C 793.491 1223.493, 796.572 1223.163, 802.975 1221.153 C 811.407 1218.505, 818.391 1215.175, 825 1210.650 C 827.475 1208.956, 923.887 1128.916, 1039.249 1032.785 C 1154.611 936.653, 1249.449 858, 1250 858 C 1250.551 858, 1345.389 936.653, 1460.751 1032.785 C 1576.113 1128.916, 1672.525 1208.956, 1675 1210.650 C 1681.609 1215.175, 1688.593 1218.505, 1697.025 1221.153 C 1703.428 1223.163, 1706.509 1223.493, 1718.500 1223.449 C 1739.109 1223.375, 1751.935 1219.151, 1766.752 1207.557 C 1787.283 1191.492, 1798.221 1167.366, 1796.678 1141.542 C 1795.445 1120.909, 1787.562 1103.459, 1773.340 1089.879 C 1765.766 1082.648, 1300.297 695.141, 1293.358 690.290 C 1286.261 685.329, 1278.745 681.810, 1270.353 679.518 C 1264.517 677.924, 1244.194 676.730, 1238.500 677.647 M 2254.500 911.646 C 2242.323 913.607, 2230.136 918.560, 2220.654 925.402 C 2211.771 931.811, 2048.241 1096.087, 2043.606 1103.257 C 2034.724 1116.995, 2031.662 1127.769, 2031.600 1145.500 C 2031.549 1160.072, 2033.418 1168.748, 2039.137 1180.475 C 2045.976 1194.502, 2060.923 1209.296, 2075.442 1216.409 C 2087.128 1222.134, 2093.562 1223.434, 2110 1223.389 C 2122.987 1223.354, 2125.335 1223.072, 2132.500 1220.680 C 2147.360 1215.721, 2153.981 1211.190, 2171.250 1194.163 L 2187 1178.633 2187 1217.206 C 2187 1256.539, 2186.153 1278.259, 2183.441 1308.500 C 2166.858 1493.380, 2094.694 1670.957, 1977.608 1815 C 1939.127 1862.341, 1888.886 1912.585, 1841 1951.619 C 1721.886 2048.713, 1576.810 2116.204, 1425.500 2144.914 C 1341.861 2160.783, 1251.783 2165.324, 1167.500 2157.920 C 991.780 2142.481, 823.770 2077.370, 681.500 1969.572 C 658.263 1951.965, 646.119 1947, 626.298 1947 C 614.341 1947, 603.912 1948.899, 594.226 1952.841 C 572.270 1961.776, 553.255 1984.856, 548.404 2008.457 C 546.434 2018.039, 546.918 2036.288, 549.387 2045.500 C 552 2055.254, 559.350 2068.808, 566.053 2076.234 C 575.071 2086.226, 616.425 2116.962, 652.500 2140.486 C 799.717 2236.483, 967.800 2295.469, 1144 2312.972 C 1203.894 2318.922, 1278.721 2319.474, 1339.500 2314.415 C 1652.211 2288.386, 1938.201 2130.167, 2125.631 1879.500 C 2231.318 1738.154, 2301.399 1573.379, 2329.567 1400 C 2339.068 1341.519, 2342.689 1296.454, 2343.687 1224.244 L 2344.314 1178.987 2359.925 1194.244 C 2375.697 1209.657, 2381.721 1214.100, 2393.042 1218.673 C 2413.250 1226.835, 2440.448 1225.233, 2459.013 1214.787 C 2477.343 1204.472, 2490.952 1187.852, 2496.903 1168.513 C 2499.023 1161.626, 2499.378 1158.463, 2499.433 1146 C 2499.489 1133.463, 2499.180 1130.488, 2497.152 1124.025 C 2494.238 1114.741, 2491.007 1108.239, 2485.462 1100.500 C 2483.097 1097.200, 2442.763 1056.233, 2395.831 1009.463 C 2313.840 927.754, 2310.187 924.263, 2302.500 920.281 C 2291.155 914.404, 2281.698 911.970, 2268.500 911.530 C 2262.450 911.328, 2256.150 911.381, 2254.500 911.646 M 923.763 1302.965 C 913.061 1304.920, 900.433 1310.310, 891.933 1316.549 C 882.977 1323.123, 872.720 1335.104, 867.791 1344.747 C 858.968 1362.009, 859.500 1352.080, 859.500 1499.500 C 859.500 1603.673, 859.766 1630.990, 860.838 1637 C 866.002 1665.939, 875.243 1687.967, 890.832 1708.500 C 917.605 1743.762, 955.975 1765.326, 1000.245 1769.990 C 1012.787 1771.312, 1487.213 1771.312, 1499.755 1769.990 C 1566.061 1763.005, 1620.062 1716.385, 1635.847 1652.500 C 1640.617 1633.193, 1640.500 1637.043, 1640.500 1499.500 C 1640.500 1352.055, 1641.035 1362.014, 1632.192 1344.714 C 1624.117 1328.915, 1607.822 1313.917, 1592 1307.721 C 1580.323 1303.148, 1577.035 1302.574, 1562.500 1302.574 C 1547.965 1302.574, 1544.677 1303.148, 1533 1307.721 C 1511.966 1315.958, 1493.127 1337.108, 1486.749 1359.645 L 1484.525 1367.500 1484.233 1490.750 L 1483.940 1614 1250.004 1614 L 1016.067 1614 1015.767 1490.750 L 1015.467 1367.500 1013.247 1359.645 C 1009.951 1347.978, 1003.662 1336.921, 995.173 1327.870 C 983.712 1315.649, 974.401 1309.686, 959.500 1305.025 C 951.661 1302.573, 932.085 1301.445, 923.763 1302.965" stroke="none" fill="#bdb290" fill-rule="evenodd"></path></svg>