<svg xmlns="http://www.w3.org/2000/svg" viewBox="0 0 2500 2500"><path d="M 803.500 1.112 C 565.560 17.519, 348.918 128.277, 197.359 311 C 82.568 449.394, 14.779 619.123, 1.854 800.500 C 0.131 824.667, 0.113 886.695, 1.823 903.500 C 9.874 982.629, 31.199 1069.204, 69.686 1179 C 153.627 1418.476, 322.609 1757.956, 545.798 2135.500 C 588.108 2207.070, 649.221 2306.722, 656.114 2315.382 C 662.422 2323.307, 671.635 2330.578, 681.500 2335.417 C 713.887 2351.302, 749.787 2344.509, 774.500 2317.819 C 782.052 2309.664, 786.458 2302.282, 790.055 2291.761 C 796.958 2271.568, 796.119 2251.902, 787.570 2233.500 C 785.782 2229.650, 773.066 2208.275, 759.314 2186 C 596.847 1922.852, 439.340 1634.411, 332.292 1404 C 230.088 1184.016, 170.463 1009.967, 158.435 896.500 C 155.382 867.692, 156.443 820.557, 161.076 779.185 C 176.121 644.858, 230.722 516.204, 316.910 412 C 431.164 273.863, 589.663 185.949, 767.500 162.072 C 800.985 157.577, 816.984 156.594, 857.500 156.546 C 898.965 156.497, 914.827 157.387, 948 161.621 C 1099.698 180.984, 1239.725 248.490, 1349.527 355.194 C 1429.442 432.855, 1491.404 531.139, 1524.980 633.500 C 1533.520 659.536, 1539.014 670.051, 1549.441 680.313 C 1564.345 694.980, 1583.799 703.007, 1604.410 702.993 C 1640.417 702.968, 1669.085 681.397, 1680.155 646 C 1682.159 639.589, 1682.494 636.467, 1682.457 624.500 L 1682.413 610.500 1675.596 590 C 1658.021 537.153, 1636.671 488.188, 1611.383 442.732 C 1548.851 330.329, 1464.333 235.359, 1360.500 160.823 C 1229.218 66.583, 1076.030 11.818, 913.595 1.054 C 895.324 -0.157, 821.334 -0.118, 803.500 1.112 M 825.500 391.633 C 744.573 397.943, 668.558 423.758, 602 467.533 C 500.185 534.496, 427.247 640.207, 401.582 758 C 393.206 796.439, 391.508 813.695, 391.545 860 C 391.577 900.521, 392.529 912.843, 397.959 943 C 428.392 1112.032, 550.900 1252.175, 714.772 1305.418 C 814.282 1337.749, 925.419 1335.361, 1023 1298.794 C 1073.540 1279.855, 1118.295 1253.720, 1161.500 1217.916 C 1174.385 1207.239, 1207.239 1174.385, 1217.916 1161.500 C 1303.387 1058.362, 1340.203 933.602, 1324.433 800.537 C 1309.850 677.484, 1242.233 560.785, 1141.725 485.200 C 1082.338 440.540, 1013.177 410.236, 942.500 397.907 C 913.298 392.814, 900.798 391.781, 865 391.507 C 846.025 391.362, 828.250 391.419, 825.500 391.633 M 838 547.593 C 774.780 553.018, 720.234 573.495, 671.024 610.275 C 652.555 624.079, 624.076 652.560, 610.267 671.035 C 576.435 716.300, 556.206 766.688, 548.857 824 C 546.861 839.573, 547.138 882.140, 549.340 898 C 557.647 957.845, 579.413 1009.197, 615.883 1055 C 625.793 1067.447, 650.866 1092.539, 663.596 1102.750 C 709.467 1139.546, 763.869 1162.359, 823.086 1169.631 C 840.974 1171.828, 877.718 1171.826, 895.606 1169.626 C 966.829 1160.868, 1029.822 1130.275, 1080.048 1080.048 C 1130.275 1029.822, 1160.868 966.829, 1169.626 895.606 C 1171.826 877.718, 1171.828 840.974, 1169.631 823.086 C 1162.359 763.869, 1139.546 709.467, 1102.750 663.596 C 1092.539 650.866, 1067.447 625.793, 1055 615.883 C 1009.496 579.651, 957.480 557.517, 899 549.503 C 888.074 548.005, 847.863 546.746, 838 547.593 M 1631 859.662 C 1579.012 863.477, 1534.705 890.181, 1507.149 934.306 C 1500.233 945.380, 1492.777 962.940, 1489.445 976 C 1484.368 995.901, 1484.669 980.375, 1484.296 1241.210 L 1483.949 1483.920 1346.225 1484.283 C 1220.818 1484.614, 1207.740 1484.800, 1200 1486.367 C 1158.983 1494.669, 1125.056 1520.768, 1106.235 1558.500 C 1103.670 1563.641, 1098.348 1579.196, 1096.209 1587.803 C 1094.676 1593.971, 1094.503 1624.080, 1094.022 1969 L 1093.500 2343.500 1046.500 2344.031 C 1000.870 2344.547, 999.296 2344.630, 992.500 2346.866 C 966.937 2355.277, 946.435 2376.700, 939.867 2401.864 C 937.338 2411.550, 937.111 2429.348, 939.383 2439.734 C 945.362 2467.064, 968.958 2490.968, 997 2498.101 C 1001.687 2499.293, 1108.383 2499.500, 1719 2499.500 L 2435.500 2499.500 2443.541 2497.197 C 2468.284 2490.110, 2489.026 2469.657, 2496.969 2444.513 L 2499.500 2436.500 2499.803 1723 C 2500.030 1187.822, 2499.816 1006.751, 2498.948 998.500 C 2492.283 935.151, 2446.942 882.162, 2384.545 864.798 C 2364.356 859.181, 2392.787 859.574, 1998 859.448 C 1798.625 859.384, 1633.475 859.481, 1631 859.662 M 1641 1249.946 L 1641 1483.893 1739.750 1484.285 C 1826.438 1484.629, 1839.495 1484.878, 1846.649 1486.324 C 1899.055 1496.915, 1937.813 1534.809, 1950.641 1588 C 1952.365 1595.147, 1952.475 1613.125, 1952.975 1969.500 L 1953.500 2343.500 2148.500 2343.500 L 2343.500 2343.500 2343.751 1992.250 L 2344.003 1641 2264.725 1641 C 2215.230 1641, 2182.295 1640.605, 2177.055 1639.948 C 2159.801 1637.784, 2145.398 1630.569, 2132.414 1617.586 C 2119.108 1604.280, 2112.072 1589.931, 2109.925 1571.724 C 2107.038 1547.244, 2114.810 1525.018, 2132.414 1507.414 C 2145.398 1494.431, 2159.801 1487.216, 2177.055 1485.052 C 2182.295 1484.395, 2215.232 1484, 2264.730 1484 L 2344.012 1484 2343.756 1406.250 L 2343.500 1328.500 2257.500 1327.990 L 2171.500 1327.480 2164.500 1325.156 C 2138.884 1316.648, 2118.637 1295.508, 2111.803 1270.136 C 2108.923 1259.441, 2108.923 1240.559, 2111.803 1229.864 C 2118.637 1204.493, 2138.873 1183.363, 2164.500 1174.842 L 2171.500 1172.514 2257.750 1172.220 L 2344 1171.927 2344 1093.963 L 2344 1016 1992.500 1016 L 1641 1016 1641 1249.946 M 1250 1992.500 L 1250 2344 1523.500 2344 L 1797 2344 1797 2148.526 L 1797 1953.052 1671.750 1952.776 L 1546.500 1952.500 1539.500 1950.165 C 1513.847 1941.610, 1493.636 1920.504, 1486.803 1895.136 C 1483.923 1884.441, 1483.923 1865.559, 1486.803 1854.864 C 1493.636 1829.496, 1513.847 1808.390, 1539.500 1799.835 L 1546.500 1797.500 1671.750 1797.224 L 1797 1796.948 1797 1718.974 L 1797 1641 1523.500 1641 L 1250 1641 1250 1992.500" stroke="none" fill="#bdb290" fill-rule="evenodd"></path></svg>