<svg xmlns="http://www.w3.org/2000/svg" viewBox="0 0 2500 2500"><path d="M 990.500 1.172 C 975.941 2.644, 957.559 6.735, 941.500 12.077 C 865.956 37.207, 808.108 99.341, 788.550 176.357 C 780.995 206.104, 781.598 182.664, 781.260 459.936 C 780.929 732.139, 780.633 717.520, 786.771 732.603 C 796.365 756.177, 818.400 774.597, 842.934 779.552 C 854.280 781.844, 872.548 781.137, 882.500 778.022 C 907.356 770.241, 928.041 748.823, 935.240 723.412 L 937.482 715.500 937.991 467 L 938.500 218.500 940.865 211.500 C 945.897 196.603, 954.782 183.537, 966.395 173.955 C 974.357 167.386, 987.890 160.630, 997.688 158.332 C 1005.218 156.566, 1028.396 156.500, 1640 156.500 C 2164.997 156.500, 2275.622 156.730, 2281 157.834 C 2309.967 163.779, 2332.945 185.469, 2341.290 214.745 L 2343.500 222.500 2343.779 851.500 C 2343.961 1263.598, 2343.714 1483.980, 2343.062 1490.593 C 2341.159 1509.893, 2335.138 1523.302, 2322.166 1537.137 C 2311.608 1548.396, 2300.417 1555.398, 2286.112 1559.696 C 2281.098 1561.202, 2270.749 1561.450, 2189 1562.018 C 2107.810 1562.583, 2096.787 1562.844, 2091.168 1564.335 C 2083.535 1566.360, 2071.918 1571.617, 2065.325 1576.030 C 2062.671 1577.806, 1983.673 1656.026, 1889.773 1749.853 L 1719.045 1920.447 1718.761 1773.473 L 1718.476 1626.500 1716.210 1619.161 C 1711.868 1605.101, 1704.574 1593.508, 1693.625 1583.266 C 1680.863 1571.327, 1666.486 1564.899, 1648.172 1562.940 C 1641.777 1562.256, 1583.947 1562.027, 1477.500 1562.262 C 1299.679 1562.655, 1311.279 1562.226, 1296.426 1568.961 C 1279.198 1576.773, 1262.471 1593.783, 1255.890 1610.184 C 1250.190 1624.389, 1248.521 1641.572, 1251.437 1656.020 C 1257.246 1684.797, 1277.995 1707.224, 1307.107 1716.191 L 1314.500 1718.468 1438.224 1718.760 L 1561.948 1719.053 1562.232 1920.276 L 1562.516 2121.500 1564.703 2129.196 C 1572.916 2158.093, 1596.236 2180.258, 1624.500 2186.032 C 1633.221 2187.813, 1650.190 2187.542, 1658.515 2185.488 C 1667.674 2183.228, 1678.686 2178.126, 1686.340 2172.597 C 1689.728 2170.149, 1793.525 2067.089, 1916.999 1943.573 L 2141.498 1719 2207.499 1718.990 C 2245.034 1718.984, 2278.676 1718.528, 2285.500 1717.933 C 2313.569 1715.486, 2343.391 1707.093, 2368.816 1694.485 C 2415.747 1671.213, 2452.250 1634.845, 2475.496 1588.201 C 2486.319 1566.484, 2493.869 1542.623, 2497.707 1518 C 2499.417 1507.031, 2499.500 1476.604, 2499.500 859 C 2499.500 238.249, 2499.425 211.026, 2497.684 200.036 C 2489.405 147.767, 2465.947 102.403, 2428.374 65.995 C 2393.246 31.956, 2351.419 11.054, 2301 2.340 C 2290.937 0.601, 2263.660 0.520, 1645 0.394 C 1263.443 0.316, 995.820 0.634, 990.500 1.172 M 1472 313.050 C 1397.085 318.686, 1336.507 378.065, 1329.030 453.189 C 1328.210 461.433, 1327.985 583.536, 1328.202 903.500 L 1328.500 1342.500 1331.062 1350.618 C 1339.594 1377.657, 1362.883 1399.102, 1389.516 1404.446 C 1396.758 1405.899, 1427.704 1406.023, 1722.500 1405.774 L 2047.500 1405.500 2055.521 1402.779 C 2078.624 1394.941, 2098.480 1375.012, 2105.595 1352.521 C 2107.159 1347.578, 2108.504 1340.087, 2109.101 1333 C 2109.713 1325.732, 2109.953 1161.806, 2109.751 887.500 C 2109.406 417.305, 2109.788 450.675, 2104.522 429.964 C 2090.753 375.801, 2047.900 332.510, 1993.500 317.807 C 1973.384 312.370, 1989.757 312.696, 1726 312.470 C 1592.075 312.355, 1477.775 312.616, 1472 313.050 M 1485 859.500 L 1485 1250 1719 1250 L 1953 1250 1953 1172.030 L 1953 1094.060 1828.750 1093.742 C 1692.308 1093.393, 1701.664 1093.807, 1687.405 1087.500 C 1665.278 1077.715, 1647.272 1055.922, 1642.426 1033.063 C 1640.590 1024.401, 1640.627 1006.906, 1642.500 998 C 1648.118 971.295, 1671.038 947.541, 1698.713 939.743 L 1706.500 937.549 1829.750 937.234 L 1953 936.919 1953 858.982 L 1953 781.045 1827.750 780.772 L 1702.500 780.500 1694.500 777.776 C 1669.191 769.157, 1649.228 747.627, 1642.873 722.099 C 1639.894 710.132, 1640.531 690.020, 1644.247 678.722 C 1648.052 667.154, 1654.093 657.703, 1663.954 647.893 C 1673.614 638.282, 1682.653 632.652, 1695.500 628.245 L 1703.500 625.500 1828.250 625.224 L 1953 624.948 1953 546.974 L 1953 469 1719 469 L 1485 469 1485 859.500 M 681.823 938.065 C 557.073 943.732, 440.308 1004.691, 363.020 1104.500 C 316.002 1165.218, 286.343 1237.243, 276.545 1314.500 C 271.695 1352.738, 272.856 1400.615, 279.600 1440.500 C 286.365 1480.508, 300.219 1522.523, 319.029 1560.078 C 350.722 1623.355, 399.366 1679.341, 458.252 1720.313 C 520.894 1763.899, 599.079 1791.495, 671.716 1795.658 C 677.885 1796.012, 682.696 1796.683, 682.407 1797.150 C 682.118 1797.618, 677.746 1798.006, 672.691 1798.013 C 661.951 1798.029, 634.057 1800.220, 615.500 1802.506 C 395.635 1829.587, 199.572 1959.791, 88.870 2152.238 C 44.658 2229.098, 16.758 2308.745, 2.431 2399 C -2.933 2432.793, 1.148 2451.164, 18.778 2472.598 C 28.416 2484.314, 42.689 2493.436, 58 2497.663 C 67.205 2500.204, 90.074 2500.152, 98.500 2497.570 C 123.923 2489.782, 143.872 2471.259, 151.937 2447.953 C 153.096 2444.603, 155.374 2433.681, 156.998 2423.681 C 167.058 2361.751, 181.970 2314.378, 208.049 2261.500 C 228.135 2220.773, 250.598 2186.212, 279.869 2151 C 300.080 2126.687, 340.845 2087.788, 368 2066.903 C 438.330 2012.814, 524.412 1975.604, 613 1960.999 C 647.306 1955.343, 673.180 1953.618, 713.500 1954.300 C 746.512 1954.857, 761.917 1956.104, 790 1960.489 C 887.399 1975.700, 981.228 2018.463, 1057.366 2082.343 C 1134.293 2146.885, 1190.077 2227.189, 1224.061 2322.311 C 1235.266 2353.674, 1243.149 2385.609, 1249.477 2425.270 C 1252.186 2442.252, 1254.492 2450.338, 1259.101 2459.018 C 1267.996 2475.768, 1284.661 2489.670, 1303.739 2496.255 C 1319.661 2501.750, 1341.040 2501.063, 1357.279 2494.533 C 1379.761 2485.493, 1398.088 2464.616, 1404.068 2441.234 C 1407.751 2426.833, 1406.218 2408.131, 1397.899 2366 C 1340.980 2077.733, 1106.502 1852.357, 815.343 1806.058 C 785.732 1801.350, 751.467 1798.008, 732.750 1798.002 C 727.938 1798.001, 724 1797.616, 724 1797.147 C 724 1796.677, 729.276 1795.978, 735.725 1795.593 C 777.397 1793.101, 824.700 1781.924, 866.726 1764.637 C 933.511 1737.167, 992.013 1693.374, 1037.886 1636.510 C 1110.319 1546.723, 1143.486 1431.425, 1129.942 1316.500 C 1116.254 1200.359, 1054.698 1093.688, 960.647 1023.128 C 901.153 978.494, 830.480 950.045, 755.500 940.546 C 745.763 939.313, 700.869 936.625, 699 937.163 C 698.725 937.242, 690.995 937.648, 681.823 938.065 M 676.500 1095.132 C 562.379 1106.056, 465.897 1189.349, 438.034 1301 C 428.046 1341.023, 427.468 1388.609, 436.498 1427.500 C 454.873 1506.635, 506.492 1573.324, 577.500 1609.669 C 618.626 1630.719, 656.493 1639.897, 702.506 1639.969 C 735.103 1640.020, 759.066 1636.280, 788.500 1626.547 C 831.670 1612.273, 867.713 1589.714, 899.024 1557.371 C 928.983 1526.425, 949.093 1493.223, 962.544 1452.500 C 979.694 1400.575, 980.711 1343.904, 965.447 1290.799 C 943.605 1214.809, 887.577 1150.402, 815.087 1117.951 C 787.376 1105.546, 757.955 1097.844, 727.500 1095.021 C 714.720 1093.837, 689.457 1093.892, 676.500 1095.132" stroke="none" fill="#bdb290" fill-rule="evenodd"></path></svg>