<svg xmlns="http://www.w3.org/2000/svg" viewBox="0 0 2500 2500"><path d="M 1468 1.560 C 1439.730 7.652, 1416.816 29.232, 1409.018 57.107 C 1398.706 93.969, 1416.561 132.621, 1451.500 149.071 C 1466.916 156.328, 1459.429 156, 1609.458 156 C 1683.456 156, 1743.971 156.338, 1743.935 156.750 C 1743.900 157.162, 1499.499 371.250, 1200.824 632.500 C 902.148 893.750, 654.624 1110.404, 650.770 1113.954 C 642.186 1121.859, 636.897 1128.892, 632.446 1138.317 C 626.721 1150.440, 625.490 1156.660, 625.582 1173 C 625.654 1185.860, 625.962 1188.405, 628.306 1195.500 C 634.893 1215.439, 650.053 1232.997, 668.500 1242.053 C 679.203 1247.307, 686.272 1249.014, 700 1249.661 C 716.752 1250.450, 729.665 1247.252, 743.640 1238.855 C 746.710 1237.010, 1002.410 1013.974, 1311.861 743.220 L 1874.500 250.940 1875.008 406.220 C 1875.576 580.241, 1874.894 565.321, 1883.024 581.500 C 1892.734 600.823, 1910.144 615.643, 1930.487 621.903 C 1937.374 624.023, 1940.537 624.378, 1953 624.433 C 1965.537 624.489, 1968.512 624.180, 1974.975 622.152 C 2002.672 613.459, 2023.257 591.591, 2029.369 564.367 C 2030.813 557.935, 2030.975 533.137, 2031.012 311.867 C 2031.053 69.939, 2031.026 66.391, 2029.060 58.718 C 2027.963 54.439, 2026.202 48.984, 2025.146 46.598 C 2017.671 29.700, 2000.465 12.802, 1983.498 5.697 C 1969.059 -0.350, 1985.221 -0.008, 1718.292 0.079 C 1513.245 0.146, 1473.467 0.382, 1468 1.560 M 2412.404 312.994 C 2382.676 316.237, 2356.741 337.796, 2346.835 367.500 L 2344.500 374.500 2344 1359 L 2343.500 2343.500 2187.500 2343.500 L 2031.500 2343.500 2031 1632.500 L 2030.500 921.500 2028.165 914.500 C 2019.329 888.004, 1998.832 868.636, 1972 861.426 C 1962.434 858.856, 1943.018 859.069, 1932.645 861.859 C 1914.282 866.798, 1897.250 879.653, 1886.193 896.919 C 1881.580 904.122, 1878.524 911.853, 1876.591 921.215 C 1875.145 928.213, 1875 993.507, 1875 1636.458 L 1875 2344 1719 2344 L 1563 2344 1562.983 1914.750 C 1562.972 1646.171, 1562.604 1482.073, 1562.001 1476.345 C 1558.601 1444.082, 1536.454 1417.693, 1505.309 1408.795 C 1494.092 1405.591, 1474.830 1405.615, 1463.500 1408.847 C 1449.722 1412.777, 1440.808 1418.192, 1429.500 1429.500 C 1418.441 1440.559, 1413.062 1449.272, 1408.818 1463 L 1406.500 1470.500 1406.242 1907.228 L 1405.984 2343.955 1280.742 2344.228 L 1155.500 2344.500 1147.722 2347.153 C 1136.111 2351.113, 1126.631 2357.192, 1116.912 2366.912 C 1101.577 2382.246, 1095.178 2396.488, 1094.246 2417.354 C 1093.395 2436.422, 1097.050 2450.801, 1106.175 2464.275 C 1117.013 2480.280, 1131.001 2490.889, 1149.500 2497.136 L 1156.500 2499.500 1793.500 2499.772 C 2374.142 2500.021, 2431.206 2499.903, 2438.484 2498.444 C 2467.415 2492.646, 2492.451 2467.706, 2498.423 2438.733 C 2499.885 2431.641, 2500.022 2342.085, 2500.004 1407.233 C 2499.990 714.716, 2499.652 381.460, 2498.961 377.194 C 2496.280 360.661, 2488.814 346.855, 2475.792 334.354 C 2458.474 317.729, 2436.593 310.356, 2412.404 312.994 M 532.500 1407.408 C 522.444 1409.371, 512.716 1413.332, 504.582 1418.778 C 497.554 1423.483, 32.937 1810.019, 23.660 1818.878 C 14.001 1828.103, 6.527 1840.515, 3.028 1853.141 C 0.071 1863.812, 0.109 1887.880, 3.099 1897.645 C 9.298 1917.895, 24.477 1935.705, 43.500 1945.050 C 54.284 1950.348, 61.355 1952.067, 75 1952.710 C 88.972 1953.368, 99.108 1951.566, 109.744 1946.533 C 119.278 1942.020, 123.535 1939.012, 141.191 1924.308 L 156 1911.975 156.026 2130.238 C 156.041 2257.745, 156.440 2352.491, 156.986 2358.098 C 162.919 2419.068, 202.308 2469.886, 259.931 2490.915 C 270.312 2494.704, 283.202 2497.630, 295.500 2498.989 C 302.620 2499.775, 376.921 2499.990, 553.500 2499.733 C 825.136 2499.338, 803.951 2499.814, 825.068 2493.625 C 857.761 2484.044, 885.830 2464.590, 906.050 2437.500 C 921.503 2416.798, 930.282 2396.413, 935.767 2368.500 C 937.162 2361.406, 937.381 2335.162, 937.703 2136.750 C 937.903 2013.688, 938.279 1913, 938.537 1913 C 938.796 1913, 946.094 1918.893, 954.754 1926.095 C 972.544 1940.891, 979.999 1945.671, 991.500 1949.657 C 998.835 1952.200, 1000.747 1952.433, 1014.500 1952.465 C 1027.254 1952.495, 1030.698 1952.155, 1037.500 1950.193 C 1062.917 1942.865, 1083.979 1921.362, 1091.559 1895 C 1092.955 1890.148, 1093.429 1885.204, 1093.432 1875.500 C 1093.436 1861.110, 1091.504 1852.032, 1085.969 1840.435 C 1079.318 1826.499, 1077.279 1824.612, 991.550 1753.062 C 947.027 1715.903, 905.627 1681.405, 899.550 1676.399 C 893.472 1671.394, 821.484 1611.444, 739.574 1543.177 C 604.017 1430.197, 589.834 1418.648, 581.574 1414.525 C 576.584 1412.033, 569.800 1409.299, 566.500 1408.450 C 558.009 1406.263, 541.033 1405.743, 532.500 1407.408 M 429.250 1684.133 L 313 1781.170 313 2062.585 L 313 2344 547 2344 L 781 2344 781 2062.666 L 781 1781.332 664.841 1684.531 C 600.953 1631.290, 547.966 1587.587, 547.091 1587.412 C 546.160 1587.227, 497.289 1627.338, 429.250 1684.133" stroke="none" fill="#bdb290" fill-rule="evenodd"></path></svg>