<svg xmlns="http://www.w3.org/2000/svg" viewBox="0 0 2500 2500"><path d="M 1654.500 0.681 C 1491.473 8.903, 1339.479 63.361, 1209 160.299 C 1158.503 197.816, 1106.014 248.164, 1066.426 297.058 C 966.439 420.551, 905.838 566.838, 889.560 724 C 884.152 776.222, 884.152 835.801, 889.561 888 C 898.086 970.266, 917.748 1046.434, 950.224 1123 C 956.999 1138.972, 975.624 1177.725, 981.970 1189.052 L 985.080 1194.603 886.899 1400.552 C 832.899 1513.823, 787.099 1611, 785.121 1616.500 C 781.621 1626.231, 781.526 1626.877, 781.584 1640.500 C 781.639 1653.448, 781.881 1655.214, 784.798 1664 C 793.742 1690.935, 813.277 1709.357, 840.540 1716.569 C 850.839 1719.293, 868.912 1719.081, 879.607 1716.110 C 885.294 1714.530, 950.065 1684.158, 1096.530 1614.391 L 1305.346 1514.924 1311.923 1518.489 C 1402.478 1567.578, 1507.022 1599.650, 1611.500 1610.394 C 1668.739 1616.280, 1731.714 1615.763, 1789.500 1608.933 C 2008.458 1583.051, 2207.845 1468.109, 2340.143 1291.500 C 2431.460 1169.600, 2487.066 1022.782, 2499.027 872 C 2500.821 849.379, 2499.806 744.890, 2497.604 725.500 C 2485.420 618.227, 2456.944 523.582, 2409.750 433.500 C 2370.655 358.877, 2325.152 297.064, 2265.052 236.937 C 2200.504 172.359, 2132.760 123.692, 2051.500 83.520 C 1937.827 27.324, 1817.268 -0.498, 1690.500 0.211 C 1674 0.303, 1657.800 0.514, 1654.500 0.681 M 1674 156.677 C 1599.263 158.495, 1522.775 174.259, 1451.313 202.571 C 1315.231 256.484, 1199.783 356.834, 1127.398 484.122 C 1071.060 583.191, 1041.993 692.746, 1042.002 805.983 C 1042.010 924.366, 1073.503 1038.172, 1134.570 1140.500 C 1143.928 1156.182, 1147.130 1163.112, 1149.586 1173 C 1152.053 1182.929, 1152.024 1199.839, 1149.525 1209.500 C 1147.186 1218.539, 1145.722 1221.702, 1084.511 1350 C 1056.039 1409.675, 1031.037 1462.182, 1028.950 1466.681 L 1025.155 1474.863 1034.327 1470.564 C 1039.372 1468.200, 1096.499 1441.013, 1161.275 1410.149 C 1226.052 1379.284, 1281.754 1353.144, 1285.059 1352.059 C 1302.567 1346.311, 1323.958 1347.406, 1340.394 1354.891 C 1343.752 1356.421, 1352.350 1361.165, 1359.500 1365.434 C 1450.844 1419.973, 1551.326 1450.883, 1657.500 1457.103 C 1691.678 1459.105, 1739.198 1457.466, 1775.500 1453.031 C 1874.604 1440.925, 1974.736 1403.275, 2058.500 1346.622 C 2109.307 1312.259, 2159.110 1266.722, 2198.625 1218.500 C 2269.070 1132.531, 2317.246 1026.219, 2335.989 915.371 C 2342.424 877.314, 2344.498 850.974, 2344.482 807.500 C 2344.469 770.060, 2343.757 757.443, 2339.912 726.500 C 2318.923 557.604, 2231.476 402.314, 2098 296.907 C 2027.388 241.143, 1947.747 201.349, 1860 177.984 C 1813.192 165.520, 1768.810 159.012, 1717 157.015 C 1702.975 156.475, 1689.925 156.120, 1688 156.227 C 1686.075 156.334, 1679.775 156.537, 1674 156.677 M 1670.404 313.020 C 1645.061 315.693, 1622.233 331.626, 1609.953 355.213 C 1605.492 363.781, 1602.007 375.897, 1601.986 382.910 C 1601.962 391.130, 1601.485 391.802, 1595.149 392.536 C 1580.850 394.194, 1556.778 400.622, 1542 406.729 C 1489.001 428.631, 1446.777 469.992, 1424.323 522 C 1406.838 562.500, 1402.091 607.339, 1410.612 651.500 C 1423.167 716.569, 1467.540 774.105, 1528.077 803.809 C 1536.010 807.701, 1592.153 830.731, 1652.839 854.987 C 1713.526 879.242, 1765.051 900.258, 1767.339 901.688 C 1780.309 909.792, 1790.565 923.815, 1794.429 938.724 C 1796.398 946.324, 1796.430 960.552, 1794.496 968.754 C 1789.602 989.508, 1772.036 1007.353, 1750.249 1013.701 C 1745.051 1015.216, 1733.383 1015.410, 1628.500 1015.733 C 1500.463 1016.126, 1505.062 1015.899, 1491.124 1022.518 C 1468.373 1033.323, 1452.091 1053.232, 1446.890 1076.606 C 1444.734 1086.298, 1445.223 1105.068, 1447.877 1114.500 C 1451.186 1126.257, 1457.311 1137.049, 1465.827 1146.130 C 1477.193 1158.250, 1486.167 1164.028, 1501.500 1169.101 C 1508.302 1171.351, 1509.815 1171.432, 1555 1171.958 L 1601.500 1172.500 1602.175 1180.500 C 1603.019 1190.502, 1606.806 1202.561, 1611.724 1210.908 C 1619.724 1224.484, 1635.315 1238.216, 1649.500 1244.179 C 1659.715 1248.474, 1665.615 1249.501, 1680 1249.488 C 1691.061 1249.478, 1694.946 1249.061, 1701.500 1247.181 C 1726.557 1239.995, 1747.028 1219.518, 1755.166 1193.500 C 1755.682 1191.850, 1756.652 1186.012, 1757.322 1180.526 L 1758.541 1170.552 1767.020 1169.388 C 1836.522 1159.840, 1899.257 1113.844, 1930.540 1049.500 C 1983.609 940.346, 1938.597 810.880, 1829 757.439 C 1825.425 755.696, 1772.325 734.138, 1711 709.533 C 1649.675 684.928, 1596.800 663.380, 1593.500 661.648 C 1580.626 654.893, 1568.621 638.904, 1564.481 623 C 1562.159 614.081, 1562.851 598.017, 1565.945 589 C 1572.334 570.384, 1587.337 555.899, 1607 549.365 C 1612.163 547.649, 1619.788 547.503, 1731.500 546.972 C 1863.967 546.343, 1854.050 546.885, 1869.704 539.410 C 1889.127 530.134, 1906.167 509.817, 1911.564 489.500 C 1914.082 480.021, 1914.569 462.916, 1912.599 453.190 C 1907.141 426.254, 1886.647 403.132, 1860.278 394.159 L 1852.500 391.512 1805.384 391.211 L 1758.268 390.909 1757.603 383.573 C 1756.789 374.597, 1753.816 363.559, 1750.352 356.661 C 1740.991 338.015, 1723.115 322.317, 1704.521 316.413 C 1698.157 314.392, 1681.850 311.717, 1678.500 312.144 C 1677.950 312.214, 1674.307 312.608, 1670.404 313.020 M 689 1094.687 C 684.107 1095.497, 673.606 1099.170, 667.797 1102.102 C 660.260 1105.907, 28.071 1580.110, 21.847 1586.627 C 11.337 1597.632, 4.519 1610.692, 1.555 1625.500 C 0.099 1632.771, -0.022 1670.095, 0.227 2035 C 0.485 2414.145, 0.598 2436.834, 2.252 2442.500 C 9.776 2468.264, 31.310 2489.994, 56.459 2497.197 L 64.500 2499.500 703.500 2499.500 L 1342.500 2499.500 1349.975 2497.153 C 1377.846 2488.402, 1398.441 2466.402, 1404.417 2439 C 1405.916 2432.129, 1406.030 2404.693, 1405.777 2112 L 1405.500 1792.500 1402.847 1784.722 C 1398.887 1773.111, 1392.808 1763.631, 1383.088 1753.912 C 1367.662 1738.485, 1353.479 1732.145, 1332.402 1731.253 C 1318.212 1730.653, 1309.591 1731.904, 1299.162 1736.075 C 1277.586 1744.705, 1260.806 1762.980, 1252.864 1786.500 L 1250.500 1793.500 1250.238 2068.751 L 1249.975 2344.002 703.238 2343.751 L 156.500 2343.500 156.249 2011.752 L 155.997 1680.004 425.551 1477.838 L 695.105 1275.672 714.302 1294.685 C 724.861 1305.142, 735.666 1315.157, 738.313 1316.940 C 745.008 1321.451, 754.813 1325.744, 762.770 1327.650 C 772.623 1330.009, 791.353 1329.778, 801.118 1327.178 C 826.736 1320.356, 847.246 1300.864, 856.020 1275 C 859.059 1266.042, 859.878 1244.758, 857.596 1234 C 855.716 1225.131, 849.931 1212.678, 844.126 1205 C 838.024 1196.929, 755.508 1113.383, 748.635 1108.316 C 735.306 1098.490, 720.469 1093.932, 702.500 1094.143 C 696.450 1094.214, 690.375 1094.459, 689 1094.687" stroke="none" fill="#bdb290" fill-rule="evenodd"></path></svg>