<svg xmlns="http://www.w3.org/2000/svg" viewBox="0 0 2500 2500"><path d="M 1211.500 0.995 C 1044.841 7.459, 886.825 52.933, 742.408 135.990 C 560.253 240.750, 411.595 404.481, 325.198 595.500 C 259.140 741.548, 229.929 890.105, 234.941 1054.500 C 238.377 1167.188, 251.468 1263.179, 277.627 1367.500 C 309.461 1494.451, 361.408 1622.485, 429.774 1742.500 C 563.255 1976.823, 767.700 2194.999, 1019.500 2371.835 C 1072.949 2409.372, 1148.664 2457.237, 1179.500 2472.983 C 1219.899 2493.613, 1268.635 2495.405, 1310.200 2477.788 C 1334.938 2467.303, 1418.718 2415.173, 1480.500 2371.822 C 1730.722 2196.248, 1935.275 1978.425, 2068.197 1746 C 2104.986 1681.670, 2138.411 1612.555, 2163.708 1548.500 C 2211.442 1427.638, 2241.287 1309.876, 2255.959 1184.500 C 2265.774 1100.635, 2268.236 1006.650, 2262.511 934.358 C 2252.014 801.780, 2216.224 675.115, 2155.465 555.500 C 2106.679 459.457, 2045.419 375.262, 1968.066 297.944 C 1903.452 233.359, 1835.063 180.685, 1758.500 136.533 C 1633.132 64.236, 1497.311 20.252, 1354 5.539 C 1313.179 1.349, 1252.377 -0.590, 1211.500 0.995 M 1211 157.600 C 1207.975 157.800, 1198.300 158.436, 1189.500 159.014 C 1042.273 168.685, 896.512 218.523, 772.253 301.678 C 704.530 346.999, 637.535 407.859, 585.312 471.500 C 479.894 599.966, 413.862 756.760, 396.010 921 C 392.030 957.615, 391.499 969.588, 391.533 1022 C 391.564 1072.007, 392.097 1085.863, 395.568 1127 C 406.798 1260.066, 439.658 1391.990, 492.952 1517.966 C 515.351 1570.916, 545.685 1631.017, 576.497 1683.500 C 692.745 1881.509, 870.921 2071.618, 1086 2227.127 C 1135.326 2262.791, 1185.894 2295.911, 1235.290 2324.906 C 1242.874 2329.357, 1249.462 2333, 1249.930 2333 C 1250.398 2333, 1256.792 2329.467, 1264.140 2325.149 C 1401.213 2244.602, 1535.594 2141.060, 1652.335 2026.042 C 1834.708 1846.361, 1961.346 1653.659, 2036.808 1441 C 2072.087 1341.581, 2095.475 1232.961, 2104.418 1127 C 2107.914 1085.569, 2108.436 1072.044, 2108.467 1022 C 2108.500 971.009, 2107.975 958.376, 2104.418 924.500 C 2088.439 772.334, 2030.588 624.825, 1938.916 502.500 C 1912.984 467.897, 1892.272 444.019, 1859.675 411.146 C 1773.761 324.505, 1678.108 261.326, 1565 216.511 C 1484.620 184.664, 1405.274 166.573, 1312.500 158.942 C 1299.857 157.902, 1222.027 156.873, 1211 157.600 M 1217 470.126 C 1116.545 475.906, 1017.761 510.495, 935 568.868 C 884.795 604.279, 838.279 650.795, 802.868 701 C 757.079 765.920, 725.053 842.709, 711.425 920.254 C 684.214 1075.095, 724.235 1233.420, 821.571 1356 C 886.602 1437.898, 973.358 1499.196, 1072.768 1533.487 C 1186.553 1572.737, 1313.447 1572.737, 1427.232 1533.487 C 1458.311 1522.767, 1492.685 1507.308, 1519.773 1491.870 C 1636.356 1425.426, 1723.797 1320.013, 1767.378 1193.374 C 1821.199 1036.977, 1800.777 863.234, 1712.149 723.500 C 1669.092 655.617, 1610.258 596.780, 1542.500 553.844 C 1445.667 492.485, 1332.825 463.462, 1217 470.126 M 1220 626.599 C 1130.664 634.136, 1048.897 670.002, 984.691 729.814 C 912.443 797.118, 869.091 886.170, 860.873 984.156 C 859.377 1001.992, 860.289 1048.728, 862.441 1064.500 C 872.454 1137.888, 900.104 1203.575, 944.104 1258.500 C 991.167 1317.250, 1050.886 1359.844, 1120.500 1384.315 C 1168.401 1401.153, 1214.414 1407.872, 1267.750 1405.816 C 1407.852 1400.415, 1535.772 1317.308, 1599.301 1190.415 C 1618.807 1151.454, 1630.876 1111.730, 1637.555 1064.500 C 1639.651 1049.677, 1640.595 1001.570, 1639.130 984.156 C 1627.423 844.921, 1543.605 723.618, 1417.501 663.411 C 1380.244 645.622, 1343.666 634.883, 1298.350 628.428 C 1288.006 626.954, 1231.440 625.634, 1220 626.599" stroke="none" fill="#bdb290" fill-rule="evenodd"></path></svg>