<svg xmlns="http://www.w3.org/2000/svg" xmlns:xlink="http://www.w3.org/1999/xlink" width="46px" height="48px" viewBox="0 0 46 48"><title>streamline-icon-real-estate-deal-shake@48x48</title><g id="Page-1" stroke="none" stroke-width="1" fill="none" fill-rule="evenodd" stroke-linecap="round" stroke-linejoin="round"><g id="streamline-icon-real-estate-deal-shake@48x48" transform="translate(1.840000, 1.000000)" stroke="#E9AFA3" stroke-width="2"><line x1="36" y1="37.4" x2="25.44" y2="39.52" id="Path"></line><path d="M26.66,27.66 L21.66,29.7 C20.6167845,30.1680179 19.403129,30.0439355 18.4762058,29.3744933 C17.5492826,28.7050511 17.0499135,27.5919534 17.1662058,26.4544933 C17.2824982,25.3170332 17.9967845,24.3280179 19.04,23.86 L23.98,21.46 C24.6023375,21.1546681 25.2868016,20.9972413 25.98,20.9999644 C26.4907747,21.0049307 26.9973625,21.0927393 27.48,21.26 L36.5,24.72" id="Path"></path><path d="M6.66,39.66 L10.38,39.66 L16.6,44.5 C17.2595732,45.2183229 18.3650263,45.2972838 19.12,44.68 L28.44,37.2 C28.8655865,36.9004556 29.140694,36.4313702 29.194377,35.9137132 C29.2480599,35.3960561 29.0750633,34.8805007 28.72,34.5 L23.66,28.92" id="Path"></path><path d="M18.66,24.12 L18.02,23.58 C17.3376243,23.0753767 16.5086147,22.8084075 15.66,22.82 C15.1601127,22.8212836 14.6648951,22.9162569 14.2,23.1 L6.66,26.34" id="Path"></path><path d="M0,42.34 L4,42.34 C5.47230669,42.3290123 6.66,41.1323477 6.66,39.66 L6.66,26.34 C6.66,24.8676523 5.47230669,23.6709877 4,23.66 L0,23.66" id="Path"></path><path d="M42.66,42.34 L38.66,42.34 C37.9510452,42.34 37.2714151,42.0570271 36.7719894,41.5538463 C36.2725637,41.0506655 35.9946695,40.3689348 36,39.66 L36,26.34 C35.9946695,25.6310652 36.2725637,24.9493345 36.7719894,24.4461537 C37.2714151,23.9429729 37.9510452,23.66 38.66,23.66 L42.66,23.66" id="Path"></path><polyline id="Path" points="40.82 16.5 21.32 0 1.82 16.5"></polyline><polyline id="Path" points="31.82 1.5 37.82 1.5 37.82 7.5"></polyline></g></g></svg>