<svg xmlns="http://www.w3.org/2000/svg" xmlns:xlink="http://www.w3.org/1999/xlink" width="47px" height="45px" viewBox="0 0 47 45"><title>streamline-icon-real-estate-action-house-key@48x48</title><g id="Page-1" stroke="none" stroke-width="1" fill="none" fill-rule="evenodd"><g id="streamline-icon-real-estate-action-house-key@48x48" transform="translate(1.000000, 1.000000)" stroke="#E9AFA3" stroke-width="2"><path d="M15,36.57 L9,36.57 C8.20436,36.57 7.44128,36.254 6.87868,35.6914 C6.31608,35.1288 6,34.3658 6,33.57 L6,18.57" id="Path" stroke-linecap="round" stroke-linejoin="round"></path><path d="M0,15.56998 L17.562,0.70998 C18.1037,0.25156 18.7904,0 19.5,0 C20.2096,0 20.8964,0.25156 21.438,0.70998 L35.996,13.02798" id="Path" stroke-linecap="round" stroke-linejoin="round"></path><polyline id="Path" stroke-linecap="round" stroke-linejoin="round" points="30 0.57006 36 0.57006 36 6.57006"></polyline><path d="M36.674,31.5 L44.048,24.126 C44.658,23.516 45.0006,22.6886 45.0006,21.826 C45.0006,20.9632 44.658,20.136 44.048,19.526 C43.438,18.916 42.6106,18.5732 41.748,18.5732 C40.8852,18.5732 40.058,18.916 39.448,19.526 L32.08,26.9 C30.3434,26.2198 28.4254,26.1584 26.6488,26.7256 C24.8722,27.293 23.345,28.4548 22.324,30.0154 C21.303,31.5762 20.8502,33.4408 21.0422,35.296 C21.234,37.1512 22.0586,38.8838 23.3774,40.2026 C24.6962,41.5214 26.4286,42.346 28.2838,42.5378 C30.139,42.7296 32.0036,42.277 33.5644,41.256 C35.1252,40.2348 36.2868,38.7078 36.8542,36.931 C37.4216,35.1544 37.36,33.2366 36.68,31.5 L36.674,31.5 Z" id="Path" stroke-linecap="round" stroke-linejoin="round"></path><path d="M29.25,35.2004 C28.8358,35.2004 28.5,34.8646 28.5,34.4504 C28.5,34.0362 28.8358,33.7004 29.25,33.7004" id="Path"></path><path d="M29.25,35.2004 C29.6642,35.2004 30,34.8646 30,34.4504 C30,34.0362 29.6642,33.7004 29.25,33.7004" id="Path"></path></g></g></svg>