<svg xmlns="http://www.w3.org/2000/svg" xmlns:xlink="http://www.w3.org/1999/xlink" xmlns:svgjs="http://svgjs.com/svgjs" viewBox="0 0 140 140" width="140" height="140"><g transform="matrix(5.833333333333333,0,0,5.833333333333333,0,0)"><path d="M12 2.251L12 0.751" fill="none" stroke="#16bfbf" stroke-linecap="round" stroke-linejoin="round" stroke-width="1.5"></path><path d="M18.364 4.888L19.425 3.827" fill="none" stroke="#16bfbf" stroke-linecap="round" stroke-linejoin="round" stroke-width="1.5"></path><path d="M21 11.251L22.5 11.251" fill="none" stroke="#16bfbf" stroke-linecap="round" stroke-linejoin="round" stroke-width="1.5"></path><path d="M18.364 17.615L19.425 18.676" fill="none" stroke="#16bfbf" stroke-linecap="round" stroke-linejoin="round" stroke-width="1.5"></path><path d="M5.636 4.888L4.575 3.827" fill="none" stroke="#16bfbf" stroke-linecap="round" stroke-linejoin="round" stroke-width="1.5"></path><path d="M3 11.251L1.5 11.251" fill="none" stroke="#16bfbf" stroke-linecap="round" stroke-linejoin="round" stroke-width="1.5"></path><path d="M5.636 17.615L4.575 18.676" fill="none" stroke="#16bfbf" stroke-linecap="round" stroke-linejoin="round" stroke-width="1.5"></path><path d="M9,16.449v2.3a3,3,0,0,0,6,0v-2.3" fill="none" stroke="#16bfbf" stroke-linecap="round" stroke-linejoin="round" stroke-width="1.5"></path><path d="M6.000 11.251 A6.000 6.000 0 1 0 18.000 11.251 A6.000 6.000 0 1 0 6.000 11.251 Z" fill="none" stroke="#16bfbf" stroke-linecap="round" stroke-linejoin="round" stroke-width="1.5"></path><path d="M12 21.751L12 23.251" fill="none" stroke="#16bfbf" stroke-linecap="round" stroke-linejoin="round" stroke-width="1.5"></path></g></svg>