<svg xmlns="http://www.w3.org/2000/svg" xmlns:xlink="http://www.w3.org/1999/xlink" width="47px" height="47px" viewBox="0 0 47 47"><title>streamline-icon-real-estate-person-search-house@48x48</title><g id="Page-1" stroke="none" stroke-width="1" fill="none" fill-rule="evenodd" stroke-linecap="round" stroke-linejoin="round"><g id="streamline-icon-real-estate-person-search-house@48x48" transform="translate(1.000000, 1.000000)" stroke="#E9AFA3" stroke-width="2"><path d="M24,30 L30,30 L30,39 L39,30 L41.988,30 C43.6514817,30 45,28.6514817 45,26.988 L45,3 C45,1.34314575 43.6568542,0 42,0 L18,0 C16.3431458,0 15,1.34314575 15,3 L15,12" id="Path"></path><circle id="Oval" cx="12" cy="24.75" r="6.75"></circle><path d="M24,45 C23.1919486,38.9906461 18.0634381,34.5055873 12,34.5055873 C5.93656189,34.5055873 0.808051435,38.9906461 0,45" id="Path"></path><path d="M36,11 L36,21 C36,21.8284271 35.3284271,22.5 34.5,22.5 L25.5,22.5 C24.6715729,22.5 24,21.8284271 24,21 L24,11" id="Path"></path><polyline id="Path" points="21 13.5 30 6 39 13.5"></polyline></g></g></svg>