<svg xmlns="http://www.w3.org/2000/svg" viewBox="0 0 2500 2500"><path d="M 1199.500 0.600 C 1133.545 3.846, 1091.330 8.149, 1037.500 17.115 C 823.091 52.825, 616.017 148.021, 448.730 287.783 C 394.265 333.286, 337.705 389.428, 292.861 442.500 C 206.916 544.215, 139.799 655.445, 89.513 779.500 C 41.209 898.666, 14.209 1013.344, 2.400 1149.500 C 0.218 1174.652, -0.747 1283.133, 0.945 1313 C 13.034 1526.396, 82.098 1735.679, 199.147 1913.609 L 213.034 1934.719 145.932 2133.609 C 109.026 2242.999, 78.201 2335.425, 77.433 2339 C 70.350 2371.936, 87.841 2408.163, 118.162 2423.358 C 130.557 2429.569, 140.528 2432, 153.611 2432 C 159.271 2432, 166.286 2431.500, 169.201 2430.888 C 172.115 2430.277, 268.655 2399.933, 383.734 2363.458 L 592.967 2297.140 611.734 2308.194 C 663.453 2338.659, 714.332 2364.154, 767.047 2386.019 C 884.958 2434.928, 1009.613 2465.718, 1135 2476.903 C 1178.927 2480.822, 1195.649 2481.496, 1249 2481.498 C 1302.245 2481.500, 1317.509 2480.879, 1361.500 2476.919 C 1720.673 2444.592, 2051.059 2256.244, 2262.101 1963.500 C 2394.145 1780.336, 2473.534 1567.868, 2493.951 1343 C 2500.025 1276.104, 2500.190 1205.978, 2494.431 1139.500 C 2480.609 979.950, 2439.325 833.341, 2367.858 690 C 2308.032 570.008, 2234.922 467.915, 2139.518 371.137 C 2040.530 270.723, 1931.505 191.761, 1806 129.584 C 1655.532 55.039, 1504.993 14.557, 1333.055 2.402 C 1313.002 0.984, 1217.795 -0.300, 1199.500 0.600 M 1221.500 156.624 C 1030.606 160.928, 847.675 213.866, 683.500 312.316 C 563.700 384.156, 454.451 483.370, 369.702 597.292 C 268.269 733.641, 198.330 897.487, 170.567 1063.805 C 154.707 1158.817, 151.440 1256.590, 160.967 1351.082 C 176.310 1503.263, 225.944 1654.015, 304.325 1786.500 C 318.039 1809.680, 334.743 1835.376, 353.120 1861.564 C 373.787 1891.015, 376.823 1898.107, 377.708 1919 C 378.069 1927.524, 377.774 1932.311, 376.569 1937.500 C 375.674 1941.350, 353.114 2009.247, 326.436 2088.381 C 299.757 2167.516, 278.058 2232.359, 278.215 2232.477 C 278.372 2232.595, 347.575 2210.754, 432 2183.941 C 539.088 2149.931, 588.040 2134.822, 593.899 2133.971 C 603.735 2132.542, 613.671 2133.227, 624.581 2136.084 C 634.462 2138.672, 638.460 2140.743, 662 2155.462 C 711.234 2186.248, 748.376 2206.248, 798.500 2228.965 C 894.831 2272.624, 1001.143 2302.765, 1107 2316.428 C 1184.314 2326.407, 1265.787 2328.143, 1343 2321.456 C 1583.506 2300.628, 1810.531 2200.449, 1989 2036.396 C 2051.517 1978.930, 2109.177 1911.850, 2155.669 1842.500 C 2276.618 1662.086, 2341.994 1450.619, 2342.088 1239.500 C 2342.156 1086.877, 2309.425 937.620, 2244.501 794.500 C 2203.318 703.715, 2147.388 615.914, 2082.064 539.500 C 2046.936 498.409, 2002.608 453.985, 1961.552 418.727 C 1863.690 334.686, 1754.523 270.367, 1632 224.562 C 1531.339 186.930, 1427.029 164.907, 1319.500 158.585 C 1293.941 157.082, 1244.793 156.099, 1221.500 156.624 M 818.258 600.576 C 765.418 606.978, 721.650 628.417, 689.439 663.676 C 631.442 727.163, 593.036 790.405, 569 862 C 557.843 895.232, 549.514 934.235, 545.296 973 C 543.905 985.778, 543.505 997.509, 543.524 1025 C 543.549 1061.919, 544.561 1076.745, 549.089 1106.500 C 568.662 1235.130, 629.534 1364.751, 729.326 1490.302 C 840.995 1630.795, 997.612 1756.005, 1160.654 1835.135 C 1328.466 1916.580, 1489.219 1946.695, 1627 1922.498 C 1670.803 1914.806, 1713.600 1900.671, 1752.450 1881.066 C 1825.431 1844.237, 1881.651 1791.252, 1927.061 1716.500 C 1931.070 1709.900, 1936.756 1700.529, 1939.697 1695.675 C 1950.112 1678.484, 1958.590 1657.527, 1963.905 1635.838 C 1968.253 1618.097, 1970.092 1602.188, 1970.131 1582 C 1970.179 1556.997, 1968.167 1543.332, 1960.351 1515.595 C 1953.799 1492.342, 1947.889 1481.599, 1933.709 1467.158 C 1920.551 1453.757, 1908.444 1445.729, 1881.500 1432.536 C 1765.196 1375.591, 1659.848 1325.743, 1640.500 1318.500 C 1628.694 1314.081, 1611.787 1309.662, 1600.224 1307.972 C 1588.064 1306.195, 1562.609 1307.185, 1552.825 1309.816 C 1535.213 1314.552, 1519.289 1323.477, 1505.234 1336.489 C 1495.598 1345.411, 1490.760 1351.684, 1472.780 1378.569 C 1454.776 1405.491, 1433.341 1435, 1431.789 1435 C 1429.931 1435, 1383.305 1411.825, 1367.500 1403.046 C 1259.859 1343.252, 1166.465 1262.442, 1092.386 1165 C 1077.855 1145.886, 1060.748 1121.247, 1061.167 1120.035 C 1061.350 1119.504, 1069.825 1111.374, 1080 1101.969 C 1090.175 1092.564, 1101.149 1081.861, 1104.387 1078.184 C 1112.589 1068.872, 1121.118 1055.615, 1127.988 1041.500 C 1139.034 1018.807, 1142.589 1002.121, 1141.702 977.140 C 1141.397 968.538, 1140.444 958.350, 1139.585 954.500 C 1136.122 938.979, 1129.024 921.744, 1121.702 911.077 C 1115.205 901.613, 1099.181 865.001, 1061.487 773.500 C 1026.983 689.744, 1025.031 685.499, 1014.128 670.512 C 989.862 637.155, 944.574 611.481, 895 602.978 C 888.675 601.893, 879.225 600.562, 874 600.020 C 860.824 598.653, 831.734 598.944, 818.258 600.576 M 835.500 756.033 C 832.200 756.541, 825.765 758.113, 821.200 759.526 C 811.344 762.578, 809.156 764.365, 793.685 782 C 739.298 843.994, 708.555 913.088, 700.912 990.500 C 698.350 1016.452, 699.642 1055.031, 704.044 1084 C 731.723 1266.176, 878.923 1467.550, 1091.425 1613.949 C 1175.442 1671.831, 1270.748 1719.024, 1357 1745.453 C 1407.334 1760.877, 1451.710 1769.433, 1500.368 1773.095 C 1519.649 1774.547, 1562.535 1773.716, 1578.775 1771.577 C 1652.132 1761.915, 1707.014 1735.965, 1751.540 1689.890 C 1767.916 1672.944, 1779.472 1657.756, 1794.446 1633.500 C 1806.056 1614.693, 1810.593 1605.135, 1812.508 1595.449 C 1814.442 1585.669, 1814.182 1574.099, 1812 1572.850 C 1811.175 1572.378, 1792.725 1563.395, 1771 1552.887 C 1637.601 1488.368, 1599.955 1470.604, 1598.983 1471.716 C 1598.607 1472.147, 1593.631 1479.250, 1587.927 1487.500 C 1560.741 1526.816, 1536.665 1556.707, 1521.612 1569.828 C 1505.031 1584.283, 1484.508 1594.172, 1463 1598.071 C 1452.394 1599.994, 1432.086 1599.502, 1420 1597.029 C 1404.793 1593.917, 1394.641 1590.256, 1369.751 1578.909 C 1302.402 1548.205, 1248.034 1517.004, 1190.553 1476.070 C 1106.738 1416.381, 1029.354 1341.093, 967.103 1258.671 C 942.388 1225.949, 915.131 1185.359, 906.887 1169 C 892.216 1139.890, 889.239 1110.957, 898.037 1083 C 901.171 1073.042, 910.257 1055.547, 917.752 1045.040 C 925.025 1034.843, 950.722 1007.939, 969.266 991.105 L 980.716 980.710 973.709 966.105 C 960.618 938.819, 947.473 907.970, 905.700 806.507 C 888.561 764.877, 888.377 764.495, 884.456 762.288 C 875.427 757.206, 849.439 753.886, 835.500 756.033" stroke="none" fill="#bdb290" fill-rule="evenodd"></path></svg>