<svg xmlns="http://www.w3.org/2000/svg" xmlns:xlink="http://www.w3.org/1999/xlink" width="61px" height="60px" viewBox="0 0 61 60"><title>whatsapp</title><g id="Page-1" stroke="none" stroke-width="1" fill="none" fill-rule="evenodd" stroke-linecap="round" stroke-linejoin="round"><g id="whatsapp" transform="translate(2.849903, 1.874634)" stroke="#E9AFA3" stroke-width="3.75"><path d="M28.1500974,0.000182341952 C12.6779057,-0.0550144861 0.0827378056,12.4282958 4.84830522e-05,27.9003659 C-0.0109928697,33.7822696 1.86412236,39.5127619 5.3500974,44.2503659 L1.8500974,54.6253659 L12.6500974,51.2003659 C21.2640615,56.8565618 32.2801845,57.3539047 41.3687851,52.4969232 C50.4573857,47.6399417 56.1656677,38.2050154 56.2500974,27.9003659 C56.1674875,12.4478637 43.6027955,-0.0273998816 28.1500974,0.000182341952 M43.3250974,34.7753659 C43.1500974,34.4753659 42.6500974,34.2753659 41.9250974,33.9253659 C41.2000974,33.5753659 37.5750974,31.8003659 36.9250974,31.5503659 C36.2750974,31.3003659 35.7500974,31.1753659 35.2750974,31.9253659 C34.8000974,32.6753659 34.0250974,33.7503659 33.6000974,34.2253659 C33.1750974,34.7003659 32.7500974,34.7753659 32.0000974,34.4003659 C27.7220247,32.5361062 24.1122451,29.4146059 21.6500974,25.4503659 C21.2250974,24.7253659 21.6500974,24.3253659 21.9750974,23.9753659 C23.2000974,22.7503659 23.2250974,22.9253659 23.5250974,22.3253659 C23.7430191,21.9283011 23.7430191,21.4474307 23.5250974,21.0503659 C23.1500974,20.6253659 21.7750974,17.0753659 21.1500974,15.6253659 C20.5250974,14.1753659 17.3750974,13.9003659 16.1500974,15.2503659 C3.1500974,28.9503659 34.8250974,52.4253659 42.9250974,38.1253659 C43.6012833,37.1612369 43.7513576,35.9231247 43.3250974,34.8253659" id="Shape"></path></g></g></svg>