<svg xmlns="http://www.w3.org/2000/svg" viewBox="0 0 40 40"><g transform="matrix(1.6666666666666667,0,0,1.6666666666666667,0,0)"><path d="M8.261,16.49a5.211,5.211,0,0,1,2.9-9.97" fill="none" stroke="#d1c292" stroke-linecap="round" stroke-linejoin="round" stroke-width="1.5"></path><path d="M8.222,20.807a9.377,9.377,0,0,1,3.4-18.438" fill="none" stroke="#d1c292" stroke-linecap="round" stroke-linejoin="round" stroke-width="1.5"></path><path d="M9.75 11.859L13.917 7.692" fill="none" stroke="#d1c292" stroke-linecap="round" stroke-linejoin="round" stroke-width="1.5"></path><path d="M13.917 7.692L14.485 3.942 17.733 0.75 18.235 3.374 20.859 3.876 17.667 7.124 13.917 7.692z" fill="none" stroke="#d1c292" stroke-linecap="round" stroke-linejoin="round" stroke-width="1.5"></path><path d="M11.250 17.250 A6.000 6.000 0 1 0 23.250 17.250 A6.000 6.000 0 1 0 11.250 17.250 Z" fill="none" stroke="#d1c292" stroke-linecap="round" stroke-linejoin="round" stroke-width="1.5"></path><path d="M19.924,15.505l-2.905,3.874a.751.751,0,0,1-1.131.08l-1.5-1.5" fill="none" stroke="#d1c292" stroke-linecap="round" stroke-linejoin="round" stroke-width="1.5"></path></g></svg>