<svg xmlns="http://www.w3.org/2000/svg" xmlns:xlink="http://www.w3.org/1999/xlink" xmlns:svgjs="http://svgjs.com/svgjs" viewBox="0 0 64 64" width="64" height="64"><g transform="matrix(2.6666666666666665,0,0,2.6666666666666665,0,0)"><path d="M8.25,19.5h-3A1.5,1.5,0,0,1,3.75,18V10.5" fill="none" stroke="#409fff" stroke-linecap="round" stroke-linejoin="round" stroke-width="1.5"></path><path d="M0.75 9L10.5 0.75 18.748 7.729" fill="none" stroke="#409fff" stroke-linecap="round" stroke-linejoin="round" stroke-width="1.5"></path><path d="M15.75 1.5L18.75 1.5 18.75 4.5" fill="none" stroke="#409fff" stroke-linecap="round" stroke-linejoin="round" stroke-width="1.5"></path><path d="M7.5,23.25l6.22-6.22a.749.749,0,0,1,1.06,0l1.94,1.94a.749.749,0,0,0,1.06,0l5.47-5.47" fill="none" stroke="#409fff" stroke-linecap="round" stroke-linejoin="round" stroke-width="1.5"></path><path d="M19.5 13.5L23.25 13.5 23.25 17.25" fill="none" stroke="#409fff" stroke-linecap="round" stroke-linejoin="round" stroke-width="1.5"></path><path d="M17.25 10.5L17.25 13.5" fill="none" stroke="#409fff" stroke-linecap="round" stroke-linejoin="round" stroke-width="1.5"></path></g></svg>