<svg xmlns="http://www.w3.org/2000/svg" xmlns:xlink="http://www.w3.org/1999/xlink" xmlns:svgjs="http://svgjs.com/svgjs" viewBox="0 0 64 64" width="64" height="64"><g transform="matrix(2.6666666666666665,0,0,2.6666666666666665,0,0)"><path d="M15.75,12V1.5A.75.75,0,0,0,14.737.8l-8.25,4.27A.75.75,0,0,0,6,5.77V9.75" fill="none" stroke="#409fff" stroke-linecap="round" stroke-linejoin="round" stroke-width="1.5"></path><path d="M13.5 5.25L15.75 5.25" fill="none" stroke="#409fff" stroke-linecap="round" stroke-linejoin="round" stroke-width="1.5"></path><path d="M12 8.25L15.75 8.25" fill="none" stroke="#409fff" stroke-linecap="round" stroke-linejoin="round" stroke-width="1.5"></path><path d="M0.75 12.75L3 12.75" fill="none" stroke="#409fff" stroke-linecap="round" stroke-linejoin="round" stroke-width="1.5"></path><path d="M0.75 15.75L4.5 15.75" fill="none" stroke="#409fff" stroke-linecap="round" stroke-linejoin="round" stroke-width="1.5"></path><path d="M8.25 4.156L8.25 0.751" fill="none" stroke="#409fff" stroke-linecap="round" stroke-linejoin="round" stroke-width="1.5"></path><path d="M8.25,23.25v-12a1.5,1.5,0,0,0-1.5-1.5H2.25a1.5,1.5,0,0,0-1.5,1.5v12h9" fill="none" stroke="#409fff" stroke-linecap="round" stroke-linejoin="round" stroke-width="1.5"></path><path d="M15.64,18.925a.375.375,0,1,1-.53,0,.374.374,0,0,1,.53,0" fill="none" stroke="#409fff" stroke-linecap="round" stroke-linejoin="round" stroke-width="1.5"></path><path d="M19.087,17.71l3.687-3.688a1.624,1.624,0,0,0-2.3-2.3L16.79,15.413a4.06,4.06,0,1,0,2.3,2.3Z" fill="none" stroke="#409fff" stroke-linecap="round" stroke-linejoin="round" stroke-width="1.5"></path></g></svg>