<svg xmlns="http://www.w3.org/2000/svg" width="96" height="96" viewBox="0 0 96 96"><path d="M46.848 2.9021760000000003C37.705728 3.5063999999999997 29.512704 9.95568 26.692416 18.768C25.335552 23.007552 25.215456 27.548831999999997 26.362944 31.226208000000003C27.875904000000002 36.074688 31.358496000000002 41.753472 36.855744 48.336C40.095072 52.214784 45.885888 58.250975999999994 46.863072 58.767264C47.458176 59.081663999999996 48.543744 59.07945599999999 49.152 58.762464C49.423680000000004 58.620864000000005 50.422944 57.695328 51.844512 56.268671999999995C62.293728 45.781632 68.835936 36.112608 70.12031999999999 29.258304C70.53388799999999 27.051456 70.49884800000001 24.198528000000003 70.02681600000001 21.633696C68.813952 15.043968 64.69727999999999 9.245472000000001 58.838208 5.8742399999999995C55.152575999999996 3.753504 50.692896000000005 2.648064 46.848 2.9021760000000003M46.176 8.017248C44.271072 8.279424 42.675648 8.761344 40.896 9.612192C38.111904 10.943328 35.961888 12.729408000000001 34.022112 15.322368C32.798016000000004 16.958688 31.52928 19.740864 31.049856 21.84C30.624768 23.701632 30.495936 26.508288 30.765024 28.043424C31.594272000000004 32.772672 35.743104 39.52704 42.561984 47.249184C44.261568 49.173888 47.877408 52.992000000000004 48.000672 52.992000000000004C48.046752000000005 52.992000000000004 48.979104 52.052352 50.072736 50.904C56.36352 44.297664000000005 60.804096 38.4408 63.26515199999999 33.504C64.831008 30.362879999999997 65.376 28.407168000000002 65.376 25.928928000000003C65.376 22.897056 64.828128 20.589888000000002 63.447455999999995 17.808C60.787008 12.44736 55.68864000000001 8.803488 49.741056 8.01168C48.508128 7.84752 47.396831999999996 7.849248 46.176 8.017248M11.088000000000001 19.937568C8.665056 20.298047999999998 6.695328 21.982752 5.889216 24.384C5.718528 24.892416 5.711040000000001 26.070528 5.686656 56.160000000000004C5.65872 90.754464 5.614464 88.27152 6.282719999999999 89.616C7.124544 91.30992 8.53776 92.477952 10.368 92.992608C10.967424 93.161088 12.448128 93.168 48 93.168C83.551872 93.168 85.032576 93.161088 85.632 92.992608C87.464832 92.47728 88.887264 91.300224 89.712672 89.616C90.39014399999999 88.233696 90.34368 90.81676800000001 90.3144 56.160000000000004C90.28896 26.072064 90.28137600000001 24.892416 90.110784 24.384C89.409312 22.294464 87.744192 20.66544 85.72800000000001 20.09616C85.179072 19.941216 84.71702400000001 19.92 81.888 19.92C78.33168 19.92 78.34329600000001 19.918272 77.617824 20.555328C77.10307200000001 21.0072 76.801536 21.695808 76.803072 22.416C76.805568 23.679552 77.603712 24.622943999999997 78.868032 24.856608C79.17868800000001 24.914016000000004 80.575872 24.96 82.011264 24.96L84.5952 24.96 84.912288 25.277088C85.166016 25.530816 85.24176 25.698816000000004 85.291104 26.117088C85.32499200000001 26.404704 85.339968 40.291199999999996 85.32441600000001 56.976C85.296672 86.588064 85.29168 87.318432 85.113792 87.58089600000001C85.01347200000001 87.728832 84.810432 87.912384 84.662496 87.98889600000001C84.255744 88.199232 11.744256 88.199232 11.337504000000001 87.98889600000001C11.189568000000001 87.912384 10.986528 87.728832 10.886208 87.58089600000001C10.70832 87.318432 10.703327999999999 86.588064 10.675583999999999 56.976C10.660032000000001 40.291199999999996 10.675008 26.404704 10.708896000000001 26.117088C10.75824 25.698816000000004 10.833984000000001 25.530816 11.087712 25.277088L11.4048 24.96 13.988736000000001 24.96C15.424128000000001 24.96 16.821312000000002 24.914016000000004 17.131968 24.856608C18.396288 24.622943999999997 19.194432000000003 23.679552 19.196928 22.416C19.198464 21.695808 18.896928 21.0072 18.382176 20.555328C17.66496 19.925568 17.638752 19.921344 14.352 19.907328C12.7152 19.900416 11.246400000000001 19.914047999999998 11.088000000000001 19.937568" stroke="none" fill="currentcolor" fill-rule="evenodd"></path></svg>