<svg xmlns="http://www.w3.org/2000/svg" width="96" height="96" viewBox="0 0 96 96"><path d="M10.32 2.8809600000000004C6.834816 3.2041920000000004 4.037568 5.577024000000001 3.086112 9.017280000000001L2.832 9.936 2.832 47.952L2.832 85.968 3.047328 86.81289600000001C3.8398079999999997 89.92156800000001 6.078432 92.160192 9.187104 92.95267199999999L10.032 93.168 26.448 93.168L42.864000000000004 93.168 43.296 92.964096C43.818816000000005 92.71728 44.296128 92.25715199999999 44.572896 91.733088C44.880288 91.15084800000001 44.864736 90.151872 44.538432 89.517408C44.230560000000004 88.91894400000001 43.518624 88.36310399999999 42.886176 88.22745599999999C42.57696 88.16112000000001 37.10208 88.128 26.446848 88.128L10.4712 88.128 9.915648 87.922752C9.15456 87.641568 8.358431999999999 86.84544 8.077248 86.084352L7.872 85.5288 7.872 48L7.872 10.4712 8.077248 9.915648C8.358431999999999 9.15456 9.15456 8.358431999999999 9.915648 8.077248L10.4712 7.872 40.896 7.872L71.32079999999999 7.872 71.87155200000001 8.078016C72.570336 8.33952 73.26 8.977824 73.60684800000001 9.684000000000001L73.872 10.224 73.92 25.2L73.968 40.176 74.179968 40.572288C74.452032 41.080896 75.189696 41.73024 75.636192 41.854368C76.88985600000001 42.202560000000005 78.114912 41.689824 78.664512 40.58688L78.912 40.090272000000006 78.912 25.081056000000004C78.912 12.101280000000001 78.89251200000001 9.977472 78.767712 9.37344C78.132672 6.299136 75.809568 3.89616 72.654528 3.050112L71.856 2.8359360000000002 41.472 2.822784C24.760800000000003 2.8155840000000003 10.7424 2.841792 10.32 2.8809600000000004M27.024 14.304192C25.514592 14.610528000000002 24.079488 15.692544 23.338272 17.083296C22.720896 18.241536 22.754976000000003 17.11344 22.753439999999998 36.456L22.752 54.048 20.856 54.050112000000006C19.228608 54.051936000000005 18.905568 54.076992000000004 18.576 54.227232C17.61648 54.664704 17.086560000000002 55.48896 17.090112 56.538816000000004C17.093568 57.583968 17.598048 58.356192 18.576 58.813632000000005L19.056 59.03808 28.043904 59.03904C37.885248 59.040096 37.449984 59.064384000000004 38.197536 58.472256C38.393472 58.31712 38.676767999999996 57.964224 38.827008 57.688128C39.049632 57.279168000000006 39.100032 57.068832 39.098976 56.55302400000001C39.098208 56.204927999999995 39.032448 55.765632000000004 38.952864000000005 55.576992000000004C38.731392 55.052544000000005 38.213280000000005 54.52175999999999 37.680672 54.273696L37.2 54.04992 32.472 54.04896L27.744 54.048 27.744 36.72336000000001C27.744 19.693248 27.747168000000002 19.397088 27.929664000000002 19.29936C28.214208000000003 19.147104000000002 45.23616 19.162560000000003 45.3888 19.3152C45.475104 19.401504 45.504 20.556 45.504 23.91984L45.504 28.409184 40.728 28.436639999999997L35.952 28.464000000000002 35.426592 28.761983999999998C34.473984 29.302368 33.97872 30.352031999999998 34.178784 31.406688000000003C34.317696 32.139072 34.67472 32.646336 35.376 33.10752L35.76 33.36 40.632 33.38736L45.504 33.41472 45.504 36.624L45.504 39.83328 40.632 39.86064L35.76 39.888 35.368032 40.143072C34.550112 40.675392 34.155168 41.369568 34.14768 42.288000000000004C34.139712 43.268544 34.69008 44.157888 35.577312 44.598048C35.934624 44.775360000000006 36.24288 44.785247999999996 42.225504 44.810688000000006L48.499007999999996 44.837376 48.993504 44.608992C49.53532800000001 44.35872 49.901952 44.030016 50.232671999999994 43.498272L50.448 43.152 50.47344 31.029216C50.495712 20.41008 50.48064 18.827616000000003 50.35152 18.271104C49.965504 16.60656 48.670368 15.172512 46.94544 14.499936L46.32 14.256 36.864000000000004 14.24112C31.6632 14.23296 27.2352 14.261376000000002 27.024 14.304192M65.895168 42.717312C62.599584 43.0104 59.744063999999995 43.808736 56.784 45.264576C46.743648 50.202624 41.201568 60.974976 43.00464 72.048C44.4816 81.118464 50.943648 88.765056 59.676864 91.77638400000001C62.490432000000006 92.74656 64.78156800000001 93.12 67.92 93.12C71.226432 93.12 73.86403200000001 92.651136 76.85030400000001 91.53264C83.152416 89.17228800000001 88.45929600000001 84.10924800000001 91.085184 77.952C92.332032 75.028224 92.94230400000001 72.44688 93.117216 69.35702400000001C93.228288 67.394496 93.106272 66.817056 92.439744 66.150432C91.925568 65.636352 91.429248 65.435616 90.672 65.435616C89.90956800000001 65.435616 89.418432 65.636352 88.891584 66.1632C88.347264 66.70752 88.20912 67.168608 88.12214399999999 68.731392C87.833568 73.91376 86.003808 78.222144 82.56 81.828192C79.485312 85.04755200000001 75.77472 87.041088 71.328 87.862368C69.723264 88.15872 66.116736 88.15872 64.512 87.862368C60.363168 87.096096 56.87750400000001 85.32288 53.942015999999995 82.48512000000001C51.574656 80.196576 50.014656 77.82624000000001 48.914208 74.845056C47.607744 71.30592 47.345472 67.01904 48.208512000000006 63.312000000000005C49.537728 57.602399999999996 53.42563200000001 52.609824 58.61798400000001 49.944576C61.295616 48.570144000000006 63.85507200000001 47.88672 66.973536 47.71344C68.696352 47.617728 68.982912 47.537568 69.6048 46.977312C70.899168 45.811296000000006 70.582176 43.709568 68.988864 42.893184C68.527296 42.656639999999996 67.337568 42.58905600000001 65.895168 42.717312M90.230688 48.394464C89.988 48.430464 89.6424 48.53376 89.462688 48.624096C89.28297599999999 48.714432 84.383328 53.535744 78.57456 59.338176000000004C72.765792 65.140608 67.95033600000001 69.888 67.873632 69.888C67.796928 69.888 66.177504 68.340192 64.27507200000001 66.44832C62.372544000000005 64.556544 60.688992000000006 62.93011200000001 60.53385600000001 62.834208000000004C60.182784 62.617152 59.133888 62.532191999999995 58.59744 62.67744C58.38038400000001 62.736095999999996 58.005984000000005 62.957376000000004 57.76550400000001 63.169152C57.17712 63.686975999999994 56.90496 64.269696 56.899392 65.023296C56.891136 66.133728 56.93856 66.194496 60.89232 70.143072C65.497536 74.74224000000001 65.63203200000001 74.83200000000001 67.92 74.83200000000001C69.35529600000001 74.83200000000001 69.797568 74.718144 70.769952 74.098272C71.208192 73.818816 74.332128 70.75689600000001 82.052064 63.039936000000004C93.74140799999999 51.355104 93.144288 52.011936000000006 93.143712 50.839008C93.142848 49.255776000000004 91.83321600000001 48.156672 90.230688 48.394464" stroke="none" fill="currentcolor" fill-rule="evenodd"></path></svg>