<svg xmlns="http://www.w3.org/2000/svg" width="96" height="96" viewBox="0 0 96 96"><path d="M46.08 2.943648C41.774304 3.3656639999999998 38.379648 4.18848 34.836096 5.668992C24.151584 10.132992000000002 16.153152 19.451328 13.397471999999999 30.645311999999997C11.332128 39.034656 12.243072 47.758176 15.986496 55.44C20.621088 64.95072 29.015520000000002 71.972256 39.063840000000006 74.743104C39.719424000000004 74.923872 40.262496 75.08256 40.270752 75.095904C40.279008 75.109152 41.728416 78.876384 43.491552 83.467584C45.651936 89.093184 46.792224 91.941792 46.98864 92.20358399999999C47.402592 92.755392 48.204480000000004 93.1392 48.943584 93.1392C49.94064 93.1392 50.743680000000005 92.62512000000001 51.203711999999996 91.692288C51.324288 91.447968 52.82016 87.608064 54.528 83.159232L57.633120000000005 75.070464 58.024512 74.96976C68.095776 72.377472 76.702944 65.54544 81.424128 56.395872C84.46079999999999 50.51088 85.776096 44.559936 85.52150400000001 37.858176C85.080576 26.253984 78.988416 15.4656 69.21600000000001 8.983392C67.42454400000001 7.795104 66.379008 7.197408 64.685472 6.393408C60.81456 4.555776000000001 56.886143999999994 3.4687680000000003 52.512 3.025056C51.262752 2.8982400000000004 47.082432000000004 2.84544 46.08 2.943648M46.176 7.977504000000001C38.646432000000004 8.6304 31.364448000000003 12.133344 26.121696 17.62464C21.794496000000002 22.156896 18.864576 27.944544 17.815776 34.032000000000004C17.393184 36.484992000000005 17.245248 40.130688 17.4744 42.445824C18.122688 48.99504 20.730144 55.122432 24.964896 60.048C26.012256 61.26624 28.091616 63.27811200000001 29.28 64.223136C32.940768 67.13414399999999 37.564992000000004 69.340512 42.048 70.31510399999999C43.380192 70.60464 43.945824 70.99536 44.41776 71.952C44.52192 72.1632 45.57216 74.852352 46.751616 77.928C47.931168 81.003648 48.921312 83.51904 48.952128 83.51798400000001C48.982848000000004 83.516832 50.01936 80.87856000000001 51.255455999999995 77.655072C52.55337600000001 74.270304 53.616288000000004 71.6376 53.771328000000004 71.42352C54.172224 70.870176 54.732384 70.597824 56.23392 70.226112C58.82793600000001 69.583968 60.807072000000005 68.86272000000001 63.075936000000006 67.732416C72.472128 63.051648 78.886848 54.025152 80.305248 43.488C80.63568000000001 41.033088 80.592864 37.431072 80.20137600000001 34.755552C79.185408 27.811584 75.56889600000001 20.987136000000003 70.416 16.289952000000003C65.638176 11.93472 60.13008 9.254496 53.904 8.255232000000001C51.734975999999996 7.907039999999999 48.378816 7.786464 46.176 7.977504000000001M46.573056 14.314272C41.836224 14.735327999999999 36.904224 16.744224000000003 33.104928 19.8C25.77552 25.695072 22.34448 35.184768 24.193248 44.448C25.809600000000003 52.546848000000004 31.450080000000003 59.497824 38.989152000000004 62.681856C47.074464 66.09648 56.188608 65.172864 63.348288000000004 60.21312C66.866688 57.775872 69.653568 54.530015999999996 71.567904 50.64C73.497696 46.718496 74.33279999999999 42.8592 74.174976 38.592C73.976448 33.224351999999996 72.28838400000001 28.507104 68.987712 24.096C68.19830400000001 23.041056 65.75472 20.543712000000003 64.70400000000001 19.718208C62.722272 18.160992 59.978496 16.610496 57.760608000000005 15.794400000000001C54.196896 14.483232 50.369664 13.976832000000002 46.573056 14.314272M48 19.251360000000002C47.868 19.270752 47.382624 19.31424 46.92144 19.347839999999998L46.082784000000004 19.408992 45.976895999999996 19.802304C44.829792 24.062496000000003 43.872384000000004 31.48464 43.872096 36.12L43.872 36.96 48.962976000000005 36.96L54.053856 36.96 53.99808 35.4C53.795136 29.730912 53.234496 25.325855999999998 52.118016 20.628768L51.830208000000006 19.417536 51.235104 19.359648C50.41084800000001 19.279488 48.291072 19.208544 48 19.251360000000002M39.379584 21.649536C34.924992 24.022848 31.446144000000004 28.131552 29.811648 32.949888C29.403551999999998 34.152864 28.898496 36.247392 28.896767999999998 36.744L28.896 36.96 33.888 36.96L38.88 36.96 38.88144 35.544000000000004C38.884032 33.056064 39.187392 29.262528 39.641952 26.03568C39.824448000000004 24.739487999999998 40.344288 21.805056 40.474464 21.336000000000002C40.507392 21.217152000000002 40.496928000000004 21.120672000000003 40.451232000000005 21.12144C40.40544 21.122304 39.923232000000006 21.359904 39.379584 21.649536M57.447648 21.384C58.329696 25.622016000000002 58.869984 30.28848 59.007264 34.855488L59.070528 36.96 64.055712 36.96L69.040896 36.96 68.976096 36.552C68.532864 33.760416 67.644672 31.289376 66.25881600000001 28.992767999999998C64.682304 26.380128000000003 62.035872 23.733696000000002 59.423232 22.157184C58.69459200000001 21.717503999999998 57.558528 21.12 57.451103999999994 21.12C57.41904 21.12 57.41750400000001 21.238848 57.447648 21.384M28.896 42.155136C28.896 42.267744 29.003328 42.890016 29.13456 43.53792C30.426624000000004 49.919616 34.84992 55.391136 40.814688000000004 57.986208000000005C41.409216 58.244832 41.908896 58.443168 41.92512000000001 58.42684800000001C41.94144 58.410528 41.870208000000005 58.120608000000004 41.76672 57.78259200000001C41.663328 57.444576 41.404128 56.47036799999999 41.19072 55.617696C40.18416 51.595968 39.553536 47.895456 39.185664 43.852032L39.017184 42 33.95664 41.975136L28.896 41.950272000000005 28.896 42.155136M44.064 42.081696C44.064 42.153984 44.129760000000005 42.877919999999996 44.210112 43.690560000000005C44.694432 48.588672 45.580128 53.044224 46.993824000000004 57.694176C47.29056 58.66992 47.579808 59.524319999999996 47.63664 59.592864000000006C47.71392 59.685888 48.057504 59.710656 48.997344000000005 59.690688L50.25484800000001 59.664 50.477568 59.04C51.127392 57.220224 52.045632000000005 53.759616 52.617216 50.976C53.11872 48.534144000000005 53.686176 44.447712 53.77689600000001 42.624L53.808 42 48.936 41.975136C44.864352 41.954304 44.064 41.971872 44.064 42.081696M58.80720000000001 42.888C58.48704 47.353536000000005 57.448128000000004 53.239583999999994 56.250240000000005 57.374304C56.095008 57.910176 55.968 58.370495999999996 55.968 58.397088000000004C55.968 58.48704 56.926944000000006 58.082015999999996 58.066752 57.510624C61.182144 55.948896000000005 63.907776000000005 53.518848000000006 65.880384 50.544000000000004C67.3728 48.293472 68.602656 45.057216000000004 68.97216 42.408L69.035808 41.952 63.955008 41.952L58.874304 41.952 58.80720000000001 42.888" stroke="none" fill="currentcolor" fill-rule="evenodd"></path></svg>