<svg xmlns="http://www.w3.org/2000/svg" viewBox="0 0 24 24" id="Award-Star-Head--Streamline-Ultimate.svg"><path d="M11.652000000000001 0.033384000000000004C11.368944 0.102504 11.040504 0.313728 10.875792 0.532608C10.823039999999999 0.602664 10.486272 1.186512 10.127400000000002 1.83L9.474912 3 8.391456 3.00036C7.202568000000001 3.000744 7.128431999999999 3.007728 6.858984 3.1446479999999997C6.541583999999999 3.305928 6.327864 3.527016 6.180048 3.846936C5.966256 4.30968 6.02628 4.877712 6.331512 5.28C6.3797999999999995 5.343624 7.965552000000001 7.127784 8.293992000000001 7.488L8.348688000000001 7.548 7.833216 8.76C7.184064 10.286328 7.19124 10.266072 7.191096000000001 10.572000000000001C7.1908080000000005 11.095320000000001 7.404408 11.495208 7.842408 11.791368C8.184312 12.022584 8.675088 12.082752 9.073608 11.942328C9.158520000000001 11.912400000000002 9.846624 11.535143999999999 10.60272 11.10396C11.358816000000001 10.672776 11.987592000000001 10.32 11.999976 10.32C12.012384 10.32 12.641160000000001 10.672824 13.397256000000002 11.104056C14.153376000000002 11.535288 14.84148 11.912544 14.926392 11.942424C15.666 12.202584 16.497287999999998 11.785919999999999 16.74312 11.031816C16.826112 10.777224 16.833023999999998 10.41168 16.759056 10.188C16.732872 10.1088 16.47192 9.484488 16.179144 8.800632C15.87864 8.098632 15.654552 7.544784 15.664536 7.528632C15.674232 7.512887999999999 16.116768 7.0173119999999995 16.647936 6.427392C17.179104000000002 5.837448 17.647824 5.308248 17.689536 5.251392C17.832264 5.056824 17.921424000000002 4.805544 17.943504 4.535640000000001C17.995992 3.893688 17.597424 3.29412 16.968 3.068232C16.81488 3.013272 16.790832 3.0120240000000003 15.660576 3.00012L14.509128 2.988 13.892015999999998 1.872C13.552608000000001 1.2582 13.227912 0.685944 13.170504 0.600288C12.992088 0.334152 12.630984000000002 0.091368 12.316824 0.026328C12.152376 -0.007704 11.805216 -0.004032 11.652000000000001 0.033384000000000004M11.28 2.858832C10.842336000000001 3.646704 10.532615999999999 4.177728 10.468872 4.249488C10.409328 4.316496000000001 10.307856000000001 4.393992 10.228871999999999 4.432799999999999L10.092 4.5 8.878488 4.5120000000000005L7.6649519999999995 4.524 8.75268 5.736C9.479832 6.546216 9.860712 6.988848 9.901656000000001 7.071192C9.980928 7.230696 9.999384000000001 7.414008 9.953232 7.5840000000000005C9.933528 7.656599999999999 9.662735999999999 8.314872 9.351504 9.0468C9.040272 9.778751999999999 8.789496 10.381512 8.794248000000001 10.386264C8.799024 10.391016 9.419712 10.0434 10.173576 9.6138C11.93952 8.607432 11.753016 8.700672 12 8.700672C12.247008 8.700672 12.060599999999999 8.607456 13.826136000000002 9.613848C14.580024 10.043568 15.200784 10.391208 15.205608 10.386384000000001C15.210432 10.38156 14.947439999999999 9.757152 14.621184000000001 8.9988L14.028 7.62 14.028 7.404C14.028 7.226712 14.03796 7.167792 14.083535999999999 7.0752239999999995C14.118192 7.00488 14.553552000000002 6.501887999999999 15.2406 5.738448L16.342128000000002 4.514424 15.124512 4.507224L13.906872 4.5 13.746456 4.420992C13.651824000000001 4.374384 13.553616000000002 4.30332 13.507008 4.247712C13.463544 4.1958720000000005 13.1094 3.5754720000000004 12.72 2.8690320000000002C12.3306 2.162592 12.006599999999999 1.5845280000000002 12 1.584432C11.993400000000001 1.58436 11.669400000000001 2.1578399999999998 11.28 2.858832M4.232568 12.049968C4.063872 12.114840000000001 3.9044640000000004 12.261648 3.8233440000000005 12.426863999999998L3.7560000000000002 12.564 3.749184 14.153184000000001L3.742368 15.742368 2.153184 15.749184000000001L0.5640000000000001 15.756 0.426864 15.823344C0.1728 15.948096000000001 0 16.222032000000002 0 16.5C0 16.777968 0.1728 17.051904 0.426864 17.176655999999998L0.5640000000000001 17.244 2.628 17.244L4.692 17.244 4.811376 17.185248C4.9636320000000005 17.110344 5.110344 16.963632 5.185248 16.811376000000003L5.244 16.692 5.244 14.628L5.244 12.564 5.1766559999999995 12.426863999999998C5.005728 12.078792 4.589592000000001 11.912664 4.232568 12.049968M19.232568 12.049968C19.063872 12.114840000000001 18.904464 12.261648 18.823344000000002 12.426863999999998L18.756 12.564 18.756 14.628L18.756 16.692 18.814752 16.811376000000003C18.889656 16.963632 19.036368 17.110344 19.188624 17.185248L19.308 17.244 21.372 17.244L23.436 17.244 23.573136 17.176655999999998C23.827199999999998 17.051904 24 16.777968 24 16.5C24 16.222032000000002 23.827199999999998 15.948096000000001 23.573136 15.823344L23.436 15.756 21.846816 15.749184000000001L20.257632 15.742368 20.250816 14.153184000000001L20.244 12.564 20.176655999999998 12.426863999999998C20.005728 12.078792 19.589592 11.912664 19.232568 12.049968M7.2325680000000006 15.049968C7.063872 15.11484 6.904464 15.261648000000001 6.823344 15.426863999999998L6.756 15.564 6.7491840000000005 17.153184L6.742368000000001 18.742368 5.153184 18.749184L3.564 18.756 3.426864 18.823344000000002C3.1727999999999996 18.948096 3 19.222032000000002 3 19.5C3 19.777968 3.1727999999999996 20.051904 3.426864 20.176655999999998L3.564 20.244 5.628 20.244L7.692 20.244 7.811376 20.185248C7.963632 20.110344 8.110344 19.963632 8.185248000000001 19.811376000000003L8.244 19.692 8.244 17.628L8.244 15.564 8.176656000000001 15.426863999999998C8.005728 15.078792 7.589592000000001 14.912664 7.2325680000000006 15.049968M16.232568 15.049968C16.063872 15.11484 15.904464 15.261648000000001 15.823344 15.426863999999998L15.756 15.564 15.756 17.628L15.756 19.692 15.814752 19.811376000000003C15.889655999999999 19.963632 16.036368 20.110344 16.188624 20.185248L16.308 20.244 18.372 20.244L20.436 20.244 20.573136 20.176655999999998C20.827199999999998 20.051904 21 19.777968 21 19.5C21 19.222032000000002 20.827199999999998 18.948096 20.573136 18.823344000000002L20.436 18.756 18.846816 18.749184L17.257632 18.742368 17.250816 17.153184L17.244 15.564 17.176655999999998 15.426863999999998C17.005728 15.078792 16.589592 14.912664 16.232568 15.049968M10.29588 18.774936C10.0548 18.843312 9.823488000000001 19.082904 9.76968 19.32C9.754416 19.387224 9.74496 20.005152 9.744576 20.956872L9.744 22.485744 8.166 22.492872L6.588 22.5 6.45072 22.564344000000002C5.861184000000001 22.840656 5.850408 23.626968 6.432 23.931456L6.54 23.988 8.583696 23.994528000000003C10.595112 24.000936 10.629504 24.000264 10.759248000000001 23.951712C10.934808 23.886024 11.093832 23.741784 11.176656000000001 23.573136L11.244 23.436 11.244 21.372L11.244 19.308 11.185248000000001 19.188624C11.111544 19.038816 10.96368 18.88944 10.820544 18.820128C10.684032 18.754056 10.442784 18.733272 10.29588 18.774936M13.29588 18.774936C13.048872 18.844992 12.820488000000001 19.086072 12.768168 19.332C12.75096 19.412808 12.744816 20.102591999999998 12.749304 21.444L12.756 23.436 12.823344 23.573136C12.906168 23.741784 13.065192000000001 23.886024 13.240752 23.951712C13.370496000000001 24.000264 13.404888000000001 24.000936 15.416304 23.994528000000003L17.46 23.988 17.580000000000002 23.924064C18.03492 23.681736 18.14064 23.095872 17.793816 22.739040000000003C17.734848 22.678344000000003 17.624807999999998 22.599743999999998 17.54928 22.564344000000002L17.412 22.5 15.834816 22.492872L14.257632 22.485768 14.250816 20.896872L14.244 19.308 14.185248000000001 19.188624C14.111544 19.038816 13.963680000000002 18.88944 13.820544 18.820128C13.684032 18.754056 13.442784 18.733272 13.29588 18.774936" stroke="none" fill="currentColor" fill-rule="evenodd"></path></svg>