<svg xmlns="http://www.w3.org/2000/svg" viewBox="0 0 24 24" id="Certified-Ribbon-1--Streamline-Ultimate.svg"><path d="M11.620848 0.047064C11.524512 0.073104 11.382 0.12837600000000002 11.304143999999999 0.169848C11.226288 0.21134399999999998 10.772976000000002 0.5577599999999999 10.296768 0.939672L9.43092 1.634064 8.489472000000001 1.583736C7.365528 1.523664 7.115352000000001 1.521072 6.920400000000001 1.567488C6.490272 1.669872 6.089232 2.000016 5.911056 2.398344C5.865312 2.5006079999999997 5.593464 3.467832 5.306256 4.55016C5.2807200000000005 4.646424 5.262552 4.65984 4.364496000000001 5.246160000000001C3.860856 5.57496 3.3967919999999996 5.890536 3.333288 5.9474160000000005C3.17544 6.088752 3.016464 6.335783999999999 2.935848 6.5649120000000005C2.877336 6.731304000000001 2.8686000000000003 6.791664 2.868312 7.032C2.86812 7.200144 2.8813920000000004 7.354896 2.902272 7.428C2.921136 7.494 3.106848 7.995024 3.314976 8.54136L3.693384 9.53472 3.308304 10.54536C3.096504 11.101224 2.908272 11.6262 2.890032 11.712C2.819496 12.04344 2.868504 12.39972 3.028512 12.718776C3.104832 12.871008000000002 3.340728 13.136376000000002 3.5214480000000004 13.273319999999998L3.5988960000000003 13.332 1.858992 15.456C0.902064 16.6242 0.095016 17.6286 0.065544 17.688C-0.013152 17.846736 -0.010944 18.157368 0.07005600000000001 18.32196C0.140328 18.464736000000002 0.27861600000000003 18.603552 0.41757600000000006 18.670824C0.481752 18.70188 1.159728 18.84912 2.22036 19.062312000000002L3.9203040000000002 19.404 4.6113360000000005 21.476616C5.100384 22.943448 5.324568 23.58384 5.378328000000001 23.667648C5.624712 24.0516 6.194952 24.109968000000002 6.518616 23.784384C6.598896000000001 23.703623999999998 7.545599999999999 22.217280000000002 9.617832 18.9186C9.918216000000001 18.440424 10.169400000000001 18.048912 10.176 18.0486C10.182599999999999 18.048264 10.409400000000002 18.226512 10.68 18.444696C10.983984 18.689784 11.2362 18.873336000000002 11.34 18.925008000000002C11.749608 19.128888 12.24504 19.128672 12.656903999999999 18.924456C12.764520000000001 18.871104000000003 13.010568 18.692736 13.32 18.443808C13.5906 18.226128 13.817400000000001 18.048288 13.824 18.048648C13.8306 18.048984 14.581199999999999 19.233312 15.492 20.68044C17.466792 23.818152 17.440848 23.778264 17.559432 23.85912C17.916024 24.102216000000002 18.400128000000002 24.012864 18.625032 23.662416C18.674447999999998 23.585376 18.918288 22.887456 19.388664 21.476616L20.079696000000002 19.404 21.757848 19.066272C22.68084 18.880536 23.4738 18.715752 23.52 18.700104000000003C23.70036 18.639 23.8884 18.444552 23.953392 18.252C23.971224000000003 18.199199999999998 23.994384 18.145751999999998 24.004896 18.1332C24.03132 18.101664 24.029088 17.802024 24.002568 17.818416C23.99076 17.825712000000003 23.97372 17.802048 23.964696 17.765832000000003C23.955648 17.729616 23.927616 17.666520000000002 23.902392 17.6256C23.877167999999998 17.584680000000002 23.079 16.60188 22.128648000000002 15.4416L20.400768000000003 13.332 20.466383999999998 13.28448C20.50248 13.258344000000001 20.614056 13.1556 20.714376 13.056144C21.016920000000002 12.756192 21.163680000000003 12.3696 21.136992 11.942904C21.12012 11.673024 21.111192000000003 11.645952 20.58336 10.26324C20.115576 9.0378 20.099520000000002 9.007848000000001 19.836672 8.870184C19.712136 8.804976 19.671623999999998 8.796048 19.501512 8.79636C19.355688 8.796624 19.280664 8.809272 19.197072000000002 8.847648C18.857136 9.00372 18.669384 9.408792 18.780408 9.746592C18.803808 9.817776 19.005336 10.355688 19.228272 10.942008C19.518408 11.705016 19.62624 12.015384000000001 19.607736000000003 12.034008C19.593504 12.048288 19.399008000000002 12.1788 19.175544 12.324C17.493192 13.417128000000002 17.512296 13.40352 17.419944 13.573872C17.380128000000003 13.647336000000001 17.237016 14.131584000000002 17.041512 14.854439999999999C16.868592 15.493800000000002 16.722264 16.021728 16.71636 16.027632C16.710456 16.033535999999998 16.161648000000003 16.011 15.496800000000002 15.977544C14.679072000000001 15.936383999999999 14.250504 15.923712000000002 14.172096000000002 15.938352C13.975824000000001 15.975024 14.022072000000001 15.941304 12.649536 17.048448L11.999376 17.572896 11.825688000000001 17.432856C11.730168 17.35584 11.307528 17.01396 10.886496 16.673112C10.465463999999999 16.332264 10.080336 16.032648000000002 10.030632 16.007304C9.843912000000001 15.912047999999999 9.788304 15.910848 8.5116 15.974424C7.840368000000001 16.007856 7.2874799999999995 16.031472 7.28292 16.026936C7.278384000000001 16.022376 7.1328 15.495168 6.959424 14.855328C6.645408 13.696488 6.587472 13.528848 6.459143999999999 13.40808C6.408192 13.360104000000002 5.09604 12.489936 4.506 12.1128C4.430112 12.064295999999999 4.368 12.019152 4.368 12.012504C4.368 12.005856000000001 4.558032 11.501327999999999 4.79028 10.891368C5.022528 10.281384000000001 5.224392 9.725952 5.23884 9.657048C5.258568 9.563016000000001 5.2578 9.499896 5.235768 9.403896C5.21964 9.333552000000001 5.016264 8.775864 4.783824 8.164584C4.548216 7.5449280000000005 4.370688 7.045007999999999 4.3826160000000005 7.034712C4.394376 7.024536 4.855128 6.721488000000001 5.406504 6.361248000000001C6.088920000000001 5.915376 6.439056 5.672088 6.503159999999999 5.599272C6.620328 5.466144 6.625368000000001 5.450664 6.985296 4.116C7.145496 3.5220000000000002 7.2782160000000005 3.0342960000000003 7.280280000000001 3.0322080000000002C7.28232 3.03012 7.7754 3.055008 8.376 3.087528C9.686592000000001 3.1584960000000004 9.852312 3.1561440000000003 10.02 3.0641040000000004C10.086 3.027864 10.5558 2.664 11.064 2.25552C11.5722 1.8470160000000002 11.99628 1.515384 12.006384 1.518528C12.016488 1.521672 12.440664 1.858992 12.949008000000001 2.26812C13.457351999999998 2.677248 13.923504 3.03876 13.984944 3.071448C14.129064000000001 3.1482000000000006 14.365008000000001 3.164568 14.55036 3.110664C14.714304 3.063 14.889864 2.9114400000000002 14.988528000000002 2.732352C15.051408000000002 2.618208 15.059184 2.581416 15.058656 2.4C15.057936 2.15304 14.997552 2.015208 14.816400000000002 1.8469440000000001C14.605176 1.6507440000000002 12.91224 0.301848 12.760968 0.209232C12.542928 0.07572 12.3444 0.019968 12.048 0.009024C11.850311999999999 0.001728 11.758248 0.009936 11.620848 0.047064M17.832 4.5209280000000005C17.7594 4.536816 17.6676 4.570056 17.628 4.594824C17.5884 4.619592 16.305984000000002 5.888064000000001 14.778192 7.413696L12.000384 10.187544 11.094192 9.282936C10.045248 8.235816 10.053864 8.242175999999999 9.711552000000001 8.260968C9.48408 8.273472 9.371976 8.321688 9.222264000000001 8.471376C9.06336 8.63028 9.012 8.759424000000001 9.012 9C9.012 9.330432 9.003048 9.318504 10.017864 10.339944000000001C10.50744 10.832712 10.97424 11.288952 11.055192 11.353776C11.339447999999999 11.58144 11.639088 11.68716 12 11.68716C12.361176 11.68716 12.661056 11.581272 12.944808 11.353512C13.02576 11.288544 14.340816 9.984528 15.867168 8.45568C18.522672 5.795832 18.64452 5.67 18.693168 5.537088C18.86232 5.0749200000000005 18.60288 4.601088 18.133152 4.514232C18.055056 4.499808 17.985072000000002 4.488912 17.977584 4.490016C17.97012 4.49112 17.9046 4.505016 17.832 4.5209280000000005M3.4956479999999996 15.830712000000002C2.745264 16.748448 2.135064 17.50224 2.139648 17.50584C2.144256 17.509439999999998 2.73096 17.628528000000003 3.4434960000000006 17.770488C4.20324 17.92188 4.77612 18.047568 4.828824 18.074448C4.957032 18.139872 5.080896 18.254928 5.1462 18.369287999999997C5.177208 18.423576 5.42784 19.145688 5.703144 19.974C5.978448 20.802312 6.2091840000000005 21.479808 6.2158560000000005 21.479592C6.235320000000001 21.478920000000002 8.740152 17.492160000000002 8.728463999999999 17.480472C8.722631999999999 17.47464 8.389848 17.487192 7.9889280000000005 17.508384C7.588032 17.529552000000002 7.195200000000001 17.539800000000003 7.1160000000000005 17.53116C6.625296 17.477616 6.152256 17.152079999999998 5.9418239999999996 16.723104000000003C5.864592 16.565712 5.73576 16.119888 5.3292720000000005 14.603376L5.277648 14.410752 5.077896 14.285376000000001C4.968024000000001 14.216424 4.874064000000001 14.16048 4.869072 14.161056C4.8640799999999995 14.161631999999999 4.246056 14.912976 3.4956479999999996 15.830712000000002M18.919680000000003 14.291160000000001C18.81192 14.363304000000001 18.71784 14.441591999999998 18.710616 14.465160000000001C18.703368 14.488728 18.573 14.967 18.420888 15.528C18.227520000000002 16.241112 18.118416 16.60068 18.058296 16.723104000000003C17.95392 16.9356 17.74008 17.171232 17.5362 17.298432000000002C17.147136000000003 17.54112 16.986288 17.563632 16.009128 17.5122C15.607175999999999 17.491032 15.274368 17.477616 15.269616000000001 17.482392C15.259176 17.492832 17.766768000000003 21.478991999999998 17.784144 21.479592C17.790816 21.479808 18.021552 20.802312 18.296856000000002 19.974C18.57216 19.145688 18.822792 18.423576 18.853800000000003 18.369287999999997C18.919104 18.254928 19.042968000000002 18.139872 19.171176 18.074448C19.22388 18.047568 19.79676 17.92188 20.556504 17.770488C21.26904 17.628528000000003 21.85548 17.509704 21.859752 17.506439999999998C21.869328 17.499096 19.144752 14.162927999999999 19.127784 14.161224C19.121064 14.160552000000001 19.027416 14.219016 18.919680000000003 14.291160000000001M0.007872 17.988C0.007992 18.0804 0.012312 18.115248 0.01752 18.065472C0.022704 18.015672000000002 0.022632 17.940072 0.017328 17.897472C0.012024 17.854848 0.007776000000000001 17.895599999999998 0.007872 17.988" stroke="none" fill="currentColor" fill-rule="evenodd"></path></svg>