<svg xmlns="http://www.w3.org/2000/svg" viewBox="0 0 24 24" id="Emoji-Great--Streamline-Ultimate.svg"><path d="M11.928 0.024576C8.2206 0.3084 4.9506000000000006 2.32152 3.053616 5.48796C2.803872 5.904816 2.595648 6.317880000000001 2.5547519999999997 6.477552000000001C2.398056 7.089192 3.039696 7.597055999999999 3.616416 7.317864C3.7846080000000004 7.236432 3.884712 7.116072 4.05612 6.789096000000001C4.773096 5.421456 5.686848 4.342056 6.880007999999999 3.4532399999999996C8.30004 2.395416 9.811272 1.7944799999999999 11.621039999999999 1.5679679999999998C12.113904 1.506288 13.384535999999999 1.5064080000000002 13.86 1.5681839999999998C14.560632 1.65924 15.148008 1.792416 15.780000000000001 2.00352C18.276336 2.8374 20.270184 4.57008 21.455976 6.936C22.225344 8.471064 22.584048 10.375464 22.427856000000002 12.096C22.299167999999998 13.513608 21.883968 14.830224000000001 21.16008 16.116C20.070768 18.05088 18.17304 19.644456 16.044 20.412167999999998C15.43248 20.63268 14.918064000000001 20.76264 14.18856 20.880984C13.946856 20.920199999999998 13.714656 20.96976 13.67256 20.99112C13.532904 21.062016 13.403496 21.18492 13.331304000000001 21.315264C13.26624 21.43272 13.26 21.463992 13.260072000000001 21.672C13.26012 21.862488 13.269024 21.916680000000003 13.314216 22.001328C13.399968 22.162032 13.503744 22.264128 13.661328 22.342872C13.841111999999999 22.432704 14.00304 22.438056 14.448 22.368816C17.729136 21.858264 20.644728 19.900824 22.349448 17.064C23.642856000000002 14.911680000000002 24.177768 12.439319999999999 23.890488 9.941232000000001C23.691264 8.208648 23.084328 6.546143999999999 22.109976 5.064C20.491224000000003 2.601648 17.950704 0.8620559999999999 15.084696000000001 0.25356C14.286336 0.084048 13.735752 0.023952 12.876 0.012432C12.506400000000001 0.007488 12.0798 0.012936000000000001 11.928 0.024576M19.542024 7.978872C19.338504 8.025144 19.167168 8.12208 19.008623999999998 8.280624C18.85548 8.433768 18.760991999999998 8.59644 18.708792000000003 8.796840000000001C18.523728000000002 9.507311999999999 19.061328 10.200000000000001 19.797792 10.200000000000001C20.201088 10.200000000000001 20.535048 10.014552 20.762688 9.664200000000001C20.935104000000003 9.398808 20.973432000000003 8.993544 20.855736 8.680223999999999C20.743944000000003 8.382648 20.439432 8.089416 20.153688 8.004168C19.970592 7.949568000000001 19.717056 7.939080000000001 19.542024 7.978872M9.5172 8.486544C9.171864 8.57004 8.8488 8.87004 8.731656000000001 9.216000000000001C8.663472 9.417384 8.65968 9.720288 8.722848 9.91872C8.820960000000001 10.226832 9.09672 10.517256 9.400224 10.63212C9.692976000000002 10.742904 10.088856000000002 10.715472 10.3434 10.566792000000001C10.537152 10.453632 10.723248 10.25412 10.817136 10.058952C10.891752 9.903816 10.90464 9.850488 10.914864 9.6552C10.929359999999999 9.378096000000001 10.881864 9.179784 10.753464 8.981304C10.478832 8.556768 10.007232 8.368032 9.5172 8.486544M2.803536 9.67224C2.5572 9.711336000000001 2.3673840000000004 9.769992 2.139552 9.877416C1.8436560000000002 10.016976000000001 1.6579679999999999 10.152552 1.426512 10.398096C1.049496 10.798032000000001 0.8439119999999999 11.26716 0.8021999999999999 11.822688000000001C0.774096 12.197016 0.8169360000000001 12.405192000000001 1.105392 13.296000000000001C1.248552 13.738199999999999 1.3878000000000001 14.163696 1.414776 14.241528L1.463832 14.383056 1.27332 14.581512C0.268704 15.627936 -0.17155199999999998 17.158776 0.120168 18.59124C0.217704 19.070208 0.8600639999999999 21.014784 1.054608 21.42C1.50792 22.364208 2.2367280000000003 23.093328 3.18 23.54628C3.536688 23.717568 3.799608 23.809968 4.1538960000000005 23.888544C4.864488000000001 24.046152 5.584176 24.03516 6.273432 23.856168C6.7434959999999995 23.734104000000002 8.83032 23.030496000000003 9.046968 22.921032C10.128888 22.374336 10.842336000000001 21.454871999999998 11.09316 20.28396C11.140416 20.063424 11.148 19.958232 11.148 19.524C11.148 19.083696 11.14092 18.988152 11.091912 18.768C11.0364 18.518520000000002 9.42156 13.594776 9.281544 13.248000000000001C9.008808 12.572591999999998 8.372928 12.112824000000002 7.6326 12.055728C7.347216 12.033719999999999 7.137072 12.078192 6.410064 12.314376000000001C6.048192 12.431928 5.749968 12.525383999999999 5.747352 12.522072000000001C5.744712 12.518736 5.64252 12.2136 5.520216 11.844C5.397936 11.474400000000001 5.262264 11.093952 5.218752 10.998552C4.96812 10.449096 4.4591520000000004 9.985776000000001 3.888528 9.787632C3.569664 9.676896000000001 3.0932880000000003 9.626232 2.803536 9.67224M2.8768800000000003 11.19612C2.518128 11.311224 2.2794 11.664336 2.310264 12.034272C2.318016 12.127104 2.403264 12.424944 2.545128 12.854736L2.7678000000000003 13.529471999999998 2.901912 13.475783999999999C2.975664 13.446264 3.322896 13.327056 3.673536 13.210872L4.311071999999999 12.999648 4.099272 12.350832000000002C3.982752 11.993976 3.865512 11.656704000000001 3.838728 11.60136C3.7760160000000003 11.471856 3.5818800000000004 11.290560000000001 3.4372080000000005 11.226408C3.29184 11.161968 3.02784 11.147688 2.8768800000000003 11.19612M12.109584 11.750448C11.356152 11.93268 10.834007999999999 12.694584 10.944023999999999 13.451208C11.004552 13.867392 11.288904 14.558664 11.586024 15.012C12.06924 15.749208 12.710040000000001 16.316304 13.5 16.705776C14.192160000000001 17.047056 14.900400000000001 17.210832 15.684000000000001 17.210832C16.928064 17.210832 18.037248 16.783344 18.979152 15.940920000000002C19.60944 15.377184 20.174496 14.448024 20.376072 13.643856000000001C20.503800000000002 13.134288 20.372784 12.603312 20.024304 12.218232C19.816272 11.988336 19.50036 11.803992000000001 19.2 11.7372C19.130544 11.721744000000001 17.871144 11.71368 15.672 11.714592C12.786312 11.715768 12.229752 11.721384 12.109584 11.750448M12.458616000000001 13.221888000000002C12.430871999999999 13.239456 12.436392 13.276992 12.491208 13.443503999999999C12.814800000000002 14.426544 13.622712000000002 15.224784 14.609664 15.536567999999999C15.004176 15.6612 15.271368 15.703368000000001 15.672 15.704232C16.087128 15.705143999999999 16.353816000000002 15.665160000000002 16.715568 15.547728000000001C17.45412 15.308040000000002 18.079272 14.832336 18.496128000000002 14.192832000000001C18.722904 13.844928 18.96084 13.28244 18.90492 13.22652C18.872088 13.193688 12.510336 13.189128 12.458616000000001 13.221888000000002M7.224 13.632192000000002C7.1118 13.669800000000002 6.2262 13.961568 5.256 14.280528000000002C4.2858 14.599488000000001 3.40044 14.903112 3.288528 14.95524C1.973424 15.567816 1.273464 17.042112 1.632048 18.444216C1.657608 18.544128 1.821 19.060152000000002 1.995168 19.590936C2.413848 20.866992 2.545128 21.129816 2.994264 21.591216C3.38124 21.988752 3.8622000000000005 22.259712 4.4507520000000005 22.411728C4.667088 22.4676 4.73784 22.474152 5.136 22.475016C5.48616 22.475784 5.620584 22.466592 5.772 22.431456C5.9796000000000005 22.383312 8.027304 21.71532 8.291352 21.6096C8.62044 21.477864 8.98644 21.189768 9.212592 20.884464C9.526272 20.461008 9.701496 19.871856 9.658992000000001 19.383648C9.62904 19.039800000000003 9.756432 19.03056 8.616 19.459176C7.709808000000001 19.799736000000003 7.60344 19.834368 7.436424 19.843176C7.275767999999999 19.851648 7.23456 19.844664 7.106472 19.787184C6.775704000000001 19.638744 6.594936 19.276248000000002 6.682080000000001 18.936144C6.742344 18.70092 6.870648 18.537888000000002 7.077216000000001 18.434088C7.1249519999999995 18.410088000000002 7.6068 18.225168 8.148 18.023136C8.6892 17.821104000000002 9.136656 17.652096 9.142344 17.647560000000002C9.155376 17.637168 8.689584 16.195056 8.664528 16.168224000000002C8.654376 16.157352 8.193792 16.323936 7.641024 16.5384C7.088256 16.752864 6.575544 16.941312 6.501647999999999 16.957152C6.2412 17.013024 5.977944 16.92528 5.794776000000001 16.721591999999998C5.471856 16.362408000000002 5.58456 15.771504 6.016920000000001 15.556872C6.067008 15.531984000000001 6.562176 15.336383999999999 7.117272 15.122160000000001C7.672392 14.907936 8.139384000000002 14.724744 8.15508 14.715048C8.17572 14.702280000000002 8.140656 14.568984000000002 8.02812 14.23236C7.863936 13.741248 7.81692 13.659 7.662768 13.593048C7.552416000000001 13.545816 7.455888 13.554432 7.224 13.632192000000002" stroke="none" fill="currentColor" fill-rule="evenodd"></path></svg>