<svg xmlns="http://www.w3.org/2000/svg" viewBox="0 0 24 24" id="Real-Estate-Deal-Shake-Building--Streamline-Ultimate.svg"><path d="M4.0200000000000005 0.037848C3.487848 0.155544 3.108312 0.498792 2.894832 1.055472L2.844 1.188 2.837616 5.530656C2.830488 10.379232 2.816904 9.98952 3.001056 10.222488C3.180048 10.448904 3.511536 10.549104 3.808992 10.466688000000001C4.000272 10.413672 4.238664 10.180824000000001 4.297608 9.989400000000002C4.312752000000001 9.940224 4.33068 9.697728 4.337448 9.450504L4.349760000000001 9.000984 5.938608 8.994504000000001L7.527431999999999 8.988 7.668336 8.915928000000001C7.83396 8.831208 7.9991520000000005 8.643888 8.0436 8.490359999999999C8.15268 8.113488 7.982112000000001 7.729032 7.632000000000001 7.562712L7.5 7.5 5.922 7.492871999999999L4.344 7.485744 4.344 6.744024L4.344 6.00228 5.19 5.995152L6.0360000000000005 5.988 6.152712 5.928384C6.311256 5.847408 6.489719999999999 5.647344 6.540935999999999 5.4931920000000005C6.632808000000001 5.216568 6.541944000000001 4.873848 6.328248 4.69092C6.11232 4.50612 6.001896 4.4883120000000005 5.07 4.488144L4.344 4.488 4.344 3.010008C4.344 2.1432960000000003 4.352952 1.535304 4.365624 1.540008C4.377504 1.5444 6.223751999999999 2.4983999999999997 8.4684 3.66L12.549552 5.772 12.556776 7.476C12.563927999999999 9.164088 12.56448 9.181056 12.615863999999998 9.292224C12.685560000000002 9.44304 12.835560000000001 9.601152 12.976392 9.672264C13.129344000000001 9.749496 13.386792 9.765528 13.558464 9.708504000000001C13.721544 9.654336 13.920432000000002 9.471096000000001 13.994832000000002 9.30648C14.051015999999999 9.182184000000001 14.05212 9.1656 14.059152000000001 8.346L14.066304 7.5120000000000005 16.783152 7.51224L19.5 7.51248 19.62336 7.569912C19.87368 7.686456000000001 20.020224000000002 7.8798960000000005 20.064912 8.152728C20.077464000000003 8.229336 20.087784 8.492784 20.087856000000002 8.738159999999999L20.088 9.184344 20.161128 9.330672C20.239872 9.488256 20.341968 9.592032 20.502672 9.677783999999999C20.587368 9.723 20.64144 9.731856 20.832 9.731856C21.0246 9.731856 21.076248 9.723216 21.164712 9.676055999999999C21.321456 9.592536 21.46932 9.427224 21.5286 9.269304C21.577752 9.138384 21.579648000000002 9.101904 21.569736000000002 8.484C21.55788 7.745159999999999 21.540888000000002 7.651656000000001 21.347256 7.26C21.051432000000002 6.661608 20.569824 6.267912000000001 19.884 6.06384C19.718591999999997 6.014616 19.672392 6.013728 16.893552 6.006264L14.071128000000002 5.99868 14.057160000000001 5.741328C14.049072 5.591904 14.023704 5.421864 13.996704000000001 5.335824C13.897392 5.019552 13.661351999999999 4.695816 13.415040000000001 4.538016C13.341168 4.490712 12.62088 4.1118 11.814408 3.696L10.348080000000001 2.94 10.34004 1.764L10.332 0.588 10.26804 0.451536C10.18476 0.273912 10.013088 0.110472 9.84192 0.045816C9.66804 -0.019823999999999998 9.415056 -0.009192 9.260592 0.070248C9.120384000000001 0.142344 8.971584 0.290424 8.901456 0.427608C8.844719999999999 0.53856 8.843904 0.550152 8.837088 1.338C8.833272000000001 1.7768880000000002 8.823912 2.136 8.81628 2.136C8.808648 2.136 7.913568000000001 1.676256 6.827208 1.114368C5.740848 0.552456 4.794408 0.07692 4.724016 0.057648000000000005C4.526616000000001 0.003552 4.21476 -0.005208 4.0200000000000005 0.037848M13.872 10.513824000000001C13.584312 10.538496 13.226351999999999 10.631376 12.948 10.753584C12.829199999999998 10.805736 12.246624 11.084472 11.653392 11.372952L10.574784 11.897496 10.44468 11.814288C9.842544 11.429088 9.055032 11.311704 8.316 11.496936C8.202552 11.525376 7.481952 11.819952 6.554495999999999 12.217032C5.691264 12.586608 4.983192000000001 12.886056 4.980984 12.88248C4.73112 12.476016 4.333152 12.131472 3.936 11.977872C3.575808 11.838528 3.498432 11.832 2.209272 11.832C0.88932 11.832 0.904224 11.830248000000001 0.683856 12.010824000000001C0.39820799999999995 12.244896 0.33876 12.723072000000002 0.5593440000000001 13.012296C0.65664 13.139856000000002 0.8134080000000001 13.261008 0.9306 13.299216000000001C0.9930720000000001 13.319591999999998 1.370616 13.332528000000002 2.184 13.342176C3.4670400000000003 13.357415999999999 3.4107600000000002 13.350456000000001 3.574152 13.513848C3.745968 13.685664 3.731256 13.355496 3.738624 17.208000000000002C3.744672 20.381496000000002 3.7418880000000003 20.68488 3.705672 20.78052C3.655272 20.913672000000002 3.547584 21.03636 3.42228 21.103416C3.325944 21.154968 3.30072 21.15624 2.148 21.168C0.8167679999999999 21.181584 0.8646 21.17472 0.651624 21.382656C0.49984800000000007 21.530832 0.426672 21.70608 0.426672 21.921336C0.426672 22.149816 0.492336 22.303296 0.65652 22.4586C0.882936 22.672728 0.84768 22.668 2.22 22.668C3.299016 22.668 3.4388880000000004 22.66356 3.6074640000000002 22.624032C4.153152 22.496064 4.61436 22.176456 4.907688 21.723048C4.969176 21.627959999999998 5.0408159999999995 21.501984 5.06688 21.443088L5.114256 21.336000000000002 5.611128 21.336503999999998L6.1080000000000005 21.337032 7.561704000000001 22.470504C8.361264 23.093928 9.073296 23.65068 9.144048 23.707728C9.290376 23.825736000000003 9.408432 23.890224 9.596592000000001 23.954952000000002C9.705504000000001 23.99244 9.799392 24 10.155216000000001 24C10.552776 24 10.594128000000001 23.995776 10.742112 23.940072C10.829688 23.90712 10.973016 23.831904 11.060664 23.772936C11.148288 23.713968 11.911056 23.110248000000002 12.755688 22.431312000000002L14.291352 21.196872 16.295688 20.796696C17.398056 20.576616 18.322848 20.391096 18.350784 20.384472C18.399216 20.372976 18.402336000000002 20.383896 18.41844 20.6202C18.440112 20.938512 18.482208 21.1416 18.574152 21.371232C18.795792000000002 21.92472 19.269336 22.369392 19.838808 22.558752C20.168112 22.66824 20.403456000000002 22.68384 21.6 22.675464C22.767048 22.667304 22.729968 22.671576 22.949688 22.519848C23.146079999999998 22.384224000000003 23.280312000000002 22.064952 23.244312 21.819144C23.205288 21.55272 23.01348 21.311400000000003 22.767672 21.219432C22.634424 21.169584 22.595736000000002 21.167976 21.509088 21.167472C20.433168 21.166968 20.383656 21.164976 20.28 21.118056C20.146848000000002 21.057792 20.051616000000003 20.969664 19.983792 20.844L19.932000000000002 20.748 19.924632 17.328C19.919424 14.91096 19.924968 13.872048 19.943568 13.785432C19.979328 13.618992 20.085936 13.481280000000002 20.237496 13.405752L20.361432 13.344 21.406704 13.343808C22.478160000000003 13.34364 22.687896 13.329863999999999 22.844904 13.249368C22.975104 13.182599999999999 23.110944 13.03632 23.180448 12.888C23.261856 12.714264 23.26668 12.451464000000001 23.191512 12.285072C23.123256 12.133944000000001 22.983576 11.985216000000001 22.837512 11.908128000000001L22.716 11.844 21.504 11.837088C20.465448 11.831184 20.26452 11.83572 20.1 11.868888C19.861824000000002 11.916864 19.59444 12.021792000000001 19.398792 12.144048L19.249584000000002 12.237264000000001 17.214792 11.456328C16.095648 11.0268 15.1152 10.655256 15.036 10.630656C14.710248 10.529472 14.240015999999999 10.482288 13.872 10.513824000000001M13.856736000000001 12.034272C13.650288 12.08136 13.528704000000001 12.13632 12.210528 12.778368C11.066400000000002 13.335648 10.77348 13.495296 10.68324 13.610832000000002C10.600200000000001 13.717176 10.538088 13.865544 10.513992 14.015136000000002C10.42524 14.566296 10.900032 15.047328 11.46 14.973576C11.533104 14.963952 12.114696 14.738807999999999 12.948 14.397576C14.31096 13.839432 14.316672 13.837368000000001 14.496 13.836839999999999C14.712696000000001 13.836216 14.89212 13.90884 15.034056 14.054664C15.35184 14.381160000000001 15.309816 14.915928 14.945256000000002 15.184968C14.905776 15.21408 14.7402 15.293807999999999 14.577264 15.362088C14.414352 15.430392 14.287344000000001 15.496488000000001 14.295072000000001 15.508968C14.302800000000001 15.521472 14.693040000000002 15.954768000000001 15.162312000000002 16.471848C16.196472 17.611392 16.253712 17.679503999999998 16.35672 17.892672C16.519632 18.229824 16.562208 18.667224 16.467624 19.032C16.441944 19.131 16.425192000000003 19.216464000000002 16.430376000000003 19.221912C16.435584000000002 19.22736 16.882176 19.141872 17.422824000000002 19.031952L18.40584 18.832079999999998 18.412992 16.22604C18.416928 14.792712000000002 18.428376 13.603704 18.438408000000003 13.583808C18.453336 13.554216 18.10512 13.413143999999999 16.530336000000002 12.810672C15.470856000000001 12.40536 14.560584 12.062808 14.507544 12.04944C14.334576 12.005856000000001 14.014056 11.998392 13.856736000000001 12.034272M8.772 12.935448C8.620824 12.969144 8.590416000000001 12.981672000000001 6.879216 13.716000000000001L5.257296 14.412 5.256648 17.116560000000003L5.256 19.821144 5.898 19.828560000000003L6.54 19.836000000000002 6.672 19.901712000000003C6.774384 19.952664 9.643176 22.162728 10.005792000000001 22.47C10.050048 22.507488000000002 10.112496 22.536 10.150416000000002 22.536C10.20252 22.536 10.542432 22.275168 11.702568000000001 21.345024C12.519552000000001 20.689992 13.2474 20.095608000000002 13.32 20.024184C13.3926 19.95276 13.497216 19.868712000000002 13.552464 19.837416C13.707936 19.749384 14.978472 18.716808 15.006192 18.655968C15.024648000000001 18.61548 15.021768000000002 18.588144 14.994624 18.546744C14.952432000000002 18.482352 12.829656 16.13928 12.792984000000002 16.1166C12.7794 16.1082 12.608927999999999 16.165464 12.414144 16.243824C11.953752 16.429056 11.808048000000001 16.465248000000003 11.46 16.480871999999998C11.11236 16.496472 10.893768 16.466064 10.577712 16.358184C9.95268 16.144872 9.438624 15.665064000000001 9.181728 15.055272C9.03552 14.708184000000001 9.011784 14.576496 9.013896 14.124C9.015624 13.751616000000002 9.02148 13.697280000000001 9.081072 13.501536C9.117 13.383576 9.183552 13.211592 9.229008 13.11936C9.27444 13.027104000000001 9.307488000000001 12.947496000000001 9.302424 12.942432C9.28128 12.921287999999999 8.860416 12.915768000000002 8.772 12.935448" stroke="none" fill="currentColor" fill-rule="evenodd"></path></svg>