<svg xmlns="http://www.w3.org/2000/svg" fill="none" viewBox="0 0 24 24" id="Phone-Actions-Question--Streamline-Ultimate"><desc>    Phone Actions Question Streamline Icon: https://streamlinehq.com  </desc><path stroke="currentColor" stroke-linecap="round" stroke-linejoin="round" d="M7.471 12.2832c-0.28121 -0.2813 -0.43918 -0.6628 -0.43918 -1.0605 0 -0.3978 0.15797 -0.7792 0.43918 -1.0605v0c0.13939 -0.1393 0.24996 -0.30471 0.32541 -0.48676 0.07544 -0.18205 0.11427 -0.37718 0.11427 -0.57425 0 -0.19706 -0.03883 -0.39219 -0.11427 -0.57424 -0.07545 -0.18206 -0.18602 -0.34746 -0.32541 -0.48676l-2.652 -2.651c-0.28129 -0.2812 -0.66276 -0.43918 -1.0605 -0.43918 -0.39775 0 -0.77921 0.15798 -1.0605 0.43918l-0.63 0.629C1.34359 6.74237 0.887919 7.69202 0.77628 8.71023c-0.111639 1.0182 0.127435 2.04407 0.67772 2.90797l0.006 0.01c2.90618 4.2998 6.60968 8.0026 10.91 10.908l0.01 0.007c0.864 0.5502 1.8899 0.7891 2.9081 0.6772 1.0183 -0.1118 1.9678 -0.5676 2.6919 -1.2922l0.629 -0.629c0.1394 -0.1393 0.25 -0.3047 0.3254 -0.4868 0.0754 -0.182 0.1143 -0.3771 0.1143 -0.5742 0 -0.1971 -0.0389 -0.3922 -0.1143 -0.5743 -0.0754 -0.182 -0.186 -0.3474 -0.3254 -0.4867l-2.653 -2.651c-0.1393 -0.1394 -0.3047 -0.25 -0.4868 -0.3254 -0.182 -0.0755 -0.3771 -0.1143 -0.5742 -0.1143 -0.1971 0 -0.3922 0.0388 -0.5742 0.1143 -0.1821 0.0754 -0.3475 0.186 -0.4868 0.3254 -0.2813 0.2812 -0.6628 0.4392 -1.0605 0.4392 -0.3977 0 -0.7792 -0.158 -1.0605 -0.4392" stroke-width="1.5"></path><path stroke="currentColor" d="M17.25 9.375c-0.2071 0 -0.375 -0.16789 -0.375 -0.375s0.1679 -0.375 0.375 -0.375" stroke-width="1.5"></path><path stroke="currentColor" d="M17.25 9.375c0.2071 0 0.375 -0.16789 0.375 -0.375s-0.1679 -0.375 -0.375 -0.375" stroke-width="1.5"></path><path stroke="currentColor" stroke-linecap="round" stroke-linejoin="round" d="M17.25 0.75c-1.0473 0.000058 -2.0764 0.27427 -2.9849 0.79536 -0.9085 0.5211 -1.6648 1.27093 -2.1937 2.17493 -0.5288 0.90401 -0.8118 1.9307 -0.8208 2.978 -0.0091 1.0473 0.2562 2.07872 0.7694 2.99171l-1.52 4.56 4.426 -1.967c0.819 0.3435 1.7041 0.501 2.5914 0.4609 0.8873 -0.0401 1.7546 -0.2766 2.5393 -0.6926 0.7848 -0.4159 1.4674 -1.0009 1.9986 -1.7127 0.5312 -0.71184 0.8978 -1.5327 1.0732 -2.40337 0.1755 -0.87067 0.1554 -1.76944 -0.0586 -2.63143 -0.2141 -0.86198 -0.6169 -1.66569 -1.1793 -2.35311 -0.5624 -0.68742 -1.2704 -1.24141 -2.0729 -1.62198C19.0152 0.948138 18.1382 0.75048 17.25 0.75v0Z" stroke-width="1.5"></path><path stroke="currentColor" stroke-linecap="round" stroke-linejoin="round" d="M15.75 5.25c0 -0.29667 0.088 -0.58668 0.2528 -0.83335 0.1648 -0.24668 0.3991 -0.43894 0.6732 -0.55247 0.2741 -0.11353 0.5757 -0.14324 0.8666 -0.08536 0.291 0.05788 0.5583 0.20074 0.7681 0.41052 0.2097 0.20978 0.3526 0.47705 0.4105 0.76803 0.0579 0.29097 0.0281 0.59257 -0.0854 0.86666 -0.1135 0.27408 -0.3058 0.50835 -0.5524 0.67317 -0.2467 0.16483 -0.5367 0.2528 -0.8334 0.2528" stroke-width="1.5"></path></svg>