<svg xmlns="http://www.w3.org/2000/svg" xmlns:xlink="http://www.w3.org/1999/xlink" width="130px" height="24px" viewBox="0 0 130 24"><title>Group 18 Copy 7</title><defs><polygon id="path-1" points="0 0 15.146789 0 15.146789 16.5779817 0 16.5779817"></polygon></defs><g id="Page-1" stroke="none" stroke-width="1" fill="none" fill-rule="evenodd"><g id="Group-18-Copy-7"><path d="M10.5550459,0 C4.72556685,0 0,4.72884076 0,10.5623585 C0,18.7019751 10.5550459,23.2568807 10.5550459,23.2568807 C10.5550459,23.2568807 21.1100917,18.8515525 21.1100917,10.5623585 C21.1100917,4.72884076 16.3845249,0 10.5550459,0 M10.5550459,1.37226952 C15.6189858,1.37226952 19.7387723,5.49491022 19.7387723,10.5623585 C19.7387723,16.8229951 12.5969405,20.7504305 10.5619025,21.7422383 C8.5224076,20.7274449 1.37131946,16.7272793 1.37131946,10.5623585 C1.37131946,5.49491022 5.49110594,1.37226952 10.5550459,1.37226952" id="Fill-1" fill="#FFCB3D"></path><path d="M10.5550459,14.3119266 C8.54593976,14.3119266 6.91743119,12.683418 6.91743119,10.6743119 C6.91743119,8.66520581 8.54593976,7.03669725 10.5550459,7.03669725 C12.564152,7.03669725 14.1926606,8.66520581 14.1926606,10.6743119 C14.1926606,12.683418 12.564152,14.3119266 10.5550459,14.3119266" id="Fill-3" fill="#FFCB3D"></path><path d="M27.4311927,0.834862385 L31.4702751,0.834862385 L31.4702751,8.68641332 C31.4702751,9.48437565 31.4069773,10.0588124 31.4069773,10.0588124 L31.4702751,10.0588124 C32.2657742,8.49481996 34.2375854,6.83537422 37.0678514,6.83537422 C40.6617965,6.83537422 42.6972477,8.71834555 42.6972477,13.0271361 L42.6972477,23.4954128 L38.6896431,23.4954128 L38.6896431,13.8566873 C38.6896431,11.8779192 38.1815501,10.5374524 36.1135947,10.5374524 C33.9830257,10.5374524 32.3294141,11.9417837 31.7251769,13.9205517 C31.533915,14.5588529 31.4702751,15.2613619 31.4702751,16.0270486 L31.4702751,23.4954128 L27.4311927,23.4954128 L27.4311927,0.834862385 Z" id="Fill-5" fill="#21242E"></path><path d="M53.4474883,20.4038566 C56.062344,20.4038566 58.2624319,18.3598074 58.2624319,15.3255163 C58.2624319,12.3231795 56.062344,10.247176 53.4474883,10.247176 C50.8000413,10.247176 48.5999534,12.3231795 48.5999534,15.3255163 C48.5999534,18.3598074 50.8000413,20.4038566 53.4474883,20.4038566 M53.414897,6.79816514 C58.3900528,6.79816514 62.3761468,10.3433827 62.3761468,15.3255163 C62.3761468,20.3399478 58.3900528,23.853211 53.4474883,23.853211 C48.4726756,23.853211 44.4862385,20.3399478 44.4862385,15.3255163 C44.4862385,10.3433827 48.4726756,6.79816514 53.414897,6.79816514" id="Fill-7" fill="#21242E"></path><g id="Group-11" transform="translate(64.045872, 7.275229)"><mask id="mask-2" fill="white"><use xlink:href="#path-1"></use></mask><g id="Clip-10"></g><path d="M0,0 L4.04112921,0 L4.04112921,9.59093496 C4.04112921,11.5602335 4.55050661,12.8940541 6.55515317,12.8940541 C9.48270395,12.8940541 11.1053175,10.321393 11.1053175,7.43167631 L11.1053175,0 L15.146789,0 L15.146789,16.1968315 L11.2641556,16.1968315 L11.2641556,14.3549702 C11.2641556,13.7194922 11.3278278,13.2114514 11.3278278,13.2114514 L11.2641556,13.2114514 C10.4685957,14.8947849 8.40027697,16.5781183 5.63224895,16.5781183 C2.16348468,16.5781183 0,14.8312371 0,10.4167147 L0,0 Z" id="Fill-9" fill="#21242E" mask="url(#mask-2)"></path></g><path d="M81.9357798,21.3329954 L89.203379,12.2049936 C89.9329384,11.2825447 90.5672487,10.7101199 90.5672487,10.7101199 L90.5672487,10.6464792 C90.5672487,10.6464792 90.0913453,10.7101199 89.076039,10.7101199 L82.2532764,10.7101199 L82.2532764,7.27522936 L96.0258002,7.27522936 L96.0258002,9.4698093 L88.7588838,18.5978111 C88.0286417,19.5199179 87.3625816,20.0926848 87.3625816,20.0926848 L87.3625816,20.1559834 C87.3625816,20.1559834 87.8384851,20.0605223 88.885541,20.0605223 L96.2477064,20.0605223 L96.2477064,23.4954128 L81.9357798,23.4954128 L81.9357798,21.3329954 Z" id="Fill-12" fill="#21242E"></path><path d="M109.330062,13.3134215 C109.266093,11.1099441 107.89179,9.92797582 106.101344,9.92797582 C104.023381,9.92797582 102.584765,11.2054636 102.201639,13.3134215 L109.330062,13.3134215 Z M106.197298,6.79816514 C110.896616,6.79816514 113.422018,10.2155652 113.422018,14.5270005 C113.422018,15.0063161 113.326409,16.0920777 113.326409,16.0920777 L102.073357,16.0920777 C102.329233,18.9346426 104.535134,20.4038566 106.964582,20.4038566 C109.585938,20.4038566 111.663901,18.6154424 111.663901,18.6154424 L113.230455,21.5215725 C113.230455,21.5215725 110.736693,23.853211 106.676722,23.853211 C101.274431,23.853211 97.9174312,19.9564953 97.9174312,15.3255163 C97.9174312,10.3110847 101.3384,6.79816514 106.197298,6.79816514 L106.197298,6.79816514 Z" id="Fill-14" fill="#21242E"></path><path d="M115.688073,21.3329954 L122.95499,12.2049936 C123.685232,11.2825447 124.319542,10.7101199 124.319542,10.7101199 L124.319542,10.6464792 C124.319542,10.6464792 123.843639,10.7101199 122.828333,10.7101199 L116.00557,10.7101199 L116.00557,7.27522936 L129.778094,7.27522936 L129.778094,9.4698093 L122.511177,18.5978111 C121.780935,19.5199179 121.114875,20.0926848 121.114875,20.0926848 L121.114875,20.1559834 C121.114875,20.1559834 121.590779,20.0605223 122.637835,20.0605223 L130,20.0605223 L130,23.4954128 L115.688073,23.4954128 L115.688073,21.3329954 Z" id="Fill-16" fill="#21242E"></path></g></g></svg>