<svg xmlns="http://www.w3.org/2000/svg" viewBox="0 0 24 24"><path d="M3.2760000000000002 0.027432C2.660904 0.10567199999999999 2.013672 0.366552 1.512 0.738456C1.28124 0.909528 0.909528 1.28124 0.738456 1.512C0.35666400000000004 2.027016 0.104136 2.663808 0.024887999999999997 3.3113759999999997C-0.009744000000000001 3.5943599999999996 -0.009744000000000001 20.405640000000002 0.024887999999999997 20.688624C0.104136 21.336192 0.35666400000000004 21.972984 0.738456 22.488C0.909528 22.71876 1.28124 23.090472 1.512 23.261544C2.035992 23.649984000000003 2.678352 23.902176 3.331176 23.975784C3.496872 23.99448 6.241512 23.99988 12.852 23.994576000000002L22.14 23.987112 22.308 23.937096C23.139024 23.689704000000003 23.706408000000003 23.121264 23.934144 22.308C23.975184000000002 22.16136 23.983608 22.022448 24.000384 21.216C24.010944000000002 20.707800000000002 24.018024 16.4904 24.016128000000002 11.844C24.014232 7.1975999999999996 24.006984000000003 3.9252000000000002 24 4.572C23.993016 5.2188 23.98476 5.714112 23.981664 5.672688C23.978544 5.631264 23.948952000000002 5.504016 23.91588 5.38992C23.691167999999998 4.61448 23.083296 4.0233360000000005 22.291632 3.8103360000000004L22.092 3.7566479999999998 14.804712000000002 3.7500240000000002L7.517448 3.743376 7.503048000000001 3.689688C7.495128000000001 3.660168 7.488504000000001 3.578664 7.488336 3.508608C7.487400000000001 3.144864 7.346280000000001 2.5889520000000004 7.143936 2.151912C6.683928000000001 1.15836 5.736192 0.378936 4.657824 0.107352C4.274832 0.010896000000000001 3.6776160000000004 -0.02364 3.2760000000000002 0.027432M3.314712 1.54908C2.86572 1.646472 2.519856 1.828032 2.1993120000000004 2.1345359999999998C1.913496 2.407848 1.717968 2.729664 1.5901680000000002 3.137088L1.524 3.348 1.51776 10.288536L1.51152 17.229048 1.72176 17.096448C2.2054560000000003 16.79136 2.669904 16.618248 3.228 16.535064000000002C3.639576 16.47372 4.280088 16.510152 4.699272 16.618776C5.0571600000000005 16.711512 5.5091280000000005 16.914648 5.817168000000001 17.12124C5.908032 17.182152000000002 5.986464000000001 17.232 5.991504 17.232C5.99652 17.232 5.997648 14.124312000000002 5.993976 10.326L5.987328000000001 3.42 5.932968 3.216C5.858232 2.935632 5.6701440000000005 2.5603200000000004 5.495616 2.34336C5.162784 1.929624 4.636488 1.61952 4.128 1.537512C3.913992 1.5030000000000001 3.4999200000000004 1.50888 3.314712 1.54908M0.011856 12C0.011856 16.719 0.014616 18.649512 0.018000000000000002 16.29C0.021384 13.930512 0.021384 10.069512 0.018000000000000002 7.71C0.014616 5.350512 0.011856 7.281000000000001 0.011856 12M7.5048960000000005 12.953832000000002C7.497648 19.843776 7.492824000000001 20.67216 7.45896 20.844C7.345128000000001 21.421704000000002 7.194192 21.814896 6.91704 22.255848L6.771144 22.488 14.328672000000001 22.488L21.8862 22.488 22.020024 22.437936C22.198608 22.37112 22.37112 22.198608 22.437936 22.020024L22.488 21.8862 22.488 13.872C22.488 5.8947840000000005 22.487784 5.857200000000001 22.439616 5.728464000000001C22.381680000000003 5.573616 22.222296 5.403096 22.061496 5.323896L21.948 5.268 14.730504 5.261832L7.513007999999999 5.255688 7.5048960000000005 12.953832000000002M12.532152 7.5132959999999995C12.209136 7.556256 11.937888 7.692864 11.700000000000001 7.9324319999999995C11.517816 8.115888 11.405784 8.286840000000002 11.321712 8.509632L11.268 8.652000000000001 11.261712000000001 13.324224000000001L11.255400000000002 17.996472 10.769712 18.004224C10.31736 18.011471999999998 10.27692 18.015792 10.18092 18.067032C10.021968 18.151896 9.895944 18.279 9.822816 18.428136000000002C9.73092 18.6156 9.728088 18.890496000000002 9.816264 19.064856000000002C9.895776 19.222104 10.040064000000001 19.362288 10.200000000000001 19.437744L10.332 19.5 15 19.5L19.668 19.5 19.8 19.437744C19.959936 19.362288 20.104224000000002 19.222104 20.183736 19.064856000000002C20.271912 18.890496000000002 20.26908 18.6156 20.177184 18.428136000000002C20.104056 18.279 19.978032 18.151896 19.81908 18.067032C19.72308 18.015768 19.68264 18.011471999999998 19.230192000000002 18.004224L18.744384 17.996472 18.74436 13.392216000000001C18.74436 10.04292 18.736895999999998 8.753088 18.717048 8.659992C18.631032 8.256744000000001 18.30996 7.848816 17.926056 7.655016C17.605704 7.493304 17.759328 7.501872 15.096 7.497288C13.769400000000001 7.494984 12.615672 7.5022079999999995 12.532152 7.5132959999999995M12.744 13.5L12.744 18 15.00024 18L17.25648 18 17.25024 16.878L17.244 15.756 16.008 15.744C14.776632 15.732047999999999 14.771616000000002 15.731784 14.669016 15.677015999999998C14.524992 15.600096 14.382144 15.449928 14.314176 15.303936C14.269368 15.20772 14.25648 15.139728 14.25648 15C14.25648 14.860272 14.269368 14.792280000000002 14.314176 14.696064C14.382144 14.550072000000002 14.524992 14.399904 14.669016 14.322984000000002C14.771616000000002 14.268216 14.776632 14.267952000000001 16.008 14.256L17.244 14.244 17.244 13.5L17.244 12.756 16.008 12.744C14.776632 12.732047999999999 14.771616000000002 12.731784 14.669016 12.677015999999998C14.524992 12.600096 14.382144 12.449928 14.314176 12.303936C14.269368 12.20772 14.25648 12.139728 14.25648 12C14.25648 11.860272 14.269368 11.792280000000002 14.314176 11.696064C14.382144 11.550072 14.524992 11.399904 14.669016 11.322984C14.771616000000002 11.268216 14.776632 11.267952 16.008 11.256L17.244 11.244 17.25024 10.122L17.25648 9 15.00024 9L12.744 9 12.744 13.5M3.451536 18.025872C3.2020799999999996 18.062472 3.0144480000000002 18.12144 2.76828 18.240624C2.113008 18.55788 1.6448880000000001 19.185864 1.534224 19.89612C1.491072 20.173128000000002 1.517784 20.607456 1.5936720000000002 20.862912C1.873608 21.805272 2.67456 22.44 3.636 22.4814C3.9752159999999996 22.495992 4.204632 22.465344 4.483248 22.368168C5.6424 21.963912 6.260904 20.712072000000003 5.876616 19.548000000000002C5.7302159999999995 19.10448 5.460528 18.731016 5.0760000000000005 18.439248C4.644864 18.112128000000002 3.9934800000000004 17.946384 3.451536 18.025872" stroke="none" fill="currentColor" fill-rule="evenodd" stroke-width="0.024"></path></svg>