<svg xmlns="http://www.w3.org/2000/svg" viewBox="0 0 24 24"><path d="M9.332016 0.03744C8.59836 0.17080800000000002 7.948416000000001 0.7035600000000001 7.666536000000001 1.402608C7.4943360000000006 1.829688 7.5 1.726272 7.5 4.44C7.5 7.093968 7.494744000000001 6.99072 7.6393439999999995 7.180295999999999C7.808832 7.4025360000000004 7.99836 7.495944000000001 8.273928 7.493136C8.546112 7.490328 8.820216 7.310976000000001 8.936424 7.059576C8.987856 6.948312 8.988024 6.941304000000001 9 4.5120000000000005L9.012 2.076 9.069168 1.9495200000000001C9.141936 1.788504 9.34272 1.601568 9.498456000000001 1.549848C9.602664 1.51524 10.19532 1.512216 15.792743999999999 1.517808L21.972 1.524 22.099656 1.594704C22.242192000000003 1.673664 22.341144 1.7756159999999999 22.421856000000002 1.9266720000000002L22.476 2.028 22.476 8.244L22.476 14.46 22.419984000000003 14.568C22.341144 14.719992 22.189848 14.867664 22.046376000000002 14.932608C21.926952 14.986656 21.901368 14.988287999999999 20.988 15C20.07552 15.011688 20.048976 15.013392 19.932000000000002 15.067104000000002C19.834392 15.111912 19.504464000000002 15.429456 18.163248 16.769448L16.514496 18.416688 16.507248 17.002344L16.5 15.588000000000001 16.435655999999998 15.45072C16.351008 15.27012 16.186584 15.112392 16.016736 15.04884C15.885024 14.999568 15.855648000000002 14.998848 14.211432 15.005376000000002L12.540000000000001 15.012 12.432 15.068544000000001C11.967336000000001 15.311832 11.855832 15.90048 12.206184 16.26096C12.265152 16.321656 12.375192000000002 16.400256000000002 12.45072 16.435655999999998L12.588000000000001 16.5 13.793472 16.507416L14.998920000000002 16.514832000000002 15.005472 18.487416L15.012 20.46 15.075936 20.580000000000002C15.262224000000002 20.929728 15.65772 21.085368000000003 16.02 20.951544000000002C16.158839999999998 20.900256000000002 16.242624 20.819904 18.36 18.707328L20.556 16.516296 21.3 16.504344C21.852624 16.495488 22.086408000000002 16.482744 22.208856 16.454856C23.076432 16.257264 23.722032000000002 15.626016 23.942232 14.76C23.986680000000003 14.585160000000002 23.988 14.397744 23.988 8.22L23.988 1.86 23.9208 1.6455359999999999C23.673144 0.8549519999999999 23.145048 0.326856 22.354464 0.07919999999999999L22.14 0.012 15.828000000000001 0.007992C10.522848 0.004632 9.486648 0.009336 9.332016 0.03744M13.908 3.035544C13.714920000000001 3.0789359999999997 13.602912 3.128568 13.410672 3.2559120000000004C13.197503999999999 3.397128 13.026432000000002 3.5926320000000005 12.910032000000001 3.8280000000000003C12.732503999999999 4.186992 12.742776 3.878688 12.749736 8.645712L12.756 12.924 12.818712000000001 13.056000000000001C12.898464 13.223904 13.032096000000001 13.357536 13.200000000000001 13.437287999999999L13.332 13.5 16.5 13.5L19.668 13.5 19.8 13.437287999999999C19.967904 13.357536 20.101536 13.223904 20.181288 13.056000000000001L20.244 12.924 20.250312 8.646023999999999C20.257368 3.873864 20.267976 4.18848 20.087976 3.823368C19.920576 3.48384 19.599528000000003 3.2031840000000003 19.224 3.0681119999999997L19.068 3.012 16.56 3.007584C14.530584000000001 3.0040080000000002 14.02452 3.009336 13.908 3.035544M14.256 8.256L14.256 12 16.5 12L18.744 12 18.744 11.257416000000001L18.744 10.514832 17.538 10.507416000000001L16.332 10.5 16.2 10.437288C15.70176 10.2006 15.596784 9.548424 15.999816000000001 9.193656C16.05984 9.140832 16.167624 9.075648 16.23936 9.048792C16.364064 9.00216 16.422072 9 17.556912 9L18.744 9 18.744 8.257416000000001L18.744 7.514832 17.538 7.507416000000001L16.332 7.5 16.2 7.437288000000001C15.70176 7.2006 15.596784 6.548424 15.999816000000001 6.193656000000001C16.05984 6.140832 16.167624 6.075648 16.23936 6.048792C16.364064 6.00216 16.422072 6 17.556912 6L18.744 6 18.744 5.256L18.744 4.5120000000000005 16.5 4.5120000000000005L14.256 4.5120000000000005 14.256 8.256M6.194832 9.037080000000001C4.352184 9.29964 2.9286000000000003 10.716528 2.663304 12.552C2.621112 12.843888000000002 2.6268000000000002 13.473792000000001 2.674224 13.764000000000001C2.892192 15.097631999999999 3.721896 16.223784 4.9331760000000004 16.830023999999998C5.36592 17.046623999999998 6.02388 17.224176 6.432 17.234496C6.507984 17.236416 6.4112160000000005 17.251944 6.204 17.271048C5.278392 17.356464000000003 4.546416 17.56152 3.732 17.963568C2.374608 18.633648 1.319736 19.692576 0.647448 21.06C0.270576 21.826584 0.018144 22.691904 0.013824 23.232C0.012192 23.434872 0.019056 23.473224000000002 0.075936 23.580000000000002C0.152736 23.724192000000002 0.28528800000000004 23.854848 0.432 23.930927999999998C0.519984 23.976576 0.5778 23.98704 0.744 23.987472C0.92292 23.987928 0.965184 23.979288 1.087728 23.9172C1.349376 23.784624 1.4441279999999999 23.623920000000002 1.525776 23.174352C1.723776 22.083912 2.17044 21.195024 2.917968 20.403744C3.7526400000000004 19.520208 4.89276 18.946656 6.12 18.792912C6.3828 18.759984000000003 7.105200000000001 18.759912 7.368 18.792768000000002C7.7851919999999994 18.844944 8.281056 18.965472 8.615976000000002 19.096104C9.89172 19.593768 10.923912 20.534424 11.508384000000001 21.732C11.743944 22.21464 11.874888 22.623504 11.976936 23.194944C12.005735999999999 23.35608 12.052656 23.529672 12.084024 23.590944C12.363456000000001 24.1368 13.14696 24.130152 13.417992 23.579591999999998C13.519728 23.372952 13.520136 23.203848 13.420032 22.714896C13.283040000000002 22.045584 13.107528000000002 21.54708 12.795143999999999 20.94C12.446591999999999 20.2626 12.056016 19.736952000000002 11.492928000000001 19.187352C10.337112000000001 18.059256 8.934288 17.420640000000002 7.2827519999999994 17.270712000000003C7.0854479999999995 17.252807999999998 6.981336000000001 17.236752 7.051392 17.235072000000002C7.341864 17.228064 7.824696 17.12448 8.183544 16.992168C9.041112 16.675968 9.791184000000001 16.056552 10.276272 15.264000000000001C11.016216 14.055072000000001 11.070672 12.480599999999999 10.415592 11.236272C9.793824 10.055208 8.69904 9.26256 7.392 9.047184C7.1244000000000005 9.003072 6.472152 8.997576 6.194832 9.037080000000001M6.3340559999999995 10.53624C5.354256 10.70208 4.538736 11.412336 4.24824 12.352896C4.0440000000000005 13.014144 4.108032000000001 13.705968 4.431432 14.332152C5.172912 15.767784 7.034304000000001 16.187208 8.330928 15.210792000000001C8.774856000000002 14.876496000000001 9.105744 14.38872 9.279792 13.812000000000001C9.34056 13.610567999999999 9.345048 13.565256000000002 9.346104 13.14C9.347352 12.653208 9.334488 12.571008 9.19992 12.204C8.887896 11.353176 8.108736 10.705055999999999 7.209384000000001 10.548216C6.992808000000001 10.510440000000001 6.524352 10.504056 6.3340559999999995 10.53624" stroke="none" fill="currentColor" fill-rule="evenodd" stroke-width="0.024"></path></svg>