<svg xmlns="http://www.w3.org/2000/svg" viewBox="0 0 24 24"><path d="M10.352256 0.264312C10.297392 0.275544 10.210848 0.305976 10.159944000000001 0.331944C10.079328 0.37308 0.46728 8.483232000000001 0.236472 8.704848C0.188352 8.751072 0.118344 8.844479999999999 0.080904 8.912448C0.020472 9.022128 0.012792000000000001 9.060264 0.012408 9.252C0.011952 9.494208 0.049536000000000004 9.59388 0.207168 9.768336C0.408984 9.991728 0.77868 10.06296 1.056 9.93192C1.151208 9.886944 2.484408 8.772048 5.840712 5.930784C8.399688000000001 3.7644480000000002 10.496376 1.992 10.5 1.992C10.503624 1.992 12.600312 3.7644480000000002 15.159287999999998 5.930784C18.515591999999998 8.772048 19.848792 9.886944 19.944 9.93192C20.137032 10.023144 20.382576 10.020168 20.575295999999998 9.924264C20.728296 9.848112 20.848319999999998 9.7296 20.932968 9.57108C20.97876 9.485304000000001 20.987928 9.43176 20.987592 9.252C20.987208 9.060264 20.979528000000002 9.022128 20.919096 8.912448C20.881656 8.844479999999999 20.811648 8.751072 20.763528 8.704848C20.715384 8.658624 18.4836 6.765960000000001 15.804 4.49892C12.419664 1.635648 10.895352 0.360408 10.812 0.322632C10.670568000000001 0.25852800000000004 10.491408 0.23579999999999998 10.352256 0.264312M15.527856000000002 1.030176C15.325248 1.092624 15.121775999999999 1.284936 15.046032 1.4855520000000002C15.006264 1.590888 14.997528 1.6567440000000002 15.005736 1.789584C15.019104000000002 2.0057519999999998 15.090576 2.152296 15.256752 2.304168C15.470376000000002 2.499408 15.442824000000002 2.496 16.803456 2.496L17.998344000000003 2.496 18.00516 3.726L18.012 4.956 18.071616000000002 5.072712C18.152592 5.231256 18.352656 5.40972 18.506808 5.460936C18.689232 5.5215119999999995 18.93696 5.500608000000001 19.102224000000003 5.4106559999999995C19.318488000000002 5.29296 19.447680000000002 5.106936 19.4892 4.853568C19.52136 4.657104 19.518672000000002 1.7976239999999999 19.486152 1.618416C19.442688 1.379016 19.302288 1.1915520000000002 19.080000000000002 1.0760880000000002L18.972 1.02 17.28 1.015824C16.3494 1.01352 15.560927999999999 1.019976 15.527856000000002 1.030176M3.527856 10.029288000000001C3.3229200000000003 10.095504 3.121248 10.285752 3.04776 10.48212C2.99988 10.610112 2.998896 10.651848 3.005376 12.284568L3.012 13.956 3.071616 14.072712000000001C3.1525920000000003 14.231256000000002 3.3526559999999996 14.40972 3.506808 14.460936C3.6892319999999996 14.521512 3.93696 14.500608 4.102224 14.410656C4.318488 14.292959999999999 4.44768 14.106936 4.4892 13.853568C4.52136 13.657104000000002 4.518672 10.797624 4.486152 10.618416000000002C4.4426879999999995 10.379016 4.302288 10.191528 4.08 10.076112C3.99708 10.033056 3.927408 10.018848 3.7800000000000002 10.014936C3.6744 10.012128 3.5609280000000005 10.018583999999999 3.527856 10.029288000000001M17.004 10.03848C16.862784 10.096584 16.783176 10.150248000000001 16.697544 10.245023999999999C16.583232 10.371552000000001 16.545863999999998 10.447752 16.514232 10.618896000000001C16.479096000000002 10.808928 16.478568 13.655448 16.513608 13.872C16.553352 14.117591999999998 16.696776 14.309784 16.929216 14.428944000000001C17.067336 14.499744 17.33124 14.51472 17.493192 14.460936C17.647344 14.40972 17.847408 14.231256000000002 17.928384 14.072712000000001L17.988 13.956 17.988 12.252L17.988 10.548 17.932488 10.43532C17.865216 10.298712 17.712936 10.141968 17.581224000000002 10.07376C17.463312000000002 10.01268 17.118000000000002 9.991584 17.004 10.03848M3.3240000000000003 16.012656C2.5755120000000002 16.11 1.9103999999999999 16.638432 1.631712 17.357184C1.519368 17.64696 1.484424 17.888136000000003 1.513608 18.172488C1.584552 18.863712000000003 1.9489679999999998 19.433040000000002 2.637912 19.929000000000002C2.738064 20.001096 3.040488 20.196288 3.309984 20.362776C3.9017760000000004 20.728368 4.076592 20.850839999999998 4.2431280000000005 21.016608C4.3782000000000005 21.151032 4.488 21.359232 4.488 21.480936C4.488 21.584016 4.4001600000000005 21.755856 4.304592 21.839760000000002C4.126392 21.99624 4.143432 21.993984 3.036 22.007592C2.038056 22.01988 2.02692 22.020552000000002 1.92 22.076088C1.6123200000000002 22.235904 1.4610480000000001 22.537560000000003 1.5150000000000001 22.883664C1.5550320000000002 23.140512 1.7895359999999998 23.404728000000002 2.036232 23.470896C2.16312 23.504928 4.132296 23.506944 4.284 23.473176C5.074224 23.297376 5.668848 22.769232 5.906592 22.032C6.181128000000001 21.180768 5.811048 20.276664 4.916496 19.613088C4.789416 19.518816 4.497912 19.326168 4.268712 19.185C3.302544 18.589896 3.096816 18.409968 3.027336 18.099432C2.9844 17.907528000000003 3.11652 17.685264 3.348 17.55996C3.440976 17.509632 3.475704 17.507616000000002 4.452 17.496C5.586888 17.482488 5.5473360000000005 17.488608 5.754576 17.294736C5.932176 17.128632 5.987928 16.99896 5.987976 16.752C5.988 16.511424 5.936640000000001 16.382304 5.777736 16.223376000000002C5.623296 16.068936 5.516808 16.024584 5.28 16.016064C4.778808 15.997992 3.454416 15.995712000000001 3.3240000000000003 16.012656M20.128848 16.007304C19.804920000000003 16.066536 19.567776 16.306896 19.512552 16.632C19.471896 16.8714 19.49004 22.875936 19.5318 22.998744C19.576895999999998 23.13132 19.746096 23.324952000000003 19.885128 23.403072C20.047032 23.494032 20.307000000000002 23.529672 20.671680000000002 23.510856C22.339104000000003 23.424864 23.690064 22.226976 23.975304 20.581584C24.015719999999998 20.348568 24.006648000000002 19.106832 23.962704000000002 18.855648000000002C23.83452 18.122880000000002 23.413728 17.371848 22.856064 16.880616C22.386768 16.467192 21.822408000000003 16.182384 21.220776 16.055328C20.959560000000003 16.000152 20.321424 15.972096 20.128848 16.007304M9.288 16.044096C8.835048 16.145952 8.469816 16.348848 8.139792 16.681944C7.862832 16.961496 7.679424 17.28768 7.566264 17.701895999999998L7.501224 17.94 7.500624 19.716C7.5000480000000005 21.3474 7.503576 21.508584000000003 7.5438719999999995 21.695616C7.63656 22.12584 7.832159999999999 22.495488 8.131992 22.80708C8.411088 23.09712 8.73492 23.293319999999998 9.137088 23.416032C9.327984 23.474304 9.38556 23.480567999999998 9.744 23.482032C10.20636 23.483928 10.376304000000001 23.447304 10.74 23.267352C11.404056 22.938768000000003 11.863296 22.312968 11.976696 21.582072C11.993400000000001 21.474408 11.999208 20.812656 11.993712 19.643304C11.985719999999999 17.939832000000003 11.983416 17.861208 11.936352000000001 17.7C11.699448 16.888128000000002 11.150808000000001 16.320696 10.38 16.090344C10.196664 16.035552000000003 10.109544 16.024512 9.804 16.017408000000003C9.548256 16.011432000000003 9.398832 16.01916 9.288 16.044096M14.004 16.03848C13.811280000000002 16.117776 13.657079999999999 16.251504 13.574736000000001 16.41072C13.490184000000001 16.574208 13.485216000000001 16.744032 13.494312 19.164C13.502472 21.334728000000002 13.506912 21.555552000000002 13.545744 21.72C13.645248 22.14132 13.841472 22.50516 14.131992 22.80708C14.410512 23.09652 14.732928 23.292072 15.137088 23.416728L15.348 23.481792000000002 16.362888 23.490528C17.52984 23.500584 17.528088 23.500824 17.742672000000002 23.304696C17.930256 23.133264 17.987928 23.003304 17.987976 22.752C17.988 22.511424 17.93664 22.382304 17.777736 22.223376000000002C17.570088 22.015728 17.604552 22.021824000000002 16.548000000000002 22.00584C16.00704 21.997632 15.581015999999998 21.981168 15.538608 21.966816C15.328632 21.895775999999998 15.168072000000002 21.752784 15.074664 21.553608L15.012 21.42 15 18.984L14.988 16.548000000000002 14.932488000000001 16.43532C14.865216 16.298712000000002 14.712936 16.141968 14.581224 16.07376C14.463312000000002 16.012680000000003 14.118 15.991584000000001 14.004 16.03848M9.607824 17.521079999999998C9.322608 17.577456 9.08304 17.813448 9.024216000000001 18.096C9.004704 18.18972 8.998944 18.690863999999998 9.004368000000001 19.824L9.012 21.42 9.074664 21.553608C9.184944 21.788784 9.383088 21.940896 9.627672 21.978168C9.9786 22.03164 10.281744 21.866232 10.43124 21.539687999999998L10.48896 21.413616 10.482479999999999 19.724808L10.476 18.036 10.419984 17.928C10.26108 17.621616 9.932400000000001 17.456927999999998 9.607824 17.521079999999998M21 19.750056L21 21.956136 21.09 21.93252C21.2676 21.88596 21.614112 21.694872 21.791424 21.545736C22.0296 21.345408000000003 22.181088 21.154056 22.308912 20.892C22.471992 20.557728 22.487232 20.459424000000002 22.487640000000003 19.739520000000002C22.487952 19.181832 22.482696 19.095936000000002 22.438512 18.936456C22.268784 18.323976000000002 21.769488 17.803056 21.146784 17.588832C21.075120000000002 17.564184 21.012768 17.544 21.008232 17.544C21.00372 17.544 21 18.536736 21 19.750056" stroke="none" fill="currentColor" fill-rule="evenodd" stroke-width="0.024"></path></svg>