<svg xmlns="http://www.w3.org/2000/svg" viewBox="0 0 24 24"><path d="M8.000568000000001 0.097968C7.831872 0.16284 7.672464 0.309648 7.591343999999999 0.47486400000000006L7.524 0.612 7.517184 2.1724560000000004L7.510368000000001 3.7329120000000002 6.7731840000000005 4.113912C6.3677280000000005 4.323456 5.976888000000001 4.533864 5.904648 4.581456C5.742024 4.688616000000001 5.527464 4.9414560000000005 5.428416 5.142696C5.28012 5.4438960000000005 5.280744 5.434848 5.28036 7.3020000000000005L5.28 9 3.738 9.000143999999999C2.076384 9.000288 1.9152480000000003 9.009768 1.572 9.127464C0.856392 9.372864 0.323088 9.950352 0.11604 10.704024L0.06 10.908 0.06 17.148L0.06 23.388 0.127464 23.525376C0.20256 23.678304 0.340872 23.811864 0.504 23.888952000000003L0.612 23.94 5.28 23.94L9.948 23.94 10.085136 23.872656C10.661016 23.589864 10.643736 22.778976 10.056000000000001 22.503456C9.960408 22.458648 9.894888 22.451832000000003 9.486 22.4442L9.024000000000001 22.435584000000002 9.023856 16.791792C9.023712 10.625112000000001 9.029832 10.90344 8.885112000000001 10.49448C8.775456 10.184568 8.611248000000002 9.931248 8.352 9.672C7.945080000000001 9.265080000000001 7.550112 9.081768 6.93 9.012072L6.792 8.996544 6.792599999999999 7.396272L6.793200000000001 5.796 6.954599999999999 5.7151440000000004C7.043376 5.670672 8.865599999999999 4.729056 11.004 3.6226320000000003C13.1424 2.516232 14.910912 1.6037519999999998 14.934000000000001 1.59492C14.97372 1.579728 14.976 1.6590960000000001 14.976 3.0563040000000004L14.976 4.533744 14.118 4.540872C13.274712000000001 4.54788 13.258224000000002 4.54896 13.156296 4.603368C12.888792 4.746144 12.733056 5.0182080000000004 12.748392 5.316C12.759048 5.5229040000000005 12.825864 5.66964 12.977447999999999 5.819112C13.177584000000001 6.016416 13.221432000000002 6.024 14.160912 6.024L14.976 6.024 14.976 6.767352000000001L14.976 7.51068 13.386000000000001 7.517352000000001L11.796 7.524 11.680968 7.582776000000001C11.517024 7.666536000000001 11.344632 7.857528 11.293175999999999 8.012448C11.234424 8.189352000000001 11.249448 8.444568 11.327736 8.599608C11.398848000000001 8.74044 11.55696 8.89044 11.707776 8.960136C11.818656 9.011376 11.838840000000001 9.012072 13.397184000000001 9.01896L14.974368 9.025944 14.981184 10.602960000000001C14.987928 12.161328 14.988624 12.181320000000001 15.039864 12.292224000000001C15.11748 12.460176 15.266471999999998 12.607776 15.434472 12.683184C15.561552 12.740207999999999 15.60504 12.747743999999999 15.764424 12.74028C15.897120000000001 12.734088 15.977927999999999 12.716232 16.056 12.675839999999999C16.207872 12.597287999999999 16.355616 12.445944 16.420608 12.302376L16.476 12.18 16.482336 6.816C16.487832 2.154216 16.483992 1.427208 16.453008 1.262616C16.292712 0.411072 15.415416 -0.130272 14.58 0.10692C14.49648 0.130632 13.302048 0.7350720000000001 11.736 1.546128L9.036 2.9444640000000004 9.024000000000001 1.778232C9.010248 0.442872 9.018 0.49192800000000003 8.78544 0.265392C8.572704000000002 0.058199999999999995 8.27124 -0.0061200000000000004 8.000568000000001 0.097968M21.30312 10.511952C20.862000000000002 10.567152 20.473344 10.7286 20.112000000000002 11.00676C20.0394 11.062632 19.209168 11.880048 18.267024 12.823224000000002L16.554047999999998 14.538072000000001 16.431024 14.505168C15.640535999999999 14.293728 14.61228 14.336231999999999 13.779912000000001 14.6148C12.349848 15.09336 11.227248000000001 16.213752 10.754208 17.634504C10.576536 18.168192 10.509384 18.592296 10.509936 19.177464C10.511376 20.679096 11.212871999999999 22.079376 12.420312000000001 22.990728C14.292576 24.403896 16.934208 24.236448 18.62052 22.597728C19.455888 21.785952 19.941984 20.7768 20.066424 19.596C20.113319999999998 19.151016 20.063760000000002 18.469608 19.953192 18.038520000000002L19.91688 17.897064 21.665448 16.14252C23.454384 14.347488 23.52624 14.268768000000001 23.705688 13.908C24.245304 12.823032 23.859336 11.489448 22.820664 10.850256C22.374216 10.575504 21.806568 10.448976 21.30312 10.511952M2.071032 10.546536000000001C1.8699600000000003 10.609848 1.6828800000000002 10.789152 1.6055519999999999 10.992624000000001C1.566792 11.094672000000001 1.56 11.178576 1.56 11.556264L1.56 12 2.3750880000000003 12C3.315216 12 3.35868 12.007536 3.5556 12.204456C3.7280400000000005 12.376871999999999 3.7800000000000002 12.501816 3.7800000000000002 12.744C3.7800000000000002 12.986184 3.7280400000000005 13.111128 3.5556 13.283544000000001C3.35868 13.480464000000001 3.315216 13.488 2.3750880000000003 13.488L1.56 13.488 1.56 14.231328L1.56 14.974680000000001 3.138 14.981328L4.716 14.988 4.838376 15.043392C4.9819439999999995 15.108384 5.133288 15.256128 5.21184 15.408C5.252232 15.486072000000002 5.270087999999999 15.566880000000001 5.27628 15.699576C5.283744 15.85896 5.2762080000000005 15.902448 5.219184 16.029528000000003C5.143776000000001 16.197528000000002 4.996176 16.34652 4.828224 16.424136C4.71732 16.475376 4.697352 16.476072000000002 3.138 16.482816L1.56 16.489632 1.56 19.464816L1.56 22.44 4.536192000000001 22.44L7.512384000000001 22.44 7.5061919999999995 16.746L7.5 11.052 7.442544 10.939608C7.372032 10.801632 7.22376 10.654584 7.08 10.580016L6.972 10.524000000000001 4.572 10.519368C2.636712 10.515648 2.15244 10.520904 2.071032 10.546536000000001M21.36 12.032736C21.3006 12.050064 21.214199999999998 12.083304 21.168 12.106584C21.1218 12.129864 20.2092 13.021128000000001 19.14 14.08716C17.574312000000003 15.648192000000002 17.172648000000002 16.036368 17.076 16.081752C16.8966 16.166040000000002 16.682760000000002 16.160064000000002 16.392 16.062648000000003C16.2666 16.020648 16.0992 15.970344 16.02 15.950856000000002C14.990664 15.697632 13.778808 16.038384 13.008047999999999 16.797743999999998C12.21036 17.583648 11.869152 18.641688 12.060144 19.737023999999998C12.171816 20.377392 12.457248 20.940792000000002 12.911496000000001 21.417408000000002C13.536912000000001 22.07364 14.270376 22.400136000000003 15.192648000000002 22.432824C15.638928 22.44864 15.940152000000001 22.408752 16.310592 22.284792C17.301456 21.953232 18.067056 21.199920000000002 18.39684 20.232C18.53772 19.818576 18.564072000000003 19.645584 18.563280000000002 19.14C18.562488000000002 18.643368000000002 18.53436 18.473496 18.378408 18.024024C18.318648000000003 17.851752 18.309024 17.791992 18.31668 17.64C18.322104000000003 17.531904 18.343632 17.421648 18.37056 17.364C18.401112 17.298576 19.028304000000002 16.65276 20.340024 15.336C21.398568 14.2734 22.28808 13.364640000000001 22.316712000000003 13.316544C22.580136000000003 12.873984000000002 22.409424 12.312648000000001 21.944256000000003 12.091752C21.768648000000002 12.008352 21.527231999999998 11.983968 21.36 12.032736M15.102024 18.060384C14.54292 18.181848 14.151888000000001 18.765168 14.249088 19.332672000000002C14.326488000000001 19.78452 14.681544 20.161896 15.115176 20.253216000000002C15.501648000000001 20.3346 15.877176 20.222664 16.157256 19.942584C16.592688 19.507152 16.591416 18.798023999999998 16.154424 18.363048C15.988128000000001 18.19752 15.820656 18.10464 15.60672 18.059304C15.409224000000002 18.017471999999998 15.298560000000002 18.017712000000003 15.102024 18.060384" stroke="none" fill="currentColor" fill-rule="evenodd" stroke-width="0.024"></path></svg>