<svg xmlns="http://www.w3.org/2000/svg" viewBox="0 0 24 24"><path d="M1.944 0.015864C1.007352 0.16490400000000002 0.28910399999999997 0.8168399999999999 0.057719999999999994 1.728C0.013320000000000002 1.902768 0.012 2.0928720000000003 0.012 8.256L0.012 14.604000000000001 0.06432 14.799959999999999C0.285984 15.630047999999999 0.9408960000000001 16.262784 1.776 16.453680000000002C1.9300320000000002 16.488888000000003 2.1384719999999997 16.496351999999998 3.2212080000000003 16.505424L4.4863919999999995 16.516008 4.493208 18.463992L4.5 20.412 4.562424 20.545104000000002C4.692432 20.822280000000003 4.8950640000000005 20.968656 5.182032 20.992704C5.305248 21.003048 5.381688 20.99592 5.476248 20.965248000000003C5.578656 20.932056 6.187704000000001 20.486208 8.544792000000001 18.718872L11.485584 16.513920000000002 14.520792 16.505664C17.814432 16.496712000000002 17.656632 16.502976 18.020856000000002 16.366775999999998C18.765287999999998 16.0884 19.321224 15.429167999999999 19.468608 14.649888C19.493952 14.515968 19.5 13.281839999999999 19.5 8.244C19.5 2.3058 19.497888 1.994136 19.456416 1.8C19.305144 1.091928 18.835464 0.504552 18.177384 0.20049599999999998C18.078456 0.15480000000000002 17.914392 0.093696 17.812752 0.06470400000000001L17.628 0.012 9.816 0.009168C5.5194 0.007608 1.977 0.010608000000000001 1.944 0.015864M2.024592 1.538184C1.828488 1.594992 1.59228 1.8358800000000002 1.5368160000000002 2.035632C1.520376 2.0947679999999997 1.512216 4.152432 1.512144 8.257728C1.511976 15.167544 1.492392 14.511888 1.706064 14.745696C1.7776079999999999 14.82396 1.872168 14.895888000000001 1.9495200000000001 14.930832000000002L2.076 14.988 3.7680000000000002 15L5.46 15.012 5.58 15.075936C5.737223999999999 15.159672 5.862696 15.292776 5.938344000000001 15.456L5.9995199999999995 15.588000000000001 5.99976 17.165976L6 18.743952 8.44284 16.911984C10.224312 15.576 10.917456 15.069192000000001 11.003112000000002 15.040008C11.11032 15.00348 11.389296 14.999976 14.206272 14.999616000000001C16.66596 14.999328 17.319096000000002 14.992872 17.425608 14.967792000000001C17.701728 14.902800000000001 17.923296 14.669160000000002 17.975448 14.388C17.99472 14.284056 18.000168 12.551904 17.995079999999998 8.16L17.988 2.076 17.930832000000002 1.9495200000000001C17.895888000000003 1.872168 17.82396 1.7776079999999999 17.745696 1.706064C17.51088 1.491456 18.355944 1.511736 9.745728 1.5141600000000002C5.229264 1.5154320000000001 2.069136 1.525272 2.024592 1.538184M9.552 3.02244C9.519 3.0325200000000003 9.4488 3.063144 9.396 3.0904800000000003C9.343200000000001 3.11784 8.255784 4.010784 6.979512 5.074824C4.719936 6.958656 4.657104 7.013304000000001 4.585512 7.15656C4.5215760000000005 7.284504 4.512024 7.328952 4.51224 7.497840000000001C4.512504 7.7285520000000005 4.573872000000001 7.885872 4.720944 8.032944C4.8693599999999995 8.18136 5.017584 8.240664 5.244 8.242248C5.478816 8.243904 5.58084 8.201928 5.82 8.005272L5.988 7.867152 6 9.723576C6.013296 11.781576 6.001272 11.628 6.17556 11.964C6.281544 12.168336 6.589368 12.470088 6.806712 12.58272C7.133832 12.752208 7.010016 12.745800000000001 9.822048 12.738528000000002L12.348 12.732000000000001 12.490368 12.678287999999998C12.9522 12.504024 13.320576 12.111768 13.456296 11.649792000000001C13.493856000000001 11.521896 13.498752 11.329704000000001 13.506216 9.688968000000001L13.514496000000001 7.869936 13.661351999999999 7.992648C13.901231999999998 8.193071999999999 14.018184 8.243400000000001 14.24412 8.243400000000001C14.405280000000001 8.243400000000001 14.458104000000002 8.232696 14.571959999999999 8.176992C14.720976 8.10408 14.848056 7.97808 14.932968 7.8190800000000005C14.978904 7.733016 14.987856 7.6803360000000005 14.987112 7.5C14.986176 7.273824 14.964048 7.2038400000000005 14.841672 7.040256C14.784264 6.963528 10.326096000000001 3.235488 10.14672 3.114216C10.093224 3.0780480000000003 10.010424 3.037608 9.962712 3.02436C9.862919999999999 2.99664 9.639936 2.995608 9.552 3.02244M8.631912 5.659943999999999L7.514760000000001 6.588 7.513392 8.922L7.5120000000000005 11.256 9.756 11.256L12 11.256 12 8.93196L12 6.607944000000001 10.87452 5.6699280000000005L9.749064 4.731912 8.631912 5.659943999999999M20.831688 7.518840000000001C20.593248000000003 7.573272 20.422152 7.716672000000001 20.314416 7.9524479999999995C20.257296 8.077463999999999 20.251416 8.1144 20.260968000000002 8.288447999999999C20.273471999999998 8.51592 20.321687999999998 8.628024 20.471376000000003 8.777735999999999C20.666304 8.97264 20.720616 8.986296 21.36 9.00084C22.024536 9.015936 22.09308 9.03456 22.293936 9.254304C22.505136 9.4854 22.488 9.110424 22.488 13.5C22.488 17.01036 22.484232 17.40252 22.449456 17.504568C22.396992 17.658528 22.209312 17.859047999999998 22.05048 17.930832000000002C21.925895999999998 17.987136000000003 21.910008 17.988167999999998 20.988 18C20.167584 18.010512 20.040623999999998 18.017136 19.959888000000003 18.053664C19.727904 18.158568 19.558536 18.371280000000002 19.513632 18.614088C19.497432 18.701832000000003 19.488 19.242744 19.488 20.08584L19.488 21.418872 17.826 19.760352C16.245984 18.183648 16.157088 18.099312 16.024056 18.050520000000002C15.884616000000001 17.9994 15.876312 17.999232 13.840056 18.005616L11.796 18.012 11.68332 18.067512C11.621352 18.098015999999998 11.525976 18.167664 11.471376 18.222264C11.321856 18.371784 11.273472 18.484152 11.261016 18.710688C11.251464 18.884544 11.257392 18.921096000000002 11.316408000000001 19.052616C11.383464 19.202016 11.523792 19.355496000000002 11.655744 19.423728C11.811288000000001 19.504152 11.995104 19.512 13.725984000000002 19.512L15.44316 19.512 17.639568 21.705168C19.734312000000003 23.796816 19.842432000000002 23.900712000000002 19.974912 23.949168C20.362008 24.090816 20.763096 23.922144 20.938344 23.544L20.99952 23.412 20.999760000000002 21.465504L21 19.518984000000003 21.522000000000002 19.504584C21.860927999999998 19.495224 22.107120000000002 19.476552 22.224 19.451352C23.04708 19.273872 23.713872 18.630552 23.93568 17.79996L23.988 17.604 23.988 13.5L23.988 9.396 23.93568 9.20004C23.713872 8.369496 23.047824000000002 7.726824000000001 22.224 7.548504C21.981528 7.496016 21.02136 7.475568000000001 20.831688 7.518840000000001" stroke="none" fill="currentColor" fill-rule="evenodd" stroke-width="0.024"></path></svg>