<svg xmlns="http://www.w3.org/2000/svg" viewBox="0 0 24 24"><path d="M17.466408 0.045432C17.403936 0.070536 17.317536 0.120576 17.274408 0.156672C17.23128 0.19274400000000003 16.4502 0.9545520000000001 15.538680000000001 1.8495359999999998C14.155968 3.2071920000000005 13.870824 3.498288 13.817904 3.606384C13.762392 3.7197600000000004 13.7208 3.9594 13.485456000000001 5.521992L13.216464000000002 7.308 11.173128 9.36C9.561816 10.978152 9.117792 11.437032 9.073008 11.530416C8.990832 11.7018 8.979576 11.946456 9.045816 12.12192C9.110232 12.292464 9.274464 12.46548 9.446952 12.54444C9.561504000000001 12.59688 9.604656 12.6036 9.775416000000002 12.595680000000002C9.900264 12.589872 10.00704 12.570167999999999 10.068 12.541680000000001C10.133712000000001 12.510984000000002 10.811592000000001 11.850504 12.216000000000001 10.448808000000001L14.268 8.400792000000001 16.02 8.135784C16.9836 7.9900079999999996 17.826 7.855080000000001 17.892 7.83588C17.958000000000002 7.8167040000000005 18.063792 7.760280000000001 18.127104000000003 7.710504C18.283944 7.587192 21.376248 4.43604 21.474336 4.299576C21.570312 4.166064 21.605448 4.042896000000001 21.604392 3.843888C21.602952000000002 3.5770799999999996 21.431496000000003 3.317856 21.18 3.202248C21.100800000000003 3.1658399999999998 20.692872 3.076776 19.98 2.94024C19.386 2.82648 18.893376 2.7258720000000003 18.885264 2.7166799999999998C18.877176 2.707512 18.781368 2.2302 18.672384 1.6560000000000001C18.563376 1.0818 18.4572 0.559272 18.436439999999997 0.494832C18.388848 0.347184 18.212664 0.15108 18.056712 0.072144C17.89896 -0.007704 17.629152 -0.01992 17.466408 0.045432M9.78 1.50432C8.113944 1.5620399999999999 6.378191999999999 2.069184 4.992 2.90328C3.797136 3.6222239999999997 2.825232 4.492488000000001 2.037144 5.549136C1.203624 6.666672000000001 0.639624 7.853712 0.311952 9.18C-0.10111200000000001 10.851984 -0.09256800000000001 12.520848 0.33758400000000005 14.184000000000001C0.786 15.917736000000001 1.719432 17.541168 2.998056 18.811032C4.311096 20.115072 5.937744 21.026784 7.734096000000001 21.465528000000003C8.281728000000001 21.599256 8.481456 21.577512 8.721696 21.357936C8.898408 21.196416 8.962728 21.046584000000003 8.96292 20.796C8.963087999999999 20.57388 8.904 20.431848 8.7444 20.270736000000003C8.626512 20.151768 8.51652 20.103144 8.193 20.026944C7.13388 19.777535999999998 6.193344 19.367088 5.304 18.766176C3.570264 17.594736 2.307504 15.804552000000001 1.792512 13.788C1.588704 12.989880000000001 1.52532 12.481152 1.524864 11.64C1.524432 10.816968 1.5833279999999998 10.325616 1.777296 9.53472C2.542584 6.414 5.03856 3.958392 8.184023999999999 3.2316240000000005C9.158280000000001 3.006504 10.18032 2.946864 11.1 3.06144C11.622696 3.1265519999999998 11.718072 3.129816 11.846232 3.087096C12.03936 3.02268 12.192024 2.889648 12.287424 2.70264C12.360456000000001 2.5594560000000004 12.370655999999999 2.51772 12.369288 2.367528C12.367368 2.1583200000000002 12.310896 2.0178000000000003 12.165216000000001 1.8597599999999999C11.996136 1.6763279999999998 11.880456 1.635528 11.348352 1.571616C11.018664 1.532016 10.28484 1.486272 10.092 1.49328C10.026 1.495704 9.8856 1.500648 9.78 1.50432M16.217136 3.296712L15.190296 4.308 15.002736 5.5440000000000005C14.899584 6.2238 14.81736 6.7828800000000005 14.819976 6.786384000000001C14.827704 6.79668 17.214672 6.435096000000001 17.274048 6.414624000000001C17.325264 6.396960000000001 19.332408 4.372392 19.315464000000002 4.355448C19.311048 4.351032 19.015944 4.2913440000000005 18.659712000000003 4.222799999999999C18.30348 4.154256 17.966256 4.07676 17.910336 4.0506C17.780472 3.989832 17.632368 3.8461920000000003 17.566536 3.71712C17.534544 3.654408 17.467248 3.3678239999999997 17.388552 2.959152C17.318976 2.5977360000000003 17.257991999999998 2.298288 17.253024 2.293728C17.248056 2.289144 16.781904 2.740488 16.217136 3.296712M9.588000000000001 5.6892000000000005C7.835088 5.869248 6.288072 6.764880000000001 5.275032 8.18616C4.465056000000001 9.322512 4.078728 10.749744 4.201608 12.151872C4.326888 13.581576 4.99704 14.97324 6.029208000000001 15.947136000000002C6.496224 16.387776 6.939888 16.6944 7.524 16.980264C7.964112000000001 17.19564 8.07984 17.235 8.27292 17.235C8.806992000000001 17.235 9.161472 16.673808 8.939616 16.17948C8.847408 15.973991999999999 8.724768 15.873072 8.382096 15.720672C7.447296 15.304920000000001 6.726719999999999 14.654736000000002 6.253080000000001 13.799664C5.1096 11.73516 5.750952 9.175032 7.734768 7.885032000000001C8.478048000000001 7.401719999999999 9.374544 7.152816 10.26 7.183992000000001C10.4712 7.191408 10.746599999999999 7.21512 10.872 7.236672C11.155007999999999 7.285343999999999 11.329464 7.272384000000001 11.490528 7.190784C11.857704 7.0047120000000005 12.009528 6.570767999999999 11.83572 6.204C11.767368000000001 6.059712 11.629752 5.91252 11.50344 5.848584C11.247552 5.719032 10.170192 5.629392 9.588000000000001 5.6892000000000005M16.968 10.50372C15.921648000000001 10.553832 14.879376 10.844496 14.001864 11.330904C12.865824 11.96064 11.958312 12.868079999999999 11.330712 14.001864C10.919376 14.744952000000001 10.625232 15.681287999999999 10.534632 16.536C10.49352 16.923816 10.499616 17.682072 10.54692 18.06C10.697088 19.260168 11.12784 20.329656 11.854752 21.307104000000002C12.102408 21.640152 12.725783999999999 22.285872 13.031952000000002 22.526544C13.925904 23.22924 15.004056 23.714088 16.093464 23.903256000000003C16.747368 24.0168 17.591712 24.026472 18.248856 23.927927999999998C20.973024 23.5194 23.172743999999998 21.49668 23.821800000000003 18.803376C24.021288 17.975616000000002 24.051624 16.969176 23.903280000000002 16.099800000000002C23.544336 13.996008000000002 22.181352 12.170952 20.243496 11.199311999999999C19.572072000000002 10.862664 18.821112 10.638432 18.072 10.550904C17.754288 10.513776 17.227895999999998 10.491288 16.968 10.50372M16.740000000000002 12.025152C15.807623999999999 12.120936 14.8968 12.472776 14.12748 13.03428C13.814928 13.262400000000001 13.262400000000001 13.814928 13.03428 14.12748C12.204408 15.26448 11.859288 16.645464 12.061440000000001 18.020496C12.196488 18.939263999999998 12.62136 19.894176 13.201991999999999 20.583936C13.883856000000002 21.39396 14.70024 21.942576 15.69024 22.256064000000002C16.206576000000002 22.419576 16.666632 22.487496 17.259792 22.487808C19.654584 22.489056 21.737256000000002 20.870136000000002 22.330536 18.546167999999998C22.615152000000002 17.431248 22.521864 16.243872 22.06572 15.175944000000001C21.742272 14.418672 21.249528 13.762272 20.583936 13.201991999999999C19.896096 12.622992 18.948743999999998 12.200712000000001 18.024 12.060936C17.714807999999998 12.014208 17.031768 11.995175999999999 16.740000000000002 12.025152M19.673232 14.793072000000002C19.623288 14.811672000000002 19.543872 14.852328 19.496712000000002 14.883432C19.440144 14.920752 18.908568 15.609576 17.934288 16.908C17.122128 17.9904 16.44816 18.886344 16.436616 18.898992C16.423848 18.912959999999998 16.097496 18.605424 15.605808 18.116064C14.857488 17.371344 14.78544 17.306256 14.657088 17.259072C13.989312000000002 17.013552 13.376327999999999 17.746560000000002 13.746456 18.348C13.817256000000002 18.463056 15.26136 19.921176 15.471552 20.089824C15.63864 20.223912000000002 15.856776 20.332800000000002 16.067040000000002 20.387064000000002C16.24836 20.433888 16.574904 20.433912 16.773264 20.38716C16.963512 20.342328 17.25432 20.192520000000002 17.408808 20.059824000000003C17.480832000000003 19.997952 18.088656 19.208808 18.994032 18.001728C19.801655999999998 16.924992 20.495424 15.9954 20.535743999999998 15.936C20.634936 15.789864 20.669616 15.672384 20.666904 15.491591999999999C20.662752 15.214056 20.520096000000002 14.977008000000001 20.27796 14.845199999999998C20.171496 14.787264 20.114544 14.773416 19.956288 14.767032C19.831896 14.762016 19.73196 14.771208 19.673232 14.793072000000002" stroke="none" fill="currentColor" fill-rule="evenodd" stroke-width="0.024"></path></svg>