<svg xmlns="http://www.w3.org/2000/svg" viewBox="0 0 24 24"><path d="M9.101592 0.064032C8.96688 0.111696 8.762256 0.301128 8.687616 0.447288L8.628 0.5640000000000001 8.612904 1.86C8.6046 2.5728 8.596488 3.3561840000000003 8.594904 3.60084L8.592 4.045704 8.43 4.124928000000001C7.716744 4.473768000000001 6.989808000000001 5.20044 6.6217440000000005 5.932488C6.436007999999999 6.301896 6.4222079999999995 6.527208 6.568776000000001 6.796512C6.802392 7.225728 7.418544 7.305048 7.7542800000000005 6.949128000000001C7.7984160000000005 6.902304 7.897032 6.748824000000001 7.973400000000001 6.60804C8.144424 6.2928 8.249640000000001 6.1548 8.508216000000001 5.906568C8.807039999999999 5.619672 9.05292 5.471904 9.512952 5.302704C9.786912000000001 5.2019280000000006 9.906888 5.104056000000001 10.026264000000001 4.884L10.091352 4.764 10.10856 2.7840000000000003C10.120104 1.454952 10.117583999999999 0.751176 10.100928 0.64332C10.059552 0.375408 9.835608 0.11971200000000001 9.580248000000001 0.048792C9.455136 0.014039999999999999 9.22188 0.021456 9.101592 0.064032M13.9266 0.062304000000000005C13.780968 0.115872 13.598160000000002 0.290352 13.5192 0.45112800000000003L13.452 0.588 13.44528 2.7667200000000003C13.440768000000002 4.225824 13.446816 4.976184 13.463591999999998 5.038512C13.50912 5.207568 13.630464000000002 5.355048 13.836 5.49108C14.394648000000002 5.8608720000000005 14.580696 6.06216 14.993927999999999 6.744C15.242280000000001 7.153776000000001 15.579144 7.745808 15.901560000000002 8.339136C16.204416 8.896488 16.285776 9.003552 16.477848 9.097464C16.656864 9.185016000000001 16.922904 9.192168 17.093544 9.114048C17.3406 9.000936 17.496096 8.802144 17.545176 8.536631999999999C17.590224000000003 8.292936 17.558976 8.2164 17.009016 7.224C16.565112 6.422928000000001 16.056648000000003 5.580552 15.84708 5.298935999999999C15.648264 5.031816 15.325392 4.701624000000001 15.101040000000001 4.5360000000000005L14.954736 4.428 14.947368 2.496L14.94 0.5640000000000001 14.880312000000002 0.44714400000000004C14.807927999999999 0.3054 14.664528 0.157752 14.533224 0.08976C14.404560000000002 0.023112 14.073816 0.00816 13.9266 0.062304000000000005M5.451192000000001 7.826304C5.004936 7.894512 4.532304 8.1678 4.258944 8.51568C4.083456 8.739023999999999 3.9992159999999997 8.931168 3.783552 9.6C3.077472 11.789712 2.5722240000000003 13.607208 2.461704 14.355072000000002C2.41812 14.649912 2.412504 15.153816 2.449776 15.421920000000002L2.475576 15.60732 1.300872 16.785672C-0.00864 18.09924 0.034872 18.044616 0.037176 18.372C0.040128 18.790992 0.36084 19.109328 0.78 19.109328C1.117272 19.109328 1.066584 19.15068 2.574912 17.644776C4.01484 16.207152 4.0289280000000005 16.190736 4.050696 15.927024C4.05708 15.849528000000001 4.036872 15.688536 3.996072 15.492C3.9377760000000004 15.211295999999999 3.932472 15.14508 3.943296 14.832C3.9566160000000004 14.446776 4.003032 14.215824000000001 4.259352000000001 13.26C4.589136 12.030216000000001 5.336208 9.61692 5.43276 9.46956C5.481672 9.394944 5.638104 9.312 5.729952 9.312C5.83296 9.312 6.0052319999999995 9.410112000000002 6.055248 9.497280000000002C6.088128 9.554592 6.101088 9.632784 6.105408 9.800088C6.110328 9.990048 6.121656 10.04688 6.17712 10.160256C6.395087999999999 10.605744 6.9802800000000005 10.726464 7.342656000000001 10.400664C7.411224 10.338984 7.49004 10.235784 7.5287999999999995 10.156872C7.589016 10.034232000000001 7.596864 9.989688000000001 7.604400000000001 9.728712C7.611216000000001 9.49212 7.60332 9.400008 7.562400000000001 9.238152C7.394664 8.574888 6.86244 8.037840000000001 6.209327999999999 7.8727920000000005C5.980608 7.815 5.655528 7.795056 5.451192000000001 7.826304M13.788 8.890751999999999C13.535616000000001 8.930208 13.407072000000001 8.96808 12.792 9.184272C11.255112 9.72444 9.458112 10.447656 7.948608 11.133528C7.03524 11.548536 6.996023999999999 11.572824 6.8053680000000005 11.841816C6.606264 12.122712 6.518904 12.350304 6.4812 12.686424C6.4367280000000004 13.083048 6.540096000000001 13.523232 6.752832 13.843248C6.83556 13.967664 7.193327999999999 14.334384 8.096088 15.22008L9.326568000000002 16.427304 9.169272 16.477608C8.969472 16.541520000000002 8.840352000000001 16.607784 8.620032 16.759512C7.885416000000001 17.26548 7.625903999999999 18.308064 8.033592 19.115472C8.229264 19.502976 8.555904 19.819992 8.936712 19.992C9.017712 20.0286 9.429599999999999 20.168664 9.852 20.303256C11.833944 20.934792 13.483056 21.39432 14.304 21.543816C14.570712000000002 21.592368 15.262872 21.60024 15.492 21.557304000000002L15.636000000000001 21.530328 16.795824 22.693608C17.472192 23.371992 17.993928 23.8764 18.047496000000002 23.903736000000002C18.239328 24.001608 18.550776 24.002832 18.738792 23.906424C19.086696 23.72808 19.244616 23.264952 19.075152 22.92C19.022424 22.812672000000003 18.763056 22.537992 17.688024 21.45096C16.511208 20.260968000000002 16.349064000000002 20.105688 16.213968 20.039184000000002C16.026768 19.947024 15.852048 19.94052 15.552 20.014560000000003C15.250152 20.089032 14.877648 20.103384 14.556000000000001 20.052912C13.919208 19.952976 12.040128000000001 19.425072 10.145832 18.813912000000002C9.678864 18.663263999999998 9.533784 18.606528 9.468168 18.548928C9.262848 18.36864 9.326208 18.038712 9.585144 17.939808C9.68592 17.901336 9.71976 17.903112 10.502376 17.988432C10.97004 18.039408 11.359416000000001 18.07092 11.419656 18.062664C11.660688 18.02964 11.906496 17.84436 12.005976 17.620704C12.081936 17.449944000000002 12.07752 17.189232 11.995632 17.0124C11.918472000000001 16.845744 12.015576000000001 16.94472 9.799728 14.773992C7.960584 12.972264 7.938072 12.94812 7.978896000000001 12.819456C7.997088 12.762192 8.448456 12.550032 9.708 12.006744000000001C10.779936 11.544384 11.933159999999999 11.092176 13.164 10.651536C14.002344 10.351416 14.121432 10.328496 14.445768000000001 10.40496C14.764175999999999 10.480008 14.817936 10.523328 15.874512 11.555856C16.414896 12.083928 17.263272 12.921000000000001 17.759808 13.416C18.722568 14.375784 18.75888 14.419608 18.935376 14.834376C19.106808 15.23724 19.17888 15.709608000000001 19.132392 16.125792C19.094784 16.462416 19.029576 16.687056 18.880944 16.992C18.75996 17.240208 18.758112 17.247432 18.757056 17.472C18.756072000000003 17.682528 18.76152 17.7096 18.828 17.825136C18.87768 17.911464000000002 19.497312 18.55272 20.826864 19.893768C22.921392 22.006439999999998 22.858656 21.95028 23.15436 21.977088000000002C23.64744 22.021800000000002 24.048168 21.57504 23.95224 21.087528000000002C23.936832000000003 21.009168 23.896895999999998 20.900712000000002 23.863488 20.84652C23.830104000000002 20.792328 23.207256 20.1486 22.479384 19.416C21.751535999999998 18.683400000000002 20.98488 17.910072000000003 20.775768000000003 17.69748L20.395512 17.310959999999998 20.467344 17.08548C20.732376000000002 16.2534 20.711976 15.33276 20.409167999999998 14.46C20.31756 14.196 20.079168 13.737456 19.903776 13.488C19.727664 13.237464000000001 19.179624 12.681576 17.075808 10.619496C15.834576 9.402912 15.706248 9.293424 15.304008000000001 9.107568C15.076920000000001 9.002640000000001 14.742624 8.912832 14.46 8.880840000000001C14.189856 8.850264000000001 14.0322 8.852592 13.788 8.890751999999999M6.281112 18.754535999999998C6.231144 18.772368 6.139344 18.82656 6.077112 18.874992C6.0149040000000005 18.9234 5.108736 19.816248 4.063392 20.859047999999998C2.630904 22.28808 2.149248 22.782768 2.107776 22.867536C2.069184 22.9464 2.050128 23.03484 2.043936 23.163576C2.03628 23.323224000000003 2.0436959999999997 23.366232 2.100816 23.493528C2.16744 23.641992 2.308152 23.795688 2.439744 23.863728000000002C2.638416 23.966472 2.963616 23.958023999999998 3.156288 23.845104000000003C3.2131920000000003 23.811744 4.135128 22.914144 5.205 21.850392C7.384944000000001 19.683 7.28412 19.7988 7.282488000000001 19.464144C7.281864000000001 19.330392 7.267752 19.253088 7.227696 19.164C7.152288 18.996216 6.978168 18.826248 6.821712 18.767712000000003C6.672192 18.711768000000003 6.418343999999999 18.705576 6.281112 18.754535999999998" stroke="none" fill="currentColor" fill-rule="evenodd" stroke-width="0.024"></path></svg>